<svg width="20" height="20" viewBox="0 0 20 20" fill="none" xmlns="http://www.w3.org/2000/svg">
<path d="M10.0014 1.6665C8.907 1.6665 7.82337 1.88205 6.81232 2.30084C5.80128 2.71963 4.88262 3.33346 4.1088 4.10728C2.54599 5.67008 1.66802 7.7897 1.66802 9.99984C1.66073 11.9241 2.32701 13.7903 3.55135 15.2748L1.88469 16.9415C1.76906 17.0587 1.69072 17.2075 1.65958 17.3692C1.62843 17.5308 1.64587 17.6981 1.70969 17.8498C1.7789 17.9998 1.89111 18.1258 2.03206 18.2118C2.17301 18.2979 2.33635 18.3401 2.50135 18.3332H10.0014C12.2115 18.3332 14.3311 17.4552 15.8939 15.8924C17.4567 14.3296 18.3347 12.21 18.3347 9.99984C18.3347 7.7897 17.4567 5.67008 15.8939 4.10728C14.3311 2.54448 12.2115 1.6665 10.0014 1.6665ZM10.0014 16.6665H4.50969L5.28469 15.8915C5.4399 15.7354 5.52701 15.5242 5.52701 15.304C5.52701 15.0838 5.4399 14.8726 5.28469 14.7165C4.19351 13.6265 3.514 12.192 3.36193 10.6572C3.20986 9.12238 3.59464 7.58234 4.45071 6.29944C5.30678 5.01654 6.58118 4.07014 8.05678 3.62148C9.53239 3.17283 11.1179 3.24967 12.5432 3.83893C13.9685 4.42819 15.1454 5.4934 15.8734 6.85308C16.6014 8.21276 16.8354 9.78279 16.5356 11.2957C16.2358 12.8086 15.4208 14.1707 14.2293 15.15C13.0378 16.1294 11.5437 16.6653 10.0014 16.6665Z" fill="#28303F"/>
</svg>
