<svg width="20" height="20" viewBox="0 0 20 20" fill="none" xmlns="http://www.w3.org/2000/svg">
<g clip-path="url(#clip0_1_7144)">
<path d="M11.4024 8.4005L12.0331 8.80634L12.0331 8.80634L11.4024 8.4005ZM7.58317 7.49984C7.58317 7.91405 7.91896 8.24984 8.33317 8.24984C8.74738 8.24984 9.08317 7.91405 9.08317 7.49984H7.58317ZM9.24984 11.2498C9.24984 11.6641 9.58562 11.9998 9.99984 11.9998C10.4141 11.9998 10.7498 11.6641 10.7498 11.2498H9.24984ZM10.7498 13.3332C10.7498 12.919 10.4141 12.5832 9.99984 12.5832C9.58562 12.5832 9.24984 12.919 9.24984 13.3332H10.7498ZM9.24984 14.1665C9.24984 14.5807 9.58562 14.9165 9.99984 14.9165C10.4141 14.9165 10.7498 14.5807 10.7498 14.1665H9.24984ZM18.3332 9.99984H17.5832C17.5832 14.188 14.188 17.5832 9.99984 17.5832V18.3332V19.0832C15.0164 19.0832 19.0832 15.0164 19.0832 9.99984H18.3332ZM9.99984 18.3332V17.5832C5.81168 17.5832 2.4165 14.188 2.4165 9.99984H1.6665H0.916504C0.916504 15.0164 4.98325 19.0832 9.99984 19.0832V18.3332ZM1.6665 9.99984H2.4165C2.4165 5.81168 5.81168 2.4165 9.99984 2.4165V1.6665V0.916504C4.98325 0.916504 0.916504 4.98325 0.916504 9.99984H1.6665ZM9.99984 1.6665V2.4165C14.188 2.4165 17.5832 5.81168 17.5832 9.99984H18.3332H19.0832C19.0832 4.98325 15.0164 0.916504 9.99984 0.916504V1.6665ZM11.6665 7.49984H10.9165C10.9165 7.68344 10.8633 7.85233 10.7717 7.99466L11.4024 8.4005L12.0331 8.80634C12.2758 8.42922 12.4165 7.97982 12.4165 7.49984H11.6665ZM8.33317 7.49984H9.08317C9.08317 6.99358 9.49358 6.58317 9.99984 6.58317V5.83317V5.08317C8.66515 5.08317 7.58317 6.16515 7.58317 7.49984H8.33317ZM9.99984 5.83317V6.58317C10.5061 6.58317 10.9165 6.99358 10.9165 7.49984H11.6665H12.4165C12.4165 6.16515 11.3345 5.08317 9.99984 5.08317V5.83317ZM9.99984 10.8332H9.24984V11.2498H9.99984H10.7498V10.8332H9.99984ZM11.4024 8.4005L10.7717 7.99466C10.6707 8.15165 10.543 8.31588 10.3888 8.50755C10.2424 8.68947 10.066 8.90341 9.9079 9.12067C9.59702 9.54792 9.24984 10.126 9.24984 10.8332H9.99984H10.7498C10.7498 10.6199 10.8549 10.3686 11.1208 10.0032C11.2511 9.8241 11.3942 9.65085 11.5575 9.44789C11.7129 9.25469 11.8851 9.03638 12.0331 8.80634L11.4024 8.4005ZM9.99984 13.3332H9.24984V14.1665H9.99984H10.7498V13.3332H9.99984Z" fill="#28303F" fill-opacity="0.8"/>
</g>
<defs>
<clipPath id="clip0_1_7144">
<rect width="20" height="20" fill="white"/>
</clipPath>
</defs>
</svg>
