<svg width="20" height="20" viewBox="0 0 20 20" fill="none" xmlns="http://www.w3.org/2000/svg">
<ellipse cx="10" cy="13.7498" rx="5" ry="2.08333" stroke="#28303F" stroke-opacity="0.8" stroke-width="1.5" stroke-linejoin="round"/>
<circle cx="10" cy="6.6665" r="2.5" stroke="#28303F" stroke-opacity="0.8" stroke-width="1.5" stroke-linejoin="round"/>
<path d="M5.62646 10.9204C4.67268 11.3872 3.95837 12.0041 3.59717 12.7056C3.44194 12.7507 3.29729 12.7984 3.16553 12.8511C2.84102 12.9809 2.62832 13.1165 2.50928 13.229C2.45671 13.2787 2.43197 13.3133 2.42139 13.3325C2.43164 13.3515 2.45574 13.3864 2.50928 13.437C2.62827 13.5495 2.84087 13.6851 3.16553 13.8149C3.22076 13.837 3.27888 13.8566 3.33838 13.8774C3.37626 14.5149 3.69669 15.111 4.23193 15.6294C3.62956 15.5375 3.07733 15.3963 2.60791 15.2085C2.17881 15.0368 1.7816 14.813 1.479 14.5269C1.21281 14.2751 0.981749 13.9349 0.928223 13.5171L0.916504 13.3335L0.928223 13.1489C0.981856 12.7312 1.21287 12.3908 1.479 12.1392C1.78153 11.8532 2.17898 11.6301 2.60791 11.4585C3.42173 11.133 4.48339 10.9413 5.62646 10.9204Z" fill="#28303F" fill-opacity="0.8"/>
<path d="M14.3721 10.9204C15.5157 10.9412 16.5774 11.1328 17.3916 11.4585C17.8208 11.6302 18.2188 11.853 18.5215 12.1392C18.8257 12.4269 19.083 12.8308 19.083 13.3335C19.0829 13.836 18.8256 14.2392 18.5215 14.5269C18.2188 14.8131 17.8209 15.0368 17.3916 15.2085C16.9219 15.3964 16.3693 15.5375 15.7666 15.6294C16.3022 15.1109 16.6232 14.5152 16.6611 13.8774C16.7206 13.8566 16.7788 13.837 16.834 13.8149C17.1585 13.6851 17.3712 13.5495 17.4902 13.437C17.5432 13.3869 17.5667 13.3516 17.5771 13.3325C17.5664 13.3132 17.5423 13.2783 17.4902 13.229C17.3712 13.1165 17.1584 12.9808 16.834 12.8511C16.7022 12.7984 16.5576 12.7507 16.4023 12.7056C16.041 12.0039 15.3263 11.3872 14.3721 10.9204Z" fill="#28303F" fill-opacity="0.8"/>
<path d="M14.167 5.0835C15.5015 5.08376 16.583 6.16596 16.583 7.50049C16.5828 8.83487 15.5013 9.91624 14.167 9.9165C13.7285 9.9165 13.3184 9.79738 12.9639 9.59326C13.3178 9.23478 13.6065 8.8126 13.8125 8.34521C13.9216 8.39093 14.0413 8.4165 14.167 8.4165C14.6729 8.41624 15.0828 8.00644 15.083 7.50049C15.083 6.99439 14.673 6.58376 14.167 6.5835H14.1641C14.1538 6.06097 14.048 5.5624 13.8623 5.104C13.9621 5.09144 14.0638 5.0835 14.167 5.0835Z" fill="#28303F" fill-opacity="0.8"/>
<path d="M5.8335 5.0835C5.93643 5.08351 6.03766 5.0915 6.13721 5.104C5.95156 5.56239 5.84472 6.06098 5.83447 6.5835H5.8335C5.32724 6.5835 4.9165 6.99423 4.9165 7.50049C4.91668 8.0066 5.32734 8.4165 5.8335 8.4165C5.95857 8.41646 6.07744 8.39059 6.18604 8.34521C6.39199 8.81252 6.68085 9.23479 7.03467 9.59326C6.68049 9.79698 6.27147 9.91645 5.8335 9.9165C4.49892 9.9165 3.41668 8.83503 3.4165 7.50049C3.4165 6.1658 4.49881 5.0835 5.8335 5.0835Z" fill="#28303F" fill-opacity="0.8"/>
</svg>
