<svg width="20" height="20" viewBox="0 0 20 20" fill="none" xmlns="http://www.w3.org/2000/svg">
<path d="M9.99984 14.1667C7.23841 14.1667 4.99984 11.9281 4.99984 9.16667M9.99984 14.1667C12.7613 14.1667 14.9998 11.9281 14.9998 9.16667M9.99984 14.1667V17.5M4.99984 9.16667L4.99984 4.16667C4.99984 3.24619 5.74603 2.5 6.6665 2.5L13.3332 2.5C14.2536 2.5 14.9998 3.24619 14.9998 4.16667L14.9998 9.16667M4.99984 9.16667L4.99984 5.83333C4.99984 4.91286 4.25365 4.16667 3.33317 4.16667C2.4127 4.16667 1.6665 4.91286 1.6665 5.83333C1.6665 7.67428 3.15889 9.16667 4.99984 9.16667ZM14.9998 9.16667L14.9998 5.83333C14.9998 4.91286 15.746 4.16667 16.6665 4.16667C17.587 4.16667 18.3332 4.91286 18.3332 5.83333C18.3332 7.67428 16.8408 9.16667 14.9998 9.16667ZM9.99984 17.5H7.49984M9.99984 17.5H12.4998" stroke="#28303F" stroke-opacity="0.8" stroke-width="1.5" stroke-linecap="round"/>
</svg>
