<svg width="16" height="16" viewBox="0 0 16 16" fill="none" xmlns="http://www.w3.org/2000/svg">
<path d="M13.3335 9.3335L13.9597 8.70727C14.3502 8.31675 14.3502 7.68358 13.9597 7.29306L13.3335 6.66683" stroke="#28303F" stroke-opacity="0.8" stroke-width="1.5" stroke-linecap="round" stroke-linejoin="round"/>
<path d="M14.0002 7.99984H8.66683M4.00016 13.3332C2.5274 13.3332 1.3335 12.1393 1.3335 10.6665V5.33317C1.3335 3.86041 2.5274 2.6665 4.00016 2.6665M4.00016 13.3332C5.47292 13.3332 6.66683 12.1393 6.66683 10.6665V5.33317C6.66683 3.86041 5.47292 2.6665 4.00016 2.6665M4.00016 13.3332H9.3335C10.8063 13.3332 12.0002 12.1393 12.0002 10.6665M4.00016 2.6665H9.3335C10.8063 2.6665 12.0002 3.86041 12.0002 5.33317" stroke="#28303F" stroke-opacity="0.8" stroke-linecap="round"/>
</svg>
