<svg width="20" height="20" viewBox="0 0 20 20" fill="none" xmlns="http://www.w3.org/2000/svg">
<path d="M16.6663 15.0002H11.6663M16.6663 15.0002C17.5868 15.0002 18.333 15.7464 18.333 16.6668C18.333 17.5873 17.5868 18.3335 16.6663 18.3335H11.6663C10.7458 18.3335 9.99965 17.5873 9.99965 16.6668C9.99965 15.7464 10.7458 15.0002 11.6663 15.0002M16.6663 15.0002C17.5868 15.0002 18.333 14.254 18.333 13.3335C18.333 12.413 17.5868 11.6668 16.6663 11.6668H16.1108M11.6663 15.0002C10.7458 15.0002 9.99965 14.254 9.99965 13.3335C9.99965 12.413 10.7458 11.6668 11.6663 11.6668H16.1108M11.3958 18.3335H8.60344C5.19065 18.3335 2.78081 14.99 3.86003 11.7524L4.69336 9.25235C5.37393 7.21064 7.28462 5.8335 9.43678 5.8335H10.5625C12.7147 5.8335 14.6254 7.21065 15.3059 9.25236L16.1108 11.6668" stroke="#28303F" stroke-opacity="0.8" stroke-width="1.5" stroke-linejoin="round"/>
<path d="M11.7381 5.83317L8.2616 5.83317L7.09403 4.49397C5.9495 3.18119 7.28471 1.21898 8.95573 1.75804L9.72887 2.00745C9.9049 2.06424 10.0948 2.06424 10.2708 2.00745L11.0439 1.75804C12.715 1.21898 14.0502 3.18119 12.9056 4.49397L11.7381 5.83317Z" stroke="#28303F" stroke-opacity="0.8" stroke-width="1.5" stroke-linejoin="round"/>
</svg>
