<svg width="20" height="20" viewBox="0 0 20 20" fill="none" xmlns="http://www.w3.org/2000/svg">
<path d="M15.459 2.74051C15.1315 2.4869 14.6605 2.5468 14.4068 2.8743C14.1532 3.2018 14.2131 3.67288 14.5406 3.92649L15.459 2.74051ZM17.4347 6.28309L16.7646 6.6199L17.4347 6.28309ZM18.3326 9.96463L19.0826 9.95599L18.3326 9.96463ZM17.5197 13.6648L18.1973 13.9863L17.5197 13.6648ZM14.6811 16.0842C14.3593 16.3451 14.31 16.8174 14.5708 17.1391C14.8317 17.4609 15.304 17.5103 15.6257 17.2494L14.6811 16.0842ZM12.9333 12.7525C12.6125 13.0145 12.5647 13.487 12.8267 13.8078C13.0886 14.1287 13.5611 14.1764 13.882 13.9145L12.9333 12.7525ZM14.9996 9.98347L15.7495 9.97509V9.97509L14.9996 9.98347ZM13.7951 6.07594C13.4687 5.82084 12.9974 5.8786 12.7423 6.20494C12.4872 6.53128 12.5449 7.00263 12.8713 7.25772L13.7951 6.07594ZM5.45904 3.92649C5.78654 3.67288 5.84644 3.2018 5.59283 2.8743C5.33922 2.5468 4.86814 2.4869 4.54064 2.74051L5.45904 3.92649ZM2.565 6.28309L3.23512 6.6199L2.565 6.28309ZM1.66706 9.96463L0.917109 9.95599L1.66706 9.96463ZM2.47997 13.6648L1.80235 13.9863H1.80235L2.47997 13.6648ZM4.37395 17.2494C4.69572 17.5103 5.16802 17.4609 5.42886 17.1391C5.68971 16.8174 5.64033 16.3451 5.31856 16.0842L4.37395 17.2494ZM6.11771 13.9145C6.43856 14.1764 6.91103 14.1287 7.17299 13.8078C7.43495 13.487 7.38721 13.0145 7.06635 12.7525L6.11771 13.9145ZM5.0001 9.98347L4.25014 9.97509V9.97509L5.0001 9.98347ZM7.1284 7.25772C7.45474 7.00263 7.51249 6.53128 7.2574 6.20494C7.0023 5.8786 6.53095 5.82084 6.20461 6.07594L7.1284 7.25772ZM9.24984 16.6668C9.24984 17.081 9.58562 17.4168 9.99984 17.4168C10.4141 17.4168 10.7498 17.081 10.7498 16.6668H9.24984ZM11.6665 10.0002H12.4165C12.4165 8.66547 11.3345 7.5835 9.99984 7.5835V8.3335V9.0835C10.5061 9.0835 10.9165 9.4939 10.9165 10.0002H11.6665ZM9.99984 8.3335V7.5835C8.66515 7.5835 7.58317 8.66547 7.58317 10.0002H8.33317H9.08317C9.08317 9.4939 9.49358 9.0835 9.99984 9.0835V8.3335ZM8.33317 10.0002H7.58317C7.58317 11.3349 8.66515 12.4168 9.99984 12.4168V11.6668V10.9168C9.49358 10.9168 9.08317 10.5064 9.08317 10.0002H8.33317ZM9.99984 11.6668V12.4168C11.3345 12.4168 12.4165 11.3349 12.4165 10.0002H11.6665H10.9165C10.9165 10.5064 10.5061 10.9168 9.99984 10.9168V11.6668ZM14.9998 3.3335L14.5406 3.92649C15.4797 4.65369 16.2389 5.57412 16.7646 6.6199L17.4347 6.28309L18.1048 5.94629C17.4774 4.69801 16.5731 3.60324 15.459 2.74051L14.9998 3.3335ZM17.4347 6.28309L16.7646 6.6199C17.2901 7.66559 17.5693 8.81106 17.5827 9.97326L18.3326 9.96463L19.0826 9.95599C19.0665 8.56446 18.7322 7.19465 18.1048 5.94629L17.4347 6.28309ZM18.3326 9.96463L17.5827 9.97326C17.5961 11.1355 17.3433 12.2866 16.8421 13.3434L17.5197 13.6648L18.1973 13.9863C18.7959 12.7244 19.0986 11.3475 19.0826 9.95599L18.3326 9.96463ZM17.5197 13.6648L16.8421 13.3434C16.3408 14.4002 15.603 15.3368 14.6811 16.0842L15.1534 16.6668L15.6257 17.2494C16.7198 16.3625 17.5988 15.2481 18.1973 13.9863L17.5197 13.6648ZM13.4076 13.3335L13.882 13.9145C14.4718 13.4329 14.9465 12.831 15.2701 12.1499L14.5927 11.828L13.9153 11.5061C13.6887 11.9829 13.3543 12.4088 12.9333 12.7525L13.4076 13.3335ZM14.5927 11.828L15.2701 12.1499C15.5938 11.4687 15.7579 10.7262 15.7495 9.97509L14.9996 9.98347L14.2496 9.99185C14.2554 10.5127 14.1418 11.0296 13.9153 11.5061L14.5927 11.828ZM14.9996 9.98347L15.7495 9.97509C15.7411 9.22403 15.5605 8.48512 15.2217 7.81095L14.5516 8.14766L13.8814 8.48438C14.1186 8.95644 14.2438 9.47096 14.2496 9.99185L14.9996 9.98347ZM14.5516 8.14766L15.2217 7.81095C14.8831 7.1369 14.3953 6.54512 13.7951 6.07594L13.3332 6.66683L12.8713 7.25772C13.3001 7.5929 13.6442 8.01218 13.8814 8.48438L14.5516 8.14766ZM4.99984 3.3335L4.54064 2.74051C3.42654 3.60324 2.52226 4.69801 1.89488 5.94629L2.565 6.28309L3.23512 6.6199C3.76073 5.57412 4.51996 4.65369 5.45904 3.92649L4.99984 3.3335ZM2.565 6.28309L1.89488 5.94629C1.26746 7.19465 0.933137 8.56446 0.917109 9.95599L1.66706 9.96463L2.41701 9.97326C2.4304 8.81106 2.70956 7.66559 3.23512 6.6199L2.565 6.28309ZM1.66706 9.96463L0.917109 9.95599C0.901081 11.3475 1.20377 12.7244 1.80235 13.9863L2.47997 13.6648L3.1576 13.3434C2.65633 12.2866 2.40362 11.1355 2.41701 9.97326L1.66706 9.96463ZM2.47997 13.6648L1.80235 13.9863C2.40089 15.2481 3.27985 16.3625 4.37395 17.2494L4.84626 16.6668L5.31856 16.0842C4.39663 15.3368 3.65891 14.4002 3.1576 13.3434L2.47997 13.6648ZM6.59203 13.3335L7.06635 12.7525C6.64539 12.4088 6.31093 11.9829 6.08439 11.5061L5.40698 11.828L4.72958 12.1499C5.05322 12.831 5.52786 13.4329 6.11771 13.9145L6.59203 13.3335ZM5.40698 11.828L6.08439 11.5061C5.85792 11.0296 5.74423 10.5127 5.75005 9.99185L5.0001 9.98347L4.25014 9.97509C4.24175 10.7262 4.40587 11.4687 4.72958 12.1499L5.40698 11.828ZM5.0001 9.98347L5.75005 9.99185C5.75587 9.47096 5.88108 8.95644 6.11827 8.48438L5.4481 8.14766L4.77793 7.81095C4.4392 8.48512 4.25853 9.22403 4.25014 9.97509L5.0001 9.98347ZM5.4481 8.14766L6.11827 8.48438C6.35552 8.01218 6.69961 7.5929 7.1284 7.25772L6.6665 6.66683L6.20461 6.07594C5.60439 6.54512 5.1166 7.1369 4.77793 7.81095L5.4481 8.14766ZM9.99984 11.6668H9.24984V16.6668H9.99984H10.7498V11.6668H9.99984Z" fill="#28303F" fill-opacity="0.8"/>
</svg>
