<svg width="32" height="32" viewBox="0 0 32 32" fill="none" xmlns="http://www.w3.org/2000/svg">
<rect width="32" height="32" rx="10" fill="#3C82F6"/>
<path d="M20.1654 15.796L20.9211 16.4053C21.0983 16.5483 21.3555 16.5271 21.5073 16.357L23.1654 14.5M20.9987 21.0833C20.9987 22.6942 18.387 24 15.1654 24C11.9437 24 9.33203 22.6942 9.33203 21.0833C9.33203 19.4725 11.9437 18.1667 15.1654 18.1667C18.387 18.1667 20.9987 19.4725 20.9987 21.0833ZM18.4987 12.3333C18.4987 14.1743 17.0063 15.6667 15.1654 15.6667C13.3244 15.6667 11.832 14.1743 11.832 12.3333C11.832 10.4924 13.3244 9 15.1654 9C17.0063 9 18.4987 10.4924 18.4987 12.3333Z" stroke="white" stroke-width="1.5" stroke-linecap="round" stroke-linejoin="round"/>
</svg>
