<svg width="32" height="33" viewBox="0 0 32 33" fill="none" xmlns="http://www.w3.org/2000/svg">
<rect y="0.5" width="32" height="32" rx="10" fill="#2355F6"/>
<path d="M20.1668 19.832V23.6012C20.1668 24.1907 19.5714 24.5939 19.024 24.3749L16.3097 23.2892C16.111 23.2097 15.8893 23.2097 15.6907 23.2892L12.9763 24.3749C12.4289 24.5939 11.8335 24.1907 11.8335 23.6012V19.832" stroke="white" stroke-width="1.5" stroke-linejoin="round"/>
<path d="M14.8271 8.60001C15.5031 8.02395 16.4973 8.02395 17.1732 8.60001L17.7693 9.10799C18.059 9.35484 18.4191 9.50403 18.7985 9.5343L19.5792 9.5966C20.4645 9.66725 21.1675 10.3703 21.2382 11.2556L21.3005 12.0363C21.3308 12.4156 21.48 12.7758 21.7268 13.0655L22.2348 13.6616C22.8108 14.3375 22.8108 15.3317 22.2348 16.0077L21.7268 16.6038C21.48 16.8935 21.3308 17.2536 21.3005 17.633L21.2382 18.4137C21.1675 19.299 20.4645 20.002 19.5792 20.0727L18.7985 20.135C18.4191 20.1652 18.059 20.3144 17.7693 20.5613L17.1732 21.0693C16.4973 21.6453 15.5031 21.6453 14.8271 21.0693L14.231 20.5613C13.9413 20.3144 13.5812 20.1652 13.2018 20.135L12.4211 20.0727C11.5358 20.002 10.8328 19.299 10.7621 18.4137L10.6998 17.633C10.6696 17.2536 10.5204 16.8935 10.2735 16.6038L9.76554 16.0077C9.18948 15.3317 9.18948 14.3375 9.76554 13.6616L10.2735 13.0655C10.5204 12.7758 10.6696 12.4156 10.6998 12.0363L10.7621 11.2556C10.8328 10.3703 11.5358 9.66725 12.4211 9.5966L13.2018 9.5343C13.5812 9.50403 13.9413 9.35484 14.231 9.10799L14.8271 8.60001Z" stroke="white" stroke-width="1.5"/>
</svg>
