<svg width="440" height="341" viewBox="0 0 440 341" fill="none" xmlns="http://www.w3.org/2000/svg">
<rect x="0.5" y="0.5" width="439" height="339.586" rx="23.5" fill="white"/>
<rect x="0.5" y="0.5" width="439" height="339.586" rx="23.5" stroke="#E3E3E4"/>
<rect x="152" y="24" width="30.6022" height="30.5862" rx="8" fill="#F3F3F3"/>
<path d="M168.975 44.6729L169.806 45.5041H166.27L165.789 44.6729H168.975Z" fill="url(#paint0_linear_1_2526)"/>
<path d="M173.556 39.0157L172.577 38.4399L168.975 44.6727L169.806 45.5039L173.556 39.0157Z" fill="url(#paint1_linear_1_2526)"/>
<path d="M167.288 41.749L168.119 42.5803H163.426L163.907 41.749H167.288Z" fill="url(#paint2_linear_1_2526)"/>
<path d="M171.626 36.5121L170.647 35.9368L167.287 41.7489L168.118 42.5801L171.626 36.5121Z" fill="url(#paint3_linear_1_2526)"/>
<path d="M162.217 38.8312L161.082 38.5261L163.426 42.5802L163.907 41.7489L162.217 38.8312Z" fill="url(#paint4_linear_1_2526)"/>
<path d="M164.221 33.1062H165.533L162.217 38.831L161.082 38.5259L164.221 33.1062Z" fill="url(#paint5_linear_1_2526)"/>
<path d="M174.009 39.2581L172.333 42.1524L172.319 42.1763L170.639 45.0763H170.639L169.267 47.4453C169.068 47.7886 168.7 48.0002 168.303 48.0002H166.408C166.011 48.0002 165.643 47.7886 165.444 47.4453L164.554 45.9075L164.072 45.0763H167.258L168.952 42.1524L170.628 39.2585H170.629L172.265 36.4333L172.319 36.3403L172.373 36.4333L174.009 39.2581Z" fill="url(#paint6_linear_1_2526)"/>
<path d="M177.067 38.7007C177.266 39.0453 177.266 39.4707 177.067 39.8152L175.96 41.7254L175.335 42.8051L174.341 44.5206C174.142 44.8643 173.775 45.0759 173.378 45.0759H170.639L172.319 42.1764L172.333 42.1521L174.009 39.2582H174.009L172.373 36.433L172.319 36.34H168.938L168.885 36.433H168.884L165.572 42.1521H162.191L162.285 41.9904L165.504 36.433L167.197 33.5095H173.418C173.815 33.5095 174.182 33.7211 174.381 34.0648L175.753 36.433L176.816 38.2679L177.067 38.7007H177.067Z" fill="url(#paint7_linear_1_2526)"/>
<path d="M170.678 33.5098H167.196L165.503 36.4332L162.284 41.9903L162.19 42.1523L160.5 39.2346L160.593 39.0729L163.815 33.5098L165.187 31.1413C165.386 30.7975 165.753 30.5859 166.151 30.5859H168.342C168.74 30.5859 169.107 30.7975 169.306 31.1408L170.627 33.422L170.678 33.5098Z" fill="url(#paint8_linear_1_2526)"/>
<path d="M172.318 36.34L172.264 36.433L170.628 39.2582H170.627L168.951 42.1521L167.258 45.0759H161.333C160.936 45.0759 160.569 44.8643 160.37 44.5206L158.998 42.1521L158.904 41.99L157.536 39.6293C157.337 39.2847 157.337 38.8593 157.536 38.5147L158.904 36.154L160.114 34.0648C160.313 33.7211 160.68 33.5095 161.077 33.5095H163.816L160.594 39.0726L160.5 39.2343L162.19 42.1521H165.571L168.883 36.433H168.884L168.937 36.34H172.318Z" fill="url(#paint9_linear_1_2526)"/>
<path d="M285 32C284.584 32 284.194 31.9249 283.828 31.7746C283.47 31.6172 283.151 31.4025 282.871 31.1306C282.599 30.8515 282.384 30.5295 282.226 30.1646C282.075 29.7996 282 29.4097 282 28.9946C282 28.5796 282.075 28.1932 282.226 27.8354C282.384 27.4705 282.599 27.1521 282.871 26.8801C283.151 26.6011 283.47 26.3864 283.828 26.2361C284.194 26.0787 284.584 26 285 26C285.423 26 285.814 26.0787 286.172 26.2361C286.53 26.3864 286.846 26.6011 287.118 26.8801C287.398 27.1521 287.613 27.4705 287.763 27.8354C287.921 28.1932 288 28.5796 288 28.9946C288 29.4097 287.921 29.7996 287.763 30.1646C287.613 30.5295 287.398 30.8515 287.118 31.1306C286.846 31.4025 286.53 31.6172 286.172 31.7746C285.814 31.9249 285.423 32 285 32ZM285 31.3345C285.452 31.3345 285.849 31.2308 286.194 31.0233C286.538 30.8086 286.81 30.5224 287.011 30.1646C287.211 29.8068 287.312 29.4168 287.312 28.9946C287.312 28.5725 287.211 28.186 287.011 27.8354C286.81 27.4848 286.538 27.2057 286.194 26.9982C285.849 26.7835 285.452 26.6762 285 26.6762C284.563 26.6762 284.168 26.7835 283.817 26.9982C283.466 27.2057 283.19 27.4848 282.989 27.8354C282.789 28.186 282.688 28.5725 282.688 28.9946C282.688 29.4168 282.789 29.8068 282.989 30.1646C283.19 30.5224 283.466 30.8086 283.817 31.0233C284.168 31.2308 284.563 31.3345 285 31.3345ZM283.774 30.5939V27.3846H284.989C285.398 27.3846 285.72 27.4776 285.957 27.6637C286.201 27.8426 286.323 28.0894 286.323 28.4043C286.323 28.6118 286.265 28.7979 286.151 28.9624C286.043 29.127 285.882 29.2415 285.667 29.3059L286.419 30.5939H285.581L284.935 29.4132H284.538V30.5939H283.774ZM284.527 28.8122H284.968C285.147 28.8122 285.287 28.78 285.387 28.7156C285.495 28.644 285.548 28.5403 285.548 28.4043C285.548 28.2755 285.495 28.1789 285.387 28.1145C285.287 28.0501 285.147 28.0179 284.968 28.0179H284.527V28.8122Z" fill="#28303F"/>
<path d="M199.848 47.3984C195.893 47.3984 193.393 44.6055 193.393 40.1133C193.393 35.6504 195.912 32.8379 199.848 32.8379C203.041 32.8379 205.453 34.8008 205.824 37.7402H203.656C203.266 35.9336 201.762 34.752 199.848 34.752C197.289 34.752 195.629 36.8516 195.629 40.1133C195.629 43.4043 197.27 45.4844 199.857 45.4844C201.82 45.4844 203.217 44.4785 203.656 42.7793H205.834C205.297 45.6895 203.09 47.3984 199.848 47.3984ZM211.967 47.3594C209.027 47.3594 207.094 45.3379 207.094 42.0273C207.094 38.7266 209.037 36.7051 211.967 36.7051C214.896 36.7051 216.84 38.7266 216.84 42.0273C216.84 45.3379 214.906 47.3594 211.967 47.3594ZM211.967 45.6211C213.627 45.6211 214.691 44.3125 214.691 42.0273C214.691 39.752 213.617 38.4434 211.967 38.4434C210.316 38.4434 209.242 39.752 209.242 42.0273C209.242 44.3125 210.316 45.6211 211.967 45.6211ZM223.822 36.7246C226.43 36.7246 228.148 38.7754 228.148 42.0273C228.148 45.2793 226.439 47.3398 223.861 47.3398C222.387 47.3398 221.215 46.6172 220.629 45.4746H220.58V50.5625H218.471V36.8906H220.512V38.6582H220.551C221.156 37.4766 222.338 36.7246 223.822 36.7246ZM223.266 45.5527C224.936 45.5527 225.98 44.1855 225.98 42.0273C225.98 39.8789 224.936 38.502 223.266 38.502C221.654 38.502 220.57 39.9082 220.57 42.0273C220.57 44.166 221.645 45.5527 223.266 45.5527ZM230.521 50.9922C230.355 50.9922 229.818 50.9727 229.662 50.9434V49.2344C229.818 49.2734 230.17 49.2734 230.346 49.2734C231.332 49.2734 231.85 48.8633 232.172 47.8086C232.172 47.7891 232.357 47.1836 232.357 47.1738L228.646 36.8906H230.932L233.539 45.25H233.568L236.176 36.8906H238.402L234.545 47.7012C233.666 50.1914 232.66 50.9922 230.521 50.9922ZM247.758 36.5391L244.721 47.1641H242.65L238.852 33.0723H241.127L243.734 44.1074H243.812L246.791 33.0723H248.822L251.811 44.1074H251.889L254.496 33.0723H256.771L252.963 47.1641H250.902L247.855 36.5391H247.758ZM262.592 47.1641V36.8906H264.604V38.6094H264.652C265.209 37.4375 266.303 36.7148 267.885 36.7148C270.15 36.7148 271.449 38.1602 271.449 40.5137V47.1641H269.33V40.9238C269.33 39.3809 268.607 38.5312 267.143 38.5312C265.658 38.5312 264.701 39.5859 264.701 41.1777V47.1641H262.592ZM273.305 39.8008C273.305 37.9648 274.926 36.7051 277.328 36.7051C279.613 36.7051 281.215 37.9844 281.283 39.8105H279.301C279.203 38.8828 278.451 38.3066 277.27 38.3066C276.127 38.3066 275.365 38.8633 275.365 39.6738C275.365 40.3086 275.873 40.7383 276.938 41.002L278.666 41.4023C280.736 41.9004 281.518 42.6816 281.518 44.1953C281.518 46.0703 279.77 47.3594 277.25 47.3594C274.818 47.3594 273.207 46.0996 273.041 44.2148H275.131C275.297 45.2012 276.059 45.748 277.348 45.748C278.617 45.748 279.398 45.2207 279.398 44.3906C279.398 43.7363 279.008 43.375 277.934 43.1016L276.098 42.6523C274.242 42.2031 273.305 41.2363 273.305 39.8008Z" fill="#28303F"/>
<path d="M258.324 47.1641V36.8906H260.434V47.1641H258.324ZM259.379 35.3867C258.705 35.3867 258.158 34.8496 258.158 34.1855C258.158 33.5117 258.705 32.9746 259.379 32.9746C260.062 32.9746 260.609 33.5117 260.609 34.1855C260.609 34.8496 260.062 35.3867 259.379 35.3867Z" fill="url(#paint10_linear_1_2526)"/>
<path d="M284.74 47.2715C284.027 47.2715 283.461 46.7051 283.461 45.9922C283.461 45.2793 284.027 44.7129 284.74 44.7129C285.453 44.7129 286.02 45.2793 286.02 45.9922C286.02 46.7051 285.453 47.2715 284.74 47.2715Z" fill="url(#paint11_linear_1_2526)"/>
<rect x="145" width="150" height="1" fill="url(#paint12_linear_1_2526)"/>
<g filter="url(#filter0_d_1_2526)">
<rect x="190" y="78.5862" width="60" height="60" rx="30" fill="url(#paint13_linear_1_2526)" shape-rendering="crispEdges"/>
<rect x="190" y="78.5862" width="60" height="60" rx="30" fill="url(#paint14_linear_1_2526)" fill-opacity="0.2" shape-rendering="crispEdges"/>
<path fill-rule="evenodd" clip-rule="evenodd" d="M219.999 121.92C227.363 121.92 233.333 115.95 233.333 108.586C233.333 101.222 227.363 95.2529 219.999 95.2529C212.636 95.2529 206.666 101.222 206.666 108.586C206.666 115.95 212.636 121.92 219.999 121.92ZM226.122 105.2C226.461 104.764 226.383 104.136 225.947 103.797C225.511 103.458 224.882 103.536 224.543 103.972L219.201 110.842C219.082 110.994 218.858 111.014 218.715 110.885L215.335 107.843C214.924 107.474 214.292 107.507 213.923 107.917C213.553 108.328 213.587 108.96 213.997 109.33L217.377 112.371C218.383 113.277 219.948 113.139 220.779 112.069L226.122 105.2Z" fill="white"/>
</g>
<path d="M135.201 186.586V178.746L128.257 166.706H132.345L137.049 175.162L141.725 166.706H145.813L138.869 178.746V186.586H135.201ZM152.112 186.922C150.638 186.922 149.34 186.605 148.22 185.97C147.119 185.317 146.26 184.402 145.644 183.226C145.047 182.05 144.748 180.678 144.748 179.11C144.748 177.524 145.047 176.152 145.644 174.994C146.26 173.818 147.119 172.913 148.22 172.278C149.34 171.625 150.638 171.298 152.112 171.298C153.587 171.298 154.875 171.625 155.976 172.278C157.078 172.913 157.927 173.818 158.524 174.994C159.14 176.152 159.448 177.524 159.448 179.11C159.448 180.678 159.14 182.05 158.524 183.226C157.927 184.402 157.078 185.317 155.976 185.97C154.875 186.605 153.587 186.922 152.112 186.922ZM152.112 184.01C153.27 184.01 154.156 183.581 154.772 182.722C155.407 181.864 155.724 180.66 155.724 179.11C155.724 177.58 155.407 176.385 154.772 175.526C154.156 174.649 153.27 174.21 152.112 174.21C150.955 174.21 150.059 174.649 149.424 175.526C148.79 176.385 148.472 177.58 148.472 179.11C148.472 180.66 148.79 181.864 149.424 182.722C150.059 183.581 150.955 184.01 152.112 184.01ZM167.142 186.922C165.63 186.922 164.426 186.428 163.53 185.438C162.653 184.43 162.214 183.04 162.214 181.266V171.634H165.798V180.37C165.798 181.621 166.003 182.545 166.414 183.142C166.843 183.721 167.487 184.01 168.346 184.01C169.317 184.01 170.063 183.693 170.586 183.058C171.127 182.405 171.398 181.462 171.398 180.23V171.634H174.982V186.586H171.706L171.622 182.47L172.07 182.61C171.846 184.029 171.314 185.102 170.474 185.83C169.634 186.558 168.523 186.922 167.142 186.922ZM178.585 174.406L178.165 169.002V166.706H181.217V169.002L180.797 174.406H178.585ZM184.39 186.586V171.634H187.75L187.89 175.778L187.582 175.722C187.806 174.285 188.226 173.249 188.842 172.614C189.476 171.961 190.335 171.634 191.418 171.634H192.79V174.714H191.39C190.624 174.714 189.99 174.826 189.486 175.05C188.982 175.274 188.599 175.629 188.338 176.114C188.095 176.581 187.974 177.197 187.974 177.962V186.586H184.39ZM201.194 186.922C199.7 186.922 198.403 186.605 197.302 185.97C196.2 185.317 195.351 184.402 194.754 183.226C194.156 182.05 193.858 180.678 193.858 179.11C193.858 177.542 194.156 176.18 194.754 175.022C195.351 173.846 196.191 172.932 197.274 172.278C198.375 171.625 199.654 171.298 201.11 171.298C202.528 171.298 203.77 171.616 204.834 172.25C205.916 172.885 206.747 173.8 207.326 174.994C207.904 176.189 208.194 177.626 208.194 179.306V180.118H197.582C197.656 181.425 198.011 182.414 198.646 183.086C199.299 183.74 200.158 184.066 201.222 184.066C202.024 184.066 202.687 183.889 203.21 183.534C203.751 183.161 204.124 182.648 204.33 181.994L207.998 182.218C207.587 183.674 206.775 184.822 205.562 185.662C204.367 186.502 202.911 186.922 201.194 186.922ZM197.582 177.71H204.498C204.423 176.497 204.078 175.601 203.462 175.022C202.846 174.425 202.062 174.126 201.11 174.126C200.158 174.126 199.364 174.434 198.73 175.05C198.114 175.666 197.731 176.553 197.582 177.71ZM216.458 186.586L223.626 166.706H228.078L235.246 186.586H231.438L229.786 181.882H221.918L220.266 186.586H216.458ZM222.982 178.774H228.722L225.866 170.374L222.982 178.774ZM240.665 186.586C239.582 186.586 238.714 186.306 238.061 185.746C237.408 185.186 237.081 184.29 237.081 183.058V166.706H240.665V182.694C240.665 183.068 240.758 183.348 240.945 183.534C241.15 183.721 241.43 183.814 241.785 183.814H242.877V186.586H240.665ZM248.704 186.586C247.621 186.586 246.753 186.306 246.1 185.746C245.447 185.186 245.12 184.29 245.12 183.058V166.706H248.704V182.694C248.704 183.068 248.797 183.348 248.984 183.534C249.189 183.721 249.469 183.814 249.824 183.814H250.916V186.586H248.704ZM267.834 187.034C266.191 187.034 264.773 186.745 263.578 186.166C262.383 185.588 261.441 184.785 260.75 183.758C260.078 182.713 259.686 181.5 259.574 180.118L263.27 179.894C263.382 180.753 263.625 181.481 263.998 182.078C264.39 182.676 264.903 183.133 265.538 183.45C266.191 183.749 266.975 183.898 267.89 183.898C268.674 183.898 269.337 183.805 269.878 183.618C270.438 183.413 270.858 183.124 271.138 182.75C271.437 182.358 271.586 181.882 271.586 181.322C271.586 180.818 271.465 180.37 271.222 179.978C270.979 179.568 270.513 179.204 269.822 178.886C269.131 178.55 268.105 178.224 266.742 177.906C265.099 177.533 263.783 177.113 262.794 176.646C261.805 176.161 261.086 175.564 260.638 174.854C260.19 174.126 259.966 173.221 259.966 172.138C259.966 170.981 260.255 169.964 260.834 169.086C261.413 168.19 262.234 167.5 263.298 167.014C264.362 166.51 265.641 166.258 267.134 166.258C268.721 166.258 270.065 166.548 271.166 167.126C272.267 167.686 273.135 168.461 273.77 169.45C274.405 170.44 274.797 171.578 274.946 172.866L271.278 173.034C271.185 172.306 270.961 171.672 270.606 171.13C270.27 170.589 269.803 170.169 269.206 169.87C268.627 169.553 267.918 169.394 267.078 169.394C266.033 169.394 265.202 169.637 264.586 170.122C263.989 170.589 263.69 171.214 263.69 171.998C263.69 172.54 263.811 172.988 264.054 173.342C264.315 173.697 264.773 174.005 265.426 174.266C266.079 174.509 266.994 174.77 268.17 175.05C269.943 175.424 271.353 175.9 272.398 176.478C273.443 177.057 274.19 177.729 274.638 178.494C275.086 179.26 275.31 180.137 275.31 181.126C275.31 182.34 275.002 183.394 274.386 184.29C273.77 185.168 272.902 185.849 271.782 186.334C270.662 186.801 269.346 187.034 267.834 187.034ZM285.467 186.922C283.974 186.922 282.676 186.605 281.575 185.97C280.474 185.317 279.624 184.402 279.027 183.226C278.43 182.05 278.131 180.678 278.131 179.11C278.131 177.542 278.43 176.18 279.027 175.022C279.624 173.846 280.464 172.932 281.547 172.278C282.648 171.625 283.927 171.298 285.383 171.298C286.802 171.298 288.043 171.616 289.107 172.25C290.19 172.885 291.02 173.8 291.599 174.994C292.178 176.189 292.467 177.626 292.467 179.306V180.118H281.855C281.93 181.425 282.284 182.414 282.919 183.086C283.572 183.74 284.431 184.066 285.495 184.066C286.298 184.066 286.96 183.889 287.483 183.534C288.024 183.161 288.398 182.648 288.603 181.994L292.271 182.218C291.86 183.674 291.048 184.822 289.835 185.662C288.64 186.502 287.184 186.922 285.467 186.922ZM281.855 177.71H288.771C288.696 176.497 288.351 175.601 287.735 175.022C287.119 174.425 286.335 174.126 285.383 174.126C284.431 174.126 283.638 174.434 283.003 175.05C282.387 175.666 282.004 176.553 281.855 177.71ZM300.741 186.586C299.248 186.586 298.146 186.241 297.437 185.55C296.746 184.86 296.401 183.777 296.401 182.302V168.134H299.985V181.966C299.985 182.657 300.134 183.142 300.433 183.422C300.732 183.684 301.198 183.814 301.833 183.814H303.933V186.586H300.741ZM294.049 174.406V171.634H303.933V174.406H294.049ZM307.006 180.426C306.932 179.792 306.848 179.026 306.754 178.13C306.661 177.234 306.577 176.32 306.502 175.386C306.428 174.434 306.39 173.585 306.39 172.838V166.706H310.03V172.838C310.03 173.585 309.993 174.434 309.918 175.386C309.862 176.32 309.788 177.234 309.694 178.13C309.601 179.026 309.517 179.792 309.442 180.426H307.006ZM306.082 186.586V182.666H310.17V186.586H306.082Z" fill="#28303F"/>
<path d="M48.3396 220.842C47.3263 220.842 46.4356 220.608 45.6676 220.138C44.8996 219.658 44.3023 218.976 43.8756 218.09C43.449 217.205 43.2356 216.149 43.2356 214.922C43.2356 213.696 43.449 212.64 43.8756 211.754C44.3023 210.858 44.8996 210.17 45.6676 209.69C46.4356 209.21 47.3263 208.97 48.3396 208.97C49.7156 208.97 50.7823 209.317 51.5396 210.01C52.297 210.704 52.793 211.648 53.0276 212.842L51.5716 212.938C51.4116 212.128 51.0703 211.488 50.5476 211.018C50.025 210.549 49.289 210.314 48.3396 210.314C47.6143 210.314 46.9743 210.501 46.4196 210.874C45.8756 211.237 45.449 211.765 45.1396 212.458C44.8303 213.141 44.6756 213.962 44.6756 214.922C44.6756 215.882 44.8303 216.704 45.1396 217.386C45.449 218.069 45.8756 218.592 46.4196 218.954C46.9743 219.317 47.6143 219.498 48.3396 219.498C49.3316 219.498 50.0996 219.242 50.6436 218.73C51.1876 218.208 51.529 217.504 51.6676 216.618L53.1236 216.714C52.985 217.536 52.713 218.256 52.3076 218.874C51.9023 219.493 51.3636 219.978 50.6916 220.33C50.0303 220.672 49.2463 220.842 48.3396 220.842ZM58.2326 220.778C57.454 220.778 56.7713 220.597 56.1846 220.234C55.598 219.872 55.1446 219.36 54.8246 218.698C54.5046 218.026 54.3446 217.242 54.3446 216.346C54.3446 215.44 54.5046 214.656 54.8246 213.994C55.1446 213.333 55.598 212.821 56.1846 212.458C56.7713 212.096 57.454 211.914 58.2326 211.914C59.0113 211.914 59.6886 212.096 60.2646 212.458C60.8513 212.821 61.3046 213.333 61.6246 213.994C61.9446 214.656 62.1046 215.44 62.1046 216.346C62.1046 217.242 61.9446 218.026 61.6246 218.698C61.3046 219.36 60.8513 219.872 60.2646 220.234C59.6886 220.597 59.0113 220.778 58.2326 220.778ZM58.2326 219.498C59.0113 219.498 59.614 219.221 60.0406 218.666C60.478 218.101 60.6966 217.328 60.6966 216.346C60.6966 215.365 60.478 214.597 60.0406 214.042C59.614 213.477 59.0113 213.194 58.2326 213.194C57.454 213.194 56.846 213.477 56.4086 214.042C55.9713 214.597 55.7526 215.365 55.7526 216.346C55.7526 217.328 55.9713 218.101 56.4086 218.666C56.846 219.221 57.454 219.498 58.2326 219.498ZM63.9363 220.586V212.106H65.1683L65.2163 214.266L65.0563 214.122C65.1629 213.621 65.3496 213.21 65.6163 212.89C65.8829 212.56 66.2029 212.314 66.5763 212.154C66.9603 211.994 67.3709 211.914 67.8083 211.914C68.4589 211.914 68.9923 212.058 69.4083 212.346C69.8349 212.634 70.1496 213.024 70.3523 213.514C70.5656 213.994 70.6723 214.533 70.6723 215.13V220.586H69.3283V215.514C69.3283 214.992 69.2643 214.554 69.1363 214.202C69.0189 213.84 68.8269 213.568 68.5603 213.386C68.2936 213.194 67.9469 213.098 67.5203 213.098C66.8696 213.098 66.3309 213.306 65.9043 213.722C65.4883 214.128 65.2803 214.725 65.2803 215.514V220.586H63.9363ZM76.2616 223.178C75.6536 223.178 75.1043 223.077 74.6136 222.874C74.123 222.672 73.7123 222.384 73.3816 222.01C73.051 221.637 72.827 221.205 72.7096 220.714L74.1176 220.618C74.2456 221.013 74.4696 221.322 74.7896 221.546C75.1203 221.781 75.611 221.898 76.2616 221.898C77.0296 221.898 77.6163 221.744 78.0216 221.434C78.4376 221.125 78.6456 220.661 78.6456 220.042V218.666C78.443 219.114 78.1176 219.472 77.6696 219.738C77.2216 220.005 76.7203 220.138 76.1656 220.138C75.451 220.138 74.811 219.962 74.2456 219.61C73.691 219.258 73.2536 218.773 72.9336 218.154C72.6243 217.536 72.4696 216.826 72.4696 216.026C72.4696 215.216 72.6243 214.506 72.9336 213.898C73.243 213.28 73.6696 212.794 74.2136 212.442C74.7683 212.09 75.3976 211.914 76.1016 211.914C76.699 211.914 77.2323 212.053 77.7016 212.33C78.1816 212.608 78.5176 212.981 78.7096 213.45V212.106H79.9896V220.01C79.9896 220.672 79.8403 221.237 79.5416 221.706C79.243 222.186 78.8163 222.549 78.2616 222.794C77.707 223.05 77.0403 223.178 76.2616 223.178ZM76.2296 218.858C76.955 218.858 77.5363 218.608 77.9736 218.106C78.411 217.594 78.635 216.901 78.6456 216.026C78.6563 215.44 78.5603 214.938 78.3576 214.522C78.1656 214.096 77.883 213.77 77.5096 213.546C77.147 213.312 76.7203 213.194 76.2296 213.194C75.483 213.194 74.9016 213.45 74.4856 213.962C74.0803 214.464 73.8776 215.152 73.8776 216.026C73.8776 216.901 74.0856 217.594 74.5016 218.106C74.9283 218.608 75.5043 218.858 76.2296 218.858ZM82.5456 220.586V212.106H83.7296L83.7936 214.25L83.6656 214.202C83.7723 213.477 84.0016 212.949 84.3536 212.618C84.7163 212.277 85.1963 212.106 85.7936 212.106H86.6256V213.386H85.8096C85.383 213.386 85.0256 213.466 84.7376 213.626C84.4603 213.776 84.247 214.005 84.0976 214.314C83.959 214.613 83.8896 214.997 83.8896 215.466V220.586H82.5456ZM90.2555 220.778C89.3808 220.778 88.6822 220.576 88.1595 220.17C87.6475 219.765 87.3915 219.2 87.3915 218.474C87.3915 217.749 87.6048 217.178 88.0315 216.762C88.4582 216.346 89.1355 216.053 90.0635 215.882L93.0715 215.322C93.0715 214.608 92.9008 214.074 92.5595 213.722C92.2288 213.37 91.7275 213.194 91.0555 213.194C90.4688 213.194 90.0048 213.328 89.6635 213.594C89.3222 213.85 89.0875 214.224 88.9595 214.714L87.5355 214.602C87.6955 213.802 88.0795 213.157 88.6875 212.666C89.3062 212.165 90.0955 211.914 91.0555 211.914C92.1435 211.914 92.9755 212.224 93.5515 212.842C94.1275 213.45 94.4155 214.293 94.4155 215.37V218.874C94.4155 219.066 94.4475 219.205 94.5115 219.29C94.5862 219.365 94.7035 219.402 94.8635 219.402H95.1995V220.586C95.1568 220.597 95.0875 220.602 94.9915 220.602C94.8955 220.613 94.7942 220.618 94.6875 220.618C94.3035 220.618 93.9888 220.56 93.7435 220.442C93.5088 220.314 93.3382 220.122 93.2315 219.866C93.1248 219.6 93.0715 219.253 93.0715 218.826L93.2315 218.858C93.1568 219.221 92.9755 219.552 92.6875 219.85C92.3995 220.138 92.0422 220.368 91.6155 220.538C91.1888 220.698 90.7355 220.778 90.2555 220.778ZM90.3835 219.594C90.9488 219.594 91.4288 219.488 91.8235 219.274C92.2288 219.05 92.5382 218.752 92.7515 218.378C92.9648 217.994 93.0715 217.568 93.0715 217.098V216.49L90.3195 217.002C89.7435 217.109 89.3435 217.274 89.1195 217.498C88.9062 217.712 88.7995 217.994 88.7995 218.346C88.7995 218.741 88.9382 219.05 89.2155 219.274C89.5035 219.488 89.8928 219.594 90.3835 219.594ZM99.3996 220.586C98.6316 220.586 98.061 220.41 97.6876 220.058C97.325 219.706 97.1436 219.157 97.1436 218.41V210.122H98.4876V218.378C98.4876 218.762 98.573 219.029 98.7436 219.178C98.9143 219.328 99.1756 219.402 99.5276 219.402H100.744V220.586H99.3996ZM95.8956 213.29V212.106H100.744V213.29H95.8956ZM105.252 220.778C104.409 220.778 103.732 220.496 103.22 219.93C102.718 219.354 102.468 218.565 102.468 217.562V212.106H103.812V217.194C103.812 218.016 103.956 218.624 104.244 219.018C104.542 219.402 104.996 219.594 105.604 219.594C106.276 219.594 106.804 219.381 107.188 218.954C107.572 218.517 107.764 217.92 107.764 217.162V212.106H109.108V220.586H107.828V218.49L108.036 218.602C107.865 219.296 107.54 219.834 107.06 220.218C106.58 220.592 105.977 220.778 105.252 220.778ZM113.335 220.586C112.844 220.586 112.444 220.458 112.135 220.202C111.825 219.946 111.671 219.541 111.671 218.986V209.226H113.015V218.874C113.015 219.045 113.057 219.178 113.143 219.274C113.239 219.36 113.372 219.402 113.543 219.402H114.279V220.586H113.335ZM118.224 220.778C117.35 220.778 116.651 220.576 116.128 220.17C115.616 219.765 115.36 219.2 115.36 218.474C115.36 217.749 115.574 217.178 116 216.762C116.427 216.346 117.104 216.053 118.032 215.882L121.04 215.322C121.04 214.608 120.87 214.074 120.528 213.722C120.198 213.37 119.696 213.194 119.024 213.194C118.438 213.194 117.974 213.328 117.632 213.594C117.291 213.85 117.056 214.224 116.928 214.714L115.504 214.602C115.664 213.802 116.048 213.157 116.656 212.666C117.275 212.165 118.064 211.914 119.024 211.914C120.112 211.914 120.944 212.224 121.52 212.842C122.096 213.45 122.384 214.293 122.384 215.37V218.874C122.384 219.066 122.416 219.205 122.48 219.29C122.555 219.365 122.672 219.402 122.832 219.402H123.168V220.586C123.126 220.597 123.056 220.602 122.96 220.602C122.864 220.613 122.763 220.618 122.656 220.618C122.272 220.618 121.958 220.56 121.712 220.442C121.478 220.314 121.307 220.122 121.2 219.866C121.094 219.6 121.04 219.253 121.04 218.826L121.2 218.858C121.126 219.221 120.944 219.552 120.656 219.85C120.368 220.138 120.011 220.368 119.584 220.538C119.158 220.698 118.704 220.778 118.224 220.778ZM118.352 219.594C118.918 219.594 119.398 219.488 119.792 219.274C120.198 219.05 120.507 218.752 120.72 218.378C120.934 217.994 121.04 217.568 121.04 217.098V216.49L118.288 217.002C117.712 217.109 117.312 217.274 117.088 217.498C116.875 217.712 116.768 217.994 116.768 218.346C116.768 218.741 116.907 219.05 117.184 219.274C117.472 219.488 117.862 219.594 118.352 219.594ZM127.368 220.586C126.6 220.586 126.03 220.41 125.656 220.058C125.294 219.706 125.112 219.157 125.112 218.41V210.122H126.456V218.378C126.456 218.762 126.542 219.029 126.712 219.178C126.883 219.328 127.144 219.402 127.496 219.402H128.712V220.586H127.368ZM123.864 213.29V212.106H128.712V213.29H123.864ZM130.436 220.586V212.106H131.78V220.586H130.436ZM130.404 210.778V209.21H131.812V210.778H130.404ZM137.498 220.778C136.72 220.778 136.037 220.597 135.45 220.234C134.864 219.872 134.41 219.36 134.09 218.698C133.77 218.026 133.61 217.242 133.61 216.346C133.61 215.44 133.77 214.656 134.09 213.994C134.41 213.333 134.864 212.821 135.45 212.458C136.037 212.096 136.72 211.914 137.498 211.914C138.277 211.914 138.954 212.096 139.53 212.458C140.117 212.821 140.57 213.333 140.89 213.994C141.21 214.656 141.37 215.44 141.37 216.346C141.37 217.242 141.21 218.026 140.89 218.698C140.57 219.36 140.117 219.872 139.53 220.234C138.954 220.597 138.277 220.778 137.498 220.778ZM137.498 219.498C138.277 219.498 138.88 219.221 139.306 218.666C139.744 218.101 139.962 217.328 139.962 216.346C139.962 215.365 139.744 214.597 139.306 214.042C138.88 213.477 138.277 213.194 137.498 213.194C136.72 213.194 136.112 213.477 135.674 214.042C135.237 214.597 135.018 215.365 135.018 216.346C135.018 217.328 135.237 218.101 135.674 218.666C136.112 219.221 136.72 219.498 137.498 219.498ZM143.202 220.586V212.106H144.434L144.482 214.266L144.322 214.122C144.429 213.621 144.615 213.21 144.882 212.89C145.149 212.56 145.469 212.314 145.842 212.154C146.226 211.994 146.637 211.914 147.074 211.914C147.725 211.914 148.258 212.058 148.674 212.346C149.101 212.634 149.415 213.024 149.618 213.514C149.831 213.994 149.938 214.533 149.938 215.13V220.586H148.594V215.514C148.594 214.992 148.53 214.554 148.402 214.202C148.285 213.84 148.093 213.568 147.826 213.386C147.559 213.194 147.213 213.098 146.786 213.098C146.135 213.098 145.597 213.306 145.17 213.722C144.754 214.128 144.546 214.725 144.546 215.514V220.586H143.202ZM155.399 220.778C154.642 220.778 153.997 220.656 153.463 220.41C152.941 220.165 152.53 219.829 152.231 219.402C151.943 218.965 151.778 218.469 151.735 217.914L153.143 217.818C153.229 218.33 153.447 218.741 153.799 219.05C154.151 219.349 154.685 219.498 155.399 219.498C155.975 219.498 156.434 219.408 156.775 219.226C157.127 219.034 157.303 218.73 157.303 218.314C157.303 218.09 157.25 217.904 157.143 217.754C157.037 217.605 156.829 217.477 156.519 217.37C156.21 217.253 155.751 217.141 155.143 217.034C154.333 216.885 153.693 216.704 153.223 216.49C152.765 216.266 152.434 215.994 152.231 215.674C152.039 215.344 151.943 214.954 151.943 214.506C151.943 213.749 152.221 213.13 152.775 212.65C153.33 212.16 154.119 211.914 155.143 211.914C155.837 211.914 156.418 212.042 156.887 212.298C157.367 212.544 157.741 212.874 158.007 213.29C158.285 213.696 158.466 214.144 158.551 214.634L157.143 214.73C157.079 214.432 156.962 214.17 156.791 213.946C156.621 213.712 156.397 213.53 156.119 213.402C155.842 213.264 155.511 213.194 155.127 213.194C154.519 213.194 154.071 213.312 153.783 213.546C153.495 213.781 153.351 214.08 153.351 214.442C153.351 214.72 153.415 214.949 153.543 215.13C153.682 215.301 153.901 215.445 154.199 215.562C154.498 215.669 154.898 215.765 155.399 215.85C156.263 216 156.935 216.181 157.415 216.394C157.895 216.608 158.231 216.869 158.423 217.178C158.615 217.488 158.711 217.866 158.711 218.314C158.711 218.837 158.562 219.285 158.263 219.658C157.975 220.021 157.581 220.298 157.079 220.49C156.589 220.682 156.029 220.778 155.399 220.778ZM160.75 217.306C160.718 216.933 160.681 216.485 160.638 215.962C160.606 215.44 160.574 214.906 160.542 214.362C160.51 213.818 160.494 213.333 160.494 212.906V209.226H161.87V212.906C161.87 213.333 161.854 213.818 161.822 214.362C161.801 214.906 161.769 215.44 161.726 215.962C161.694 216.485 161.662 216.933 161.63 217.306H160.75ZM160.222 220.586V218.778H162.03V220.586H160.222ZM170.748 220.586V215.946L166.732 209.226H168.364L171.436 214.538L174.508 209.226H176.14L172.124 215.946V220.586H170.748ZM179.514 220.778C178.735 220.778 178.053 220.597 177.466 220.234C176.879 219.872 176.426 219.36 176.106 218.698C175.786 218.026 175.626 217.242 175.626 216.346C175.626 215.44 175.786 214.656 176.106 213.994C176.426 213.333 176.879 212.821 177.466 212.458C178.053 212.096 178.735 211.914 179.514 211.914C180.293 211.914 180.97 212.096 181.546 212.458C182.133 212.821 182.586 213.333 182.906 213.994C183.226 214.656 183.386 215.44 183.386 216.346C183.386 217.242 183.226 218.026 182.906 218.698C182.586 219.36 182.133 219.872 181.546 220.234C180.97 220.597 180.293 220.778 179.514 220.778ZM179.514 219.498C180.293 219.498 180.895 219.221 181.322 218.666C181.759 218.101 181.978 217.328 181.978 216.346C181.978 215.365 181.759 214.597 181.322 214.042C180.895 213.477 180.293 213.194 179.514 213.194C178.735 213.194 178.127 213.477 177.69 214.042C177.253 214.597 177.034 215.365 177.034 216.346C177.034 217.328 177.253 218.101 177.69 218.666C178.127 219.221 178.735 219.498 179.514 219.498ZM188.002 220.778C187.159 220.778 186.482 220.496 185.97 219.93C185.468 219.354 185.218 218.565 185.218 217.562V212.106H186.562V217.194C186.562 218.016 186.706 218.624 186.994 219.018C187.292 219.402 187.746 219.594 188.354 219.594C189.026 219.594 189.554 219.381 189.938 218.954C190.322 218.517 190.514 217.92 190.514 217.162V212.106H191.858V220.586H190.578V218.49L190.786 218.602C190.615 219.296 190.29 219.834 189.81 220.218C189.33 220.592 188.727 220.778 188.002 220.778ZM198.421 220.586V212.106H199.653L199.701 214.266L199.541 214.122C199.647 213.621 199.834 213.21 200.101 212.89C200.367 212.56 200.687 212.314 201.061 212.154C201.445 211.994 201.855 211.914 202.293 211.914C202.943 211.914 203.477 212.058 203.893 212.346C204.319 212.634 204.634 213.024 204.837 213.514C205.05 213.994 205.157 214.533 205.157 215.13V220.586H203.813V215.514C203.813 214.992 203.749 214.554 203.621 214.202C203.503 213.84 203.311 213.568 203.045 213.386C202.778 213.194 202.431 213.098 202.005 213.098C201.354 213.098 200.815 213.306 200.389 213.722C199.973 214.128 199.765 214.725 199.765 215.514V220.586H198.421ZM210.842 220.778C210.063 220.778 209.381 220.597 208.794 220.234C208.207 219.872 207.754 219.36 207.434 218.698C207.114 218.026 206.954 217.242 206.954 216.346C206.954 215.44 207.114 214.656 207.434 213.994C207.754 213.333 208.207 212.821 208.794 212.458C209.381 212.096 210.063 211.914 210.842 211.914C211.621 211.914 212.298 212.096 212.874 212.458C213.461 212.821 213.914 213.333 214.234 213.994C214.554 214.656 214.714 215.44 214.714 216.346C214.714 217.242 214.554 218.026 214.234 218.698C213.914 219.36 213.461 219.872 212.874 220.234C212.298 220.597 211.621 220.778 210.842 220.778ZM210.842 219.498C211.621 219.498 212.223 219.221 212.65 218.666C213.087 218.101 213.306 217.328 213.306 216.346C213.306 215.365 213.087 214.597 212.65 214.042C212.223 213.477 211.621 213.194 210.842 213.194C210.063 213.194 209.455 213.477 209.018 214.042C208.581 214.597 208.362 215.365 208.362 216.346C208.362 217.328 208.581 218.101 209.018 218.666C209.455 219.221 210.063 219.498 210.842 219.498ZM217.992 220.586L215.368 212.106H216.84L218.824 219.178L220.84 212.106H222.28L224.296 219.178L226.296 212.106H227.768L225.144 220.586H223.448L221.56 214.138L219.672 220.586H217.992ZM233.405 220.586V209.226H234.749V213.978L234.589 213.946C234.696 213.477 234.877 213.093 235.133 212.794C235.389 212.496 235.704 212.277 236.077 212.138C236.45 211.989 236.861 211.914 237.309 211.914C237.917 211.914 238.429 212.053 238.845 212.33C239.272 212.597 239.592 212.976 239.805 213.466C240.029 213.946 240.141 214.501 240.141 215.13V220.586H238.797V215.514C238.797 214.693 238.648 214.085 238.349 213.69C238.061 213.296 237.618 213.098 237.021 213.098C236.338 213.098 235.789 213.306 235.373 213.722C234.957 214.138 234.749 214.741 234.749 215.53V220.586H233.405ZM244.834 220.778C243.959 220.778 243.26 220.576 242.738 220.17C242.226 219.765 241.97 219.2 241.97 218.474C241.97 217.749 242.183 217.178 242.61 216.762C243.036 216.346 243.714 216.053 244.642 215.882L247.65 215.322C247.65 214.608 247.479 214.074 247.138 213.722C246.807 213.37 246.306 213.194 245.634 213.194C245.047 213.194 244.583 213.328 244.242 213.594C243.9 213.85 243.666 214.224 243.538 214.714L242.114 214.602C242.274 213.802 242.658 213.157 243.266 212.666C243.884 212.165 244.674 211.914 245.634 211.914C246.722 211.914 247.554 212.224 248.13 212.842C248.706 213.45 248.994 214.293 248.994 215.37V218.874C248.994 219.066 249.026 219.205 249.09 219.29C249.164 219.365 249.282 219.402 249.442 219.402H249.778V220.586C249.735 220.597 249.666 220.602 249.57 220.602C249.474 220.613 249.372 220.618 249.266 220.618C248.882 220.618 248.567 220.56 248.322 220.442C248.087 220.314 247.916 220.122 247.81 219.866C247.703 219.6 247.65 219.253 247.65 218.826L247.81 218.858C247.735 219.221 247.554 219.552 247.266 219.85C246.978 220.138 246.62 220.368 246.194 220.538C245.767 220.698 245.314 220.778 244.834 220.778ZM244.962 219.594C245.527 219.594 246.007 219.488 246.402 219.274C246.807 219.05 247.116 218.752 247.33 218.378C247.543 217.994 247.65 217.568 247.65 217.098V216.49L244.898 217.002C244.322 217.109 243.922 217.274 243.698 217.498C243.484 217.712 243.378 217.994 243.378 218.346C243.378 218.741 243.516 219.05 243.794 219.274C244.082 219.488 244.471 219.594 244.962 219.594ZM253.128 220.586L250.04 212.106H251.512L253.976 219.21L256.44 212.106H257.911L254.824 220.586H253.128ZM262.436 220.778C261.636 220.778 260.942 220.597 260.356 220.234C259.78 219.872 259.332 219.36 259.012 218.698C258.702 218.026 258.548 217.242 258.548 216.346C258.548 215.45 258.702 214.672 259.012 214.01C259.332 213.349 259.774 212.837 260.34 212.474C260.916 212.101 261.593 211.914 262.372 211.914C263.108 211.914 263.758 212.09 264.324 212.442C264.889 212.784 265.326 213.285 265.636 213.946C265.956 214.608 266.116 215.413 266.116 216.362V216.762H259.956C260.009 217.669 260.249 218.352 260.676 218.81C261.113 219.269 261.7 219.498 262.436 219.498C262.99 219.498 263.444 219.37 263.796 219.114C264.158 218.848 264.409 218.501 264.548 218.074L265.988 218.186C265.764 218.944 265.337 219.568 264.708 220.058C264.089 220.538 263.332 220.778 262.436 220.778ZM259.956 215.578H264.644C264.58 214.757 264.34 214.154 263.924 213.77C263.518 213.386 263.001 213.194 262.372 213.194C261.721 213.194 261.182 213.397 260.756 213.802C260.34 214.197 260.073 214.789 259.956 215.578ZM272.924 220.586V211.338C272.924 210.709 273.106 210.202 273.469 209.818C273.831 209.424 274.397 209.226 275.165 209.226H276.509V210.41H275.261C274.93 210.41 274.679 210.501 274.509 210.682C274.349 210.864 274.269 211.114 274.269 211.434V220.586H272.924ZM271.773 213.29V212.106H276.397V213.29H271.773ZM281.189 220.778C280.346 220.778 279.669 220.496 279.157 219.93C278.656 219.354 278.405 218.565 278.405 217.562V212.106H279.749V217.194C279.749 218.016 279.893 218.624 280.181 219.018C280.48 219.402 280.933 219.594 281.541 219.594C282.213 219.594 282.741 219.381 283.125 218.954C283.509 218.517 283.701 217.92 283.701 217.162V212.106H285.045V220.586H283.765V218.49L283.973 218.602C283.802 219.296 283.477 219.834 282.997 220.218C282.517 220.592 281.914 220.778 281.189 220.778ZM289.272 220.586C288.781 220.586 288.381 220.458 288.072 220.202C287.763 219.946 287.608 219.541 287.608 218.986V209.226H288.952V218.874C288.952 219.045 288.995 219.178 289.08 219.274C289.176 219.36 289.309 219.402 289.48 219.402H290.216V220.586H289.272ZM293.382 220.586C292.891 220.586 292.491 220.458 292.182 220.202C291.872 219.946 291.718 219.541 291.718 218.986V209.226H293.062V218.874C293.062 219.045 293.104 219.178 293.19 219.274C293.286 219.36 293.419 219.402 293.59 219.402H294.326V220.586H293.382ZM302.271 220.778C301.396 220.778 300.698 220.576 300.175 220.17C299.663 219.765 299.407 219.2 299.407 218.474C299.407 217.749 299.62 217.178 300.047 216.762C300.474 216.346 301.151 216.053 302.079 215.882L305.087 215.322C305.087 214.608 304.916 214.074 304.575 213.722C304.244 213.37 303.743 213.194 303.071 213.194C302.484 213.194 302.02 213.328 301.679 213.594C301.338 213.85 301.103 214.224 300.975 214.714L299.551 214.602C299.711 213.802 300.095 213.157 300.703 212.666C301.322 212.165 302.111 211.914 303.071 211.914C304.159 211.914 304.991 212.224 305.567 212.842C306.143 213.45 306.431 214.293 306.431 215.37V218.874C306.431 219.066 306.463 219.205 306.527 219.29C306.602 219.365 306.719 219.402 306.879 219.402H307.215V220.586C307.172 220.597 307.103 220.602 307.007 220.602C306.911 220.613 306.81 220.618 306.703 220.618C306.319 220.618 306.004 220.56 305.759 220.442C305.524 220.314 305.354 220.122 305.247 219.866C305.14 219.6 305.087 219.253 305.087 218.826L305.247 218.858C305.172 219.221 304.991 219.552 304.703 219.85C304.415 220.138 304.058 220.368 303.631 220.538C303.204 220.698 302.751 220.778 302.271 220.778ZM302.399 219.594C302.964 219.594 303.444 219.488 303.839 219.274C304.244 219.05 304.554 218.752 304.767 218.378C304.98 217.994 305.087 217.568 305.087 217.098V216.49L302.335 217.002C301.759 217.109 301.359 217.274 301.135 217.498C300.922 217.712 300.815 217.994 300.815 218.346C300.815 218.741 300.954 219.05 301.231 219.274C301.519 219.488 301.908 219.594 302.399 219.594ZM312.014 220.778C311.225 220.778 310.537 220.597 309.95 220.234C309.374 219.872 308.926 219.36 308.606 218.698C308.286 218.026 308.126 217.242 308.126 216.346C308.126 215.45 308.286 214.672 308.606 214.01C308.926 213.349 309.374 212.837 309.95 212.474C310.537 212.101 311.225 211.914 312.014 211.914C312.665 211.914 313.241 212.032 313.742 212.266C314.254 212.49 314.67 212.821 314.99 213.258C315.31 213.696 315.518 214.229 315.614 214.858L314.206 214.954C314.11 214.389 313.865 213.957 313.47 213.658C313.075 213.349 312.59 213.194 312.014 213.194C311.235 213.194 310.627 213.477 310.19 214.042C309.753 214.597 309.534 215.365 309.534 216.346C309.534 217.328 309.753 218.101 310.19 218.666C310.627 219.221 311.235 219.498 312.014 219.498C312.59 219.498 313.075 219.338 313.47 219.018C313.865 218.698 314.11 218.218 314.206 217.578L315.614 217.674C315.518 218.304 315.31 218.853 314.99 219.322C314.67 219.781 314.254 220.138 313.742 220.394C313.241 220.65 312.665 220.778 312.014 220.778ZM320.592 220.778C319.803 220.778 319.115 220.597 318.528 220.234C317.952 219.872 317.504 219.36 317.184 218.698C316.864 218.026 316.704 217.242 316.704 216.346C316.704 215.45 316.864 214.672 317.184 214.01C317.504 213.349 317.952 212.837 318.528 212.474C319.115 212.101 319.803 211.914 320.592 211.914C321.243 211.914 321.819 212.032 322.32 212.266C322.832 212.49 323.248 212.821 323.568 213.258C323.888 213.696 324.096 214.229 324.192 214.858L322.784 214.954C322.688 214.389 322.443 213.957 322.048 213.658C321.653 213.349 321.168 213.194 320.592 213.194C319.813 213.194 319.205 213.477 318.768 214.042C318.331 214.597 318.112 215.365 318.112 216.346C318.112 217.328 318.331 218.101 318.768 218.666C319.205 219.221 319.813 219.498 320.592 219.498C321.168 219.498 321.653 219.338 322.048 219.018C322.443 218.698 322.688 218.218 322.784 217.578L324.192 217.674C324.096 218.304 323.888 218.853 323.568 219.322C323.248 219.781 322.832 220.138 322.32 220.394C321.819 220.65 321.243 220.778 320.592 220.778ZM329.17 220.778C328.37 220.778 327.677 220.597 327.09 220.234C326.514 219.872 326.066 219.36 325.746 218.698C325.437 218.026 325.282 217.242 325.282 216.346C325.282 215.45 325.437 214.672 325.746 214.01C326.066 213.349 326.509 212.837 327.074 212.474C327.65 212.101 328.327 211.914 329.106 211.914C329.842 211.914 330.493 212.09 331.058 212.442C331.623 212.784 332.061 213.285 332.37 213.946C332.69 214.608 332.85 215.413 332.85 216.362V216.762H326.69C326.743 217.669 326.983 218.352 327.41 218.81C327.847 219.269 328.434 219.498 329.17 219.498C329.725 219.498 330.178 219.37 330.53 219.114C330.893 218.848 331.143 218.501 331.282 218.074L332.722 218.186C332.498 218.944 332.071 219.568 331.442 220.058C330.823 220.538 330.066 220.778 329.17 220.778ZM326.69 215.578H331.378C331.314 214.757 331.074 214.154 330.658 213.77C330.253 213.386 329.735 213.194 329.106 213.194C328.455 213.194 327.917 213.397 327.49 213.802C327.074 214.197 326.807 214.789 326.69 215.578ZM337.759 220.778C337.001 220.778 336.356 220.656 335.823 220.41C335.3 220.165 334.889 219.829 334.591 219.402C334.303 218.965 334.137 218.469 334.095 217.914L335.503 217.818C335.588 218.33 335.807 218.741 336.159 219.05C336.511 219.349 337.044 219.498 337.759 219.498C338.335 219.498 338.793 219.408 339.135 219.226C339.487 219.034 339.663 218.73 339.663 218.314C339.663 218.09 339.609 217.904 339.503 217.754C339.396 217.605 339.188 217.477 338.879 217.37C338.569 217.253 338.111 217.141 337.503 217.034C336.692 216.885 336.052 216.704 335.583 216.49C335.124 216.266 334.793 215.994 334.591 215.674C334.399 215.344 334.303 214.954 334.303 214.506C334.303 213.749 334.58 213.13 335.135 212.65C335.689 212.16 336.479 211.914 337.503 211.914C338.196 211.914 338.777 212.042 339.247 212.298C339.727 212.544 340.1 212.874 340.367 213.29C340.644 213.696 340.825 214.144 340.911 214.634L339.503 214.73C339.439 214.432 339.321 214.17 339.151 213.946C338.98 213.712 338.756 213.53 338.479 213.402C338.201 213.264 337.871 213.194 337.487 213.194C336.879 213.194 336.431 213.312 336.143 213.546C335.855 213.781 335.711 214.08 335.711 214.442C335.711 214.72 335.775 214.949 335.903 215.13C336.041 215.301 336.26 215.445 336.559 215.562C336.857 215.669 337.257 215.765 337.759 215.85C338.623 216 339.295 216.181 339.775 216.394C340.255 216.608 340.591 216.869 340.783 217.178C340.975 217.488 341.071 217.866 341.071 218.314C341.071 218.837 340.921 219.285 340.623 219.658C340.335 220.021 339.94 220.298 339.439 220.49C338.948 220.682 338.388 220.778 337.759 220.778ZM345.993 220.778C345.236 220.778 344.59 220.656 344.057 220.41C343.534 220.165 343.124 219.829 342.825 219.402C342.537 218.965 342.372 218.469 342.329 217.914L343.737 217.818C343.822 218.33 344.041 218.741 344.393 219.05C344.745 219.349 345.278 219.498 345.993 219.498C346.569 219.498 347.028 219.408 347.369 219.226C347.721 219.034 347.897 218.73 347.897 218.314C347.897 218.09 347.844 217.904 347.737 217.754C347.63 217.605 347.422 217.477 347.113 217.37C346.804 217.253 346.345 217.141 345.737 217.034C344.926 216.885 344.286 216.704 343.817 216.49C343.358 216.266 343.028 215.994 342.825 215.674C342.633 215.344 342.537 214.954 342.537 214.506C342.537 213.749 342.814 213.13 343.369 212.65C343.924 212.16 344.713 211.914 345.737 211.914C346.43 211.914 347.012 212.042 347.481 212.298C347.961 212.544 348.334 212.874 348.601 213.29C348.878 213.696 349.06 214.144 349.145 214.634L347.737 214.73C347.673 214.432 347.556 214.17 347.385 213.946C347.214 213.712 346.99 213.53 346.713 213.402C346.436 213.264 346.105 213.194 345.721 213.194C345.113 213.194 344.665 213.312 344.377 213.546C344.089 213.781 343.945 214.08 343.945 214.442C343.945 214.72 344.009 214.949 344.137 215.13C344.276 215.301 344.494 215.445 344.793 215.562C345.092 215.669 345.492 215.765 345.993 215.85C346.857 216 347.529 216.181 348.009 216.394C348.489 216.608 348.825 216.869 349.017 217.178C349.209 217.488 349.305 217.866 349.305 218.314C349.305 218.837 349.156 219.285 348.857 219.658C348.569 220.021 348.174 220.298 347.673 220.49C347.182 220.682 346.622 220.778 345.993 220.778ZM358.4 220.586C357.632 220.586 357.061 220.41 356.688 220.058C356.325 219.706 356.144 219.157 356.144 218.41V210.122H357.488V218.378C357.488 218.762 357.573 219.029 357.744 219.178C357.914 219.328 358.176 219.402 358.528 219.402H359.744V220.586H358.4ZM354.896 213.29V212.106H359.744V213.29H354.896ZM364.623 220.778C363.845 220.778 363.162 220.597 362.575 220.234C361.989 219.872 361.535 219.36 361.215 218.698C360.895 218.026 360.735 217.242 360.735 216.346C360.735 215.44 360.895 214.656 361.215 213.994C361.535 213.333 361.989 212.821 362.575 212.458C363.162 212.096 363.845 211.914 364.623 211.914C365.402 211.914 366.079 212.096 366.655 212.458C367.242 212.821 367.695 213.333 368.015 213.994C368.335 214.656 368.495 215.44 368.495 216.346C368.495 217.242 368.335 218.026 368.015 218.698C367.695 219.36 367.242 219.872 366.655 220.234C366.079 220.597 365.402 220.778 364.623 220.778ZM364.623 219.498C365.402 219.498 366.005 219.221 366.431 218.666C366.869 218.101 367.087 217.328 367.087 216.346C367.087 215.365 366.869 214.597 366.431 214.042C366.005 213.477 365.402 213.194 364.623 213.194C363.845 213.194 363.237 213.477 362.799 214.042C362.362 214.597 362.143 215.365 362.143 216.346C362.143 217.328 362.362 218.101 362.799 218.666C363.237 219.221 363.845 219.498 364.623 219.498ZM377.795 220.778C377.016 220.778 376.334 220.597 375.747 220.234C375.16 219.872 374.707 219.36 374.387 218.698C374.067 218.026 373.907 217.242 373.907 216.346C373.907 215.44 374.067 214.656 374.387 213.994C374.707 213.333 375.16 212.821 375.747 212.458C376.334 212.096 377.016 211.914 377.795 211.914C378.574 211.914 379.251 212.096 379.827 212.458C380.414 212.821 380.867 213.333 381.187 213.994C381.507 214.656 381.667 215.44 381.667 216.346C381.667 217.242 381.507 218.026 381.187 218.698C380.867 219.36 380.414 219.872 379.827 220.234C379.251 220.597 378.574 220.778 377.795 220.778ZM377.795 219.498C378.574 219.498 379.176 219.221 379.603 218.666C380.04 218.101 380.259 217.328 380.259 216.346C380.259 215.365 380.04 214.597 379.603 214.042C379.176 213.477 378.574 213.194 377.795 213.194C377.016 213.194 376.408 213.477 375.971 214.042C375.534 214.597 375.315 215.365 375.315 216.346C375.315 217.328 375.534 218.101 375.971 218.666C376.408 219.221 377.016 219.498 377.795 219.498ZM386.283 220.778C385.44 220.778 384.763 220.496 384.251 219.93C383.749 219.354 383.499 218.565 383.499 217.562V212.106H384.843V217.194C384.843 218.016 384.987 218.624 385.275 219.018C385.573 219.402 386.027 219.594 386.635 219.594C387.307 219.594 387.835 219.381 388.219 218.954C388.603 218.517 388.795 217.92 388.795 217.162V212.106H390.139V220.586H388.859V218.49L389.067 218.602C388.896 219.296 388.571 219.834 388.091 220.218C387.611 220.592 387.008 220.778 386.283 220.778ZM392.702 220.586V212.106H393.886L393.95 214.25L393.822 214.202C393.929 213.477 394.158 212.949 394.51 212.618C394.873 212.277 395.353 212.106 395.95 212.106H396.782V213.386H395.966C395.539 213.386 395.182 213.466 394.894 213.626C394.617 213.776 394.403 214.005 394.254 214.314C394.115 214.613 394.046 214.997 394.046 215.466V220.586H392.702ZM124.335 244.778C123.599 244.778 122.959 244.597 122.415 244.234C121.882 243.872 121.471 243.36 121.183 242.698C120.895 242.037 120.751 241.253 120.751 240.346C120.751 239.44 120.895 238.656 121.183 237.994C121.471 237.333 121.882 236.821 122.415 236.458C122.959 236.096 123.599 235.914 124.335 235.914C124.9 235.914 125.418 236.037 125.887 236.282C126.356 236.517 126.708 236.853 126.943 237.29V233.226H128.287V244.586H127.071L127.023 243.306C126.788 243.765 126.431 244.128 125.951 244.394C125.471 244.65 124.932 244.778 124.335 244.778ZM124.607 243.498C125.108 243.498 125.53 243.37 125.871 243.114C126.223 242.858 126.49 242.496 126.671 242.026C126.852 241.546 126.943 240.986 126.943 240.346C126.943 239.685 126.852 239.12 126.671 238.65C126.49 238.181 126.223 237.824 125.871 237.578C125.53 237.322 125.108 237.194 124.607 237.194C123.86 237.194 123.263 237.477 122.815 238.042C122.378 238.597 122.159 239.365 122.159 240.346C122.159 241.317 122.378 242.085 122.815 242.65C123.263 243.216 123.86 243.498 124.607 243.498ZM132.974 244.778C132.1 244.778 131.401 244.576 130.878 244.17C130.366 243.765 130.11 243.2 130.11 242.474C130.11 241.749 130.324 241.178 130.75 240.762C131.177 240.346 131.854 240.053 132.782 239.882L135.79 239.322C135.79 238.608 135.62 238.074 135.278 237.722C134.948 237.37 134.446 237.194 133.774 237.194C133.188 237.194 132.724 237.328 132.382 237.594C132.041 237.85 131.806 238.224 131.678 238.714L130.254 238.602C130.414 237.802 130.798 237.157 131.406 236.666C132.025 236.165 132.814 235.914 133.774 235.914C134.862 235.914 135.694 236.224 136.27 236.842C136.846 237.45 137.134 238.293 137.134 239.37V242.874C137.134 243.066 137.166 243.205 137.23 243.29C137.305 243.365 137.422 243.402 137.582 243.402H137.918V244.586C137.876 244.597 137.806 244.602 137.71 244.602C137.614 244.613 137.513 244.618 137.406 244.618C137.022 244.618 136.708 244.56 136.462 244.442C136.228 244.314 136.057 244.122 135.95 243.866C135.844 243.6 135.79 243.253 135.79 242.826L135.95 242.858C135.876 243.221 135.694 243.552 135.406 243.85C135.118 244.138 134.761 244.368 134.334 244.538C133.908 244.698 133.454 244.778 132.974 244.778ZM133.102 243.594C133.668 243.594 134.148 243.488 134.542 243.274C134.948 243.05 135.257 242.752 135.47 242.378C135.684 241.994 135.79 241.568 135.79 241.098V240.49L133.038 241.002C132.462 241.109 132.062 241.274 131.838 241.498C131.625 241.712 131.518 241.994 131.518 242.346C131.518 242.741 131.657 243.05 131.934 243.274C132.222 243.488 132.612 243.594 133.102 243.594ZM142.493 244.778C141.736 244.778 141.09 244.656 140.557 244.41C140.034 244.165 139.624 243.829 139.325 243.402C139.037 242.965 138.872 242.469 138.829 241.914L140.237 241.818C140.322 242.33 140.541 242.741 140.893 243.05C141.245 243.349 141.778 243.498 142.493 243.498C143.069 243.498 143.528 243.408 143.869 243.226C144.221 243.034 144.397 242.73 144.397 242.314C144.397 242.09 144.344 241.904 144.237 241.754C144.13 241.605 143.922 241.477 143.613 241.37C143.304 241.253 142.845 241.141 142.237 241.034C141.426 240.885 140.786 240.704 140.317 240.49C139.858 240.266 139.528 239.994 139.325 239.674C139.133 239.344 139.037 238.954 139.037 238.506C139.037 237.749 139.314 237.13 139.869 236.65C140.424 236.16 141.213 235.914 142.237 235.914C142.93 235.914 143.512 236.042 143.981 236.298C144.461 236.544 144.834 236.874 145.101 237.29C145.378 237.696 145.56 238.144 145.645 238.634L144.237 238.73C144.173 238.432 144.056 238.17 143.885 237.946C143.714 237.712 143.49 237.53 143.213 237.402C142.936 237.264 142.605 237.194 142.221 237.194C141.613 237.194 141.165 237.312 140.877 237.546C140.589 237.781 140.445 238.08 140.445 238.442C140.445 238.72 140.509 238.949 140.637 239.13C140.776 239.301 140.994 239.445 141.293 239.562C141.592 239.669 141.992 239.765 142.493 239.85C143.357 240 144.029 240.181 144.509 240.394C144.989 240.608 145.325 240.869 145.517 241.178C145.709 241.488 145.805 241.866 145.805 242.314C145.805 242.837 145.656 243.285 145.357 243.658C145.069 244.021 144.674 244.298 144.173 244.49C143.682 244.682 143.122 244.778 142.493 244.778ZM147.639 244.586V233.226H148.983V237.978L148.823 237.946C148.93 237.477 149.111 237.093 149.367 236.794C149.623 236.496 149.938 236.277 150.311 236.138C150.685 235.989 151.095 235.914 151.543 235.914C152.151 235.914 152.663 236.053 153.079 236.33C153.506 236.597 153.826 236.976 154.039 237.466C154.263 237.946 154.375 238.501 154.375 239.13V244.586H153.031V239.514C153.031 238.693 152.882 238.085 152.583 237.69C152.295 237.296 151.853 237.098 151.255 237.098C150.573 237.098 150.023 237.306 149.607 237.722C149.191 238.138 148.983 238.741 148.983 239.53V244.586H147.639ZM160.668 244.778C160.081 244.778 159.559 244.65 159.1 244.394C158.641 244.128 158.289 243.765 158.044 243.306L157.996 244.586H156.78V233.226H158.124V237.29C158.337 236.938 158.668 236.624 159.116 236.346C159.564 236.058 160.081 235.914 160.668 235.914C161.415 235.914 162.06 236.096 162.604 236.458C163.148 236.821 163.569 237.333 163.868 237.994C164.167 238.656 164.316 239.44 164.316 240.346C164.316 241.253 164.167 242.037 163.868 242.698C163.569 243.36 163.148 243.872 162.604 244.234C162.06 244.597 161.415 244.778 160.668 244.778ZM160.588 243.498C161.303 243.498 161.868 243.216 162.284 242.65C162.7 242.085 162.908 241.317 162.908 240.346C162.908 239.365 162.7 238.597 162.284 238.042C161.868 237.477 161.313 237.194 160.62 237.194C160.097 237.194 159.649 237.322 159.276 237.578C158.903 237.824 158.615 238.181 158.412 238.65C158.22 239.12 158.124 239.685 158.124 240.346C158.124 240.986 158.22 241.546 158.412 242.026C158.615 242.496 158.897 242.858 159.26 243.114C159.633 243.37 160.076 243.498 160.588 243.498ZM169.451 244.778C168.673 244.778 167.99 244.597 167.403 244.234C166.817 243.872 166.363 243.36 166.043 242.698C165.723 242.026 165.563 241.242 165.563 240.346C165.563 239.44 165.723 238.656 166.043 237.994C166.363 237.333 166.817 236.821 167.403 236.458C167.99 236.096 168.673 235.914 169.451 235.914C170.23 235.914 170.907 236.096 171.483 236.458C172.07 236.821 172.523 237.333 172.843 237.994C173.163 238.656 173.323 239.44 173.323 240.346C173.323 241.242 173.163 242.026 172.843 242.698C172.523 243.36 172.07 243.872 171.483 244.234C170.907 244.597 170.23 244.778 169.451 244.778ZM169.451 243.498C170.23 243.498 170.833 243.221 171.259 242.666C171.697 242.101 171.915 241.328 171.915 240.346C171.915 239.365 171.697 238.597 171.259 238.042C170.833 237.477 170.23 237.194 169.451 237.194C168.673 237.194 168.065 237.477 167.627 238.042C167.19 238.597 166.971 239.365 166.971 240.346C166.971 241.328 167.19 242.101 167.627 242.666C168.065 243.221 168.673 243.498 169.451 243.498ZM177.662 244.778C176.787 244.778 176.088 244.576 175.566 244.17C175.054 243.765 174.798 243.2 174.798 242.474C174.798 241.749 175.011 241.178 175.438 240.762C175.864 240.346 176.542 240.053 177.47 239.882L180.478 239.322C180.478 238.608 180.307 238.074 179.966 237.722C179.635 237.37 179.134 237.194 178.462 237.194C177.875 237.194 177.411 237.328 177.07 237.594C176.728 237.85 176.494 238.224 176.366 238.714L174.942 238.602C175.102 237.802 175.486 237.157 176.094 236.666C176.712 236.165 177.502 235.914 178.462 235.914C179.55 235.914 180.382 236.224 180.958 236.842C181.534 237.45 181.822 238.293 181.822 239.37V242.874C181.822 243.066 181.854 243.205 181.918 243.29C181.992 243.365 182.11 243.402 182.27 243.402H182.606V244.586C182.563 244.597 182.494 244.602 182.398 244.602C182.302 244.613 182.2 244.618 182.094 244.618C181.71 244.618 181.395 244.56 181.15 244.442C180.915 244.314 180.744 244.122 180.638 243.866C180.531 243.6 180.478 243.253 180.478 242.826L180.638 242.858C180.563 243.221 180.382 243.552 180.094 243.85C179.806 244.138 179.448 244.368 179.022 244.538C178.595 244.698 178.142 244.778 177.662 244.778ZM177.79 243.594C178.355 243.594 178.835 243.488 179.23 243.274C179.635 243.05 179.944 242.752 180.158 242.378C180.371 241.994 180.478 241.568 180.478 241.098V240.49L177.726 241.002C177.15 241.109 176.75 241.274 176.526 241.498C176.312 241.712 176.206 241.994 176.206 242.346C176.206 242.741 176.344 243.05 176.622 243.274C176.91 243.488 177.299 243.594 177.79 243.594ZM184.124 244.586V236.106H185.308L185.372 238.25L185.244 238.202C185.35 237.477 185.58 236.949 185.932 236.618C186.294 236.277 186.774 236.106 187.372 236.106H188.204V237.386H187.388C186.961 237.386 186.604 237.466 186.316 237.626C186.038 237.776 185.825 238.005 185.676 238.314C185.537 238.613 185.468 238.997 185.468 239.466V244.586H184.124ZM192.554 244.778C191.818 244.778 191.178 244.597 190.634 244.234C190.1 243.872 189.69 243.36 189.402 242.698C189.114 242.037 188.97 241.253 188.97 240.346C188.97 239.44 189.114 238.656 189.402 237.994C189.69 237.333 190.1 236.821 190.634 236.458C191.178 236.096 191.818 235.914 192.554 235.914C193.119 235.914 193.636 236.037 194.106 236.282C194.575 236.517 194.927 236.853 195.162 237.29V233.226H196.506V244.586H195.29L195.242 243.306C195.007 243.765 194.65 244.128 194.17 244.394C193.69 244.65 193.151 244.778 192.554 244.778ZM192.826 243.498C193.327 243.498 193.748 243.37 194.09 243.114C194.442 242.858 194.708 242.496 194.89 242.026C195.071 241.546 195.162 240.986 195.162 240.346C195.162 239.685 195.071 239.12 194.89 238.65C194.708 238.181 194.442 237.824 194.09 237.578C193.748 237.322 193.327 237.194 192.826 237.194C192.079 237.194 191.482 237.477 191.034 238.042C190.596 238.597 190.378 239.365 190.378 240.346C190.378 241.317 190.596 242.085 191.034 242.65C191.482 243.216 192.079 243.498 192.826 243.498ZM198.485 244.586V242.778H200.293V244.586H198.485ZM206.472 244.586V233.226H213.608V234.57H207.848V238.234H213.416V239.546H207.848V243.242H213.736V244.586H206.472ZM215.921 244.586V236.106H217.153L217.201 238.266L217.041 238.122C217.147 237.621 217.334 237.21 217.601 236.89C217.867 236.56 218.187 236.314 218.561 236.154C218.945 235.994 219.355 235.914 219.793 235.914C220.443 235.914 220.977 236.058 221.393 236.346C221.819 236.634 222.134 237.024 222.337 237.514C222.55 237.994 222.657 238.533 222.657 239.13V244.586H221.313V239.514C221.313 238.992 221.249 238.554 221.121 238.202C221.003 237.84 220.811 237.568 220.545 237.386C220.278 237.194 219.931 237.098 219.505 237.098C218.854 237.098 218.315 237.306 217.889 237.722C217.473 238.128 217.265 238.725 217.265 239.514V244.586H215.921ZM223.373 246.986V245.802H224.061C224.338 245.802 224.562 245.733 224.733 245.594C224.904 245.466 224.989 245.226 224.989 244.874V236.106H226.333V244.938C226.333 245.685 226.168 246.213 225.837 246.522C225.506 246.832 224.957 246.986 224.189 246.986H223.373ZM224.957 234.778V233.21H226.365V234.778H224.957ZM232.045 244.778C231.266 244.778 230.584 244.597 229.997 244.234C229.41 243.872 228.957 243.36 228.637 242.698C228.317 242.026 228.157 241.242 228.157 240.346C228.157 239.44 228.317 238.656 228.637 237.994C228.957 237.333 229.41 236.821 229.997 236.458C230.584 236.096 231.266 235.914 232.045 235.914C232.824 235.914 233.501 236.096 234.077 236.458C234.664 236.821 235.117 237.333 235.437 237.994C235.757 238.656 235.917 239.44 235.917 240.346C235.917 241.242 235.757 242.026 235.437 242.698C235.117 243.36 234.664 243.872 234.077 244.234C233.501 244.597 232.824 244.778 232.045 244.778ZM232.045 243.498C232.824 243.498 233.426 243.221 233.853 242.666C234.29 242.101 234.509 241.328 234.509 240.346C234.509 239.365 234.29 238.597 233.853 238.042C233.426 237.477 232.824 237.194 232.045 237.194C231.266 237.194 230.658 237.477 230.221 238.042C229.784 238.597 229.565 239.365 229.565 240.346C229.565 241.328 229.784 242.101 230.221 242.666C230.658 243.221 231.266 243.498 232.045 243.498ZM237.867 246.986V245.802H238.843C239.141 245.802 239.36 245.754 239.499 245.658C239.648 245.573 239.76 245.429 239.835 245.226L240.139 244.426H239.675L236.571 236.106H238.043L240.571 243.178L242.987 236.106H244.459L241.019 245.658C240.859 246.117 240.619 246.453 240.299 246.666C239.979 246.88 239.536 246.986 238.971 246.986H237.867ZM253.405 244.778C252.605 244.778 251.911 244.597 251.325 244.234C250.749 243.872 250.301 243.36 249.981 242.698C249.671 242.026 249.517 241.242 249.517 240.346C249.517 239.45 249.671 238.672 249.981 238.01C250.301 237.349 250.743 236.837 251.309 236.474C251.885 236.101 252.562 235.914 253.341 235.914C254.077 235.914 254.727 236.09 255.293 236.442C255.858 236.784 256.295 237.285 256.605 237.946C256.925 238.608 257.085 239.413 257.085 240.362V240.762H250.924C250.978 241.669 251.218 242.352 251.645 242.81C252.082 243.269 252.669 243.498 253.405 243.498C253.959 243.498 254.413 243.37 254.765 243.114C255.127 242.848 255.378 242.501 255.517 242.074L256.957 242.186C256.733 242.944 256.306 243.568 255.677 244.058C255.058 244.538 254.301 244.778 253.405 244.778ZM250.924 239.578H255.613C255.549 238.757 255.309 238.154 254.893 237.77C254.487 237.386 253.97 237.194 253.341 237.194C252.69 237.194 252.151 237.397 251.725 237.802C251.309 238.197 251.042 238.789 250.924 239.578ZM257.736 244.586L260.856 240.234L257.896 236.106H259.464L261.688 239.306L263.848 236.106H265.448L262.52 240.266L265.592 244.586H264.024L261.688 241.162L259.336 244.586H257.736ZM266.952 246.986V236.106H268.2L268.232 237.93L268.04 237.834C268.253 237.205 268.605 236.73 269.096 236.41C269.597 236.08 270.173 235.914 270.824 235.914C271.667 235.914 272.355 236.122 272.888 236.538C273.432 236.954 273.832 237.498 274.088 238.17C274.355 238.842 274.488 239.568 274.488 240.346C274.488 241.125 274.355 241.85 274.088 242.522C273.832 243.194 273.432 243.738 272.888 244.154C272.355 244.57 271.667 244.778 270.824 244.778C270.387 244.778 269.976 244.704 269.592 244.554C269.219 244.405 268.899 244.197 268.632 243.93C268.376 243.664 268.2 243.349 268.104 242.986L268.296 242.762V246.986H266.952ZM270.696 243.498C271.432 243.498 272.013 243.221 272.44 242.666C272.867 242.112 273.08 241.338 273.08 240.346C273.08 239.354 272.867 238.581 272.44 238.026C272.013 237.472 271.432 237.194 270.696 237.194C270.205 237.194 269.779 237.312 269.416 237.546C269.064 237.781 268.787 238.133 268.584 238.602C268.392 239.072 268.296 239.653 268.296 240.346C268.296 241.04 268.392 241.621 268.584 242.09C268.776 242.56 269.053 242.912 269.416 243.146C269.779 243.381 270.205 243.498 270.696 243.498ZM278.053 244.586C277.563 244.586 277.163 244.458 276.853 244.202C276.544 243.946 276.389 243.541 276.389 242.986V233.226H277.733V242.874C277.733 243.045 277.776 243.178 277.861 243.274C277.957 243.36 278.091 243.402 278.261 243.402H278.997V244.586H278.053ZM283.873 244.778C283.095 244.778 282.412 244.597 281.825 244.234C281.239 243.872 280.785 243.36 280.465 242.698C280.145 242.026 279.985 241.242 279.985 240.346C279.985 239.44 280.145 238.656 280.465 237.994C280.785 237.333 281.239 236.821 281.825 236.458C282.412 236.096 283.095 235.914 283.873 235.914C284.652 235.914 285.329 236.096 285.905 236.458C286.492 236.821 286.945 237.333 287.265 237.994C287.585 238.656 287.745 239.44 287.745 240.346C287.745 241.242 287.585 242.026 287.265 242.698C286.945 243.36 286.492 243.872 285.905 244.234C285.329 244.597 284.652 244.778 283.873 244.778ZM283.873 243.498C284.652 243.498 285.255 243.221 285.681 242.666C286.119 242.101 286.337 241.328 286.337 240.346C286.337 239.365 286.119 238.597 285.681 238.042C285.255 237.477 284.652 237.194 283.873 237.194C283.095 237.194 282.487 237.477 282.049 238.042C281.612 238.597 281.393 239.365 281.393 240.346C281.393 241.328 281.612 242.101 282.049 242.666C282.487 243.221 283.095 243.498 283.873 243.498ZM289.577 244.586V236.106H290.761L290.825 238.25L290.697 238.202C290.804 237.477 291.033 236.949 291.385 236.618C291.748 236.277 292.228 236.106 292.825 236.106H293.657V237.386H292.841C292.414 237.386 292.057 237.466 291.769 237.626C291.492 237.776 291.278 238.005 291.129 238.314C290.99 238.613 290.921 238.997 290.921 239.466V244.586H289.577ZM295.155 244.586V236.106H296.499V244.586H295.155ZM295.123 234.778V233.21H296.531V234.778H295.123ZM299.218 244.586V236.106H300.45L300.498 238.266L300.338 238.122C300.444 237.621 300.631 237.21 300.898 236.89C301.164 236.56 301.484 236.314 301.858 236.154C302.242 235.994 302.652 235.914 303.09 235.914C303.74 235.914 304.274 236.058 304.69 236.346C305.116 236.634 305.431 237.024 305.634 237.514C305.847 237.994 305.954 238.533 305.954 239.13V244.586H304.61V239.514C304.61 238.992 304.546 238.554 304.418 238.202C304.3 237.84 304.108 237.568 303.842 237.386C303.575 237.194 303.228 237.098 302.802 237.098C302.151 237.098 301.612 237.306 301.186 237.722C300.77 238.128 300.562 238.725 300.562 239.514V244.586H299.218ZM311.543 247.178C310.935 247.178 310.386 247.077 309.895 246.874C309.404 246.672 308.994 246.384 308.663 246.01C308.332 245.637 308.108 245.205 307.991 244.714L309.399 244.618C309.527 245.013 309.751 245.322 310.071 245.546C310.402 245.781 310.892 245.898 311.543 245.898C312.311 245.898 312.898 245.744 313.303 245.434C313.719 245.125 313.927 244.661 313.927 244.042V242.666C313.724 243.114 313.399 243.472 312.951 243.738C312.503 244.005 312.002 244.138 311.447 244.138C310.732 244.138 310.092 243.962 309.527 243.61C308.972 243.258 308.535 242.773 308.215 242.154C307.906 241.536 307.751 240.826 307.751 240.026C307.751 239.216 307.906 238.506 308.215 237.898C308.524 237.28 308.951 236.794 309.495 236.442C310.05 236.09 310.679 235.914 311.383 235.914C311.98 235.914 312.514 236.053 312.983 236.33C313.463 236.608 313.799 236.981 313.991 237.45V236.106H315.271V244.01C315.271 244.672 315.122 245.237 314.823 245.706C314.524 246.186 314.098 246.549 313.543 246.794C312.988 247.05 312.322 247.178 311.543 247.178ZM311.511 242.858C312.236 242.858 312.818 242.608 313.255 242.106C313.692 241.594 313.916 240.901 313.927 240.026C313.938 239.44 313.842 238.938 313.639 238.522C313.447 238.096 313.164 237.77 312.791 237.546C312.428 237.312 312.002 237.194 311.511 237.194C310.764 237.194 310.183 237.45 309.767 237.962C309.362 238.464 309.159 239.152 309.159 240.026C309.159 240.901 309.367 241.594 309.783 242.106C310.21 242.608 310.786 242.858 311.511 242.858ZM317.875 241.306C317.843 240.933 317.806 240.485 317.763 239.962C317.731 239.44 317.699 238.906 317.667 238.362C317.635 237.818 317.619 237.333 317.619 236.906V233.226H318.995V236.906C318.995 237.333 318.979 237.818 318.947 238.362C318.926 238.906 318.894 239.44 318.851 239.962C318.819 240.485 318.787 240.933 318.755 241.306H317.875ZM317.347 244.586V242.778H319.155V244.586H317.347Z" fill="#28303F" fill-opacity="0.8"/>
<rect x="24" y="270.586" width="392" height="46" rx="23" fill="#2355F6"/>
<path d="M156.76 298.81C155.854 298.81 155.056 298.605 154.366 298.194C153.675 297.774 153.134 297.182 152.742 296.416C152.35 295.642 152.154 294.713 152.154 293.63C152.154 292.566 152.345 291.647 152.728 290.872C153.11 290.088 153.647 289.486 154.338 289.066C155.028 288.637 155.84 288.422 156.774 288.422C158.043 288.422 159.028 288.74 159.728 289.374C160.428 290 160.885 290.877 161.1 292.006L159.196 292.104C159.074 291.451 158.813 290.938 158.412 290.564C158.01 290.191 157.464 290.004 156.774 290.004C156.214 290.004 155.728 290.154 155.318 290.452C154.907 290.751 154.59 291.171 154.366 291.712C154.142 292.254 154.03 292.893 154.03 293.63C154.03 294.377 154.142 295.021 154.366 295.562C154.599 296.094 154.921 296.505 155.332 296.794C155.742 297.084 156.218 297.228 156.76 297.228C157.497 297.228 158.066 297.028 158.468 296.626C158.878 296.216 159.14 295.656 159.252 294.946L161.156 295.044C161.025 295.819 160.773 296.491 160.4 297.06C160.026 297.62 159.532 298.054 158.916 298.362C158.309 298.661 157.59 298.81 156.76 298.81ZM165.788 298.754C165.05 298.754 164.402 298.596 163.842 298.278C163.291 297.952 162.862 297.494 162.554 296.906C162.255 296.318 162.106 295.632 162.106 294.848C162.106 294.055 162.255 293.369 162.554 292.79C162.862 292.202 163.291 291.75 163.842 291.432C164.402 291.106 165.05 290.942 165.788 290.942C166.525 290.942 167.169 291.106 167.72 291.432C168.27 291.75 168.695 292.202 168.994 292.79C169.302 293.369 169.456 294.055 169.456 294.848C169.456 295.632 169.302 296.318 168.994 296.906C168.695 297.494 168.27 297.952 167.72 298.278C167.169 298.596 166.525 298.754 165.788 298.754ZM165.788 297.298C166.366 297.298 166.81 297.084 167.118 296.654C167.435 296.225 167.594 295.623 167.594 294.848C167.594 294.083 167.435 293.486 167.118 293.056C166.81 292.618 166.366 292.398 165.788 292.398C165.209 292.398 164.761 292.618 164.444 293.056C164.126 293.486 163.968 294.083 163.968 294.848C163.968 295.623 164.126 296.225 164.444 296.654C164.761 297.084 165.209 297.298 165.788 297.298ZM170.838 298.586V291.11H172.462L172.532 293.21L172.322 293.126C172.397 292.604 172.551 292.184 172.784 291.866C173.018 291.549 173.302 291.316 173.638 291.166C173.974 291.017 174.343 290.942 174.744 290.942C175.295 290.942 175.757 291.064 176.13 291.306C176.513 291.549 176.802 291.885 176.998 292.314C177.194 292.734 177.292 293.224 177.292 293.784V298.586H175.5V294.358C175.5 293.938 175.458 293.584 175.374 293.294C175.29 293.005 175.15 292.786 174.954 292.636C174.768 292.478 174.516 292.398 174.198 292.398C173.722 292.398 173.34 292.566 173.05 292.902C172.77 293.238 172.63 293.724 172.63 294.358V298.586H170.838ZM181.723 298.586C180.976 298.586 180.426 298.414 180.071 298.068C179.726 297.723 179.553 297.182 179.553 296.444V289.36H181.345V296.276C181.345 296.622 181.42 296.864 181.569 297.004C181.718 297.135 181.952 297.2 182.269 297.2H183.319V298.586H181.723ZM178.377 292.496V291.11H183.319V292.496H178.377ZM184.633 298.586V291.11H186.425V298.586H184.633ZM184.605 290.116V288.52H186.467V290.116H184.605ZM188.502 298.586V291.11H190.126L190.196 293.21L189.986 293.126C190.061 292.604 190.215 292.184 190.448 291.866C190.682 291.549 190.966 291.316 191.302 291.166C191.638 291.017 192.007 290.942 192.408 290.942C192.959 290.942 193.421 291.064 193.794 291.306C194.177 291.549 194.466 291.885 194.662 292.314C194.858 292.734 194.956 293.224 194.956 293.784V298.586H193.164V294.358C193.164 293.938 193.122 293.584 193.038 293.294C192.954 293.005 192.814 292.786 192.618 292.636C192.432 292.478 192.18 292.398 191.862 292.398C191.386 292.398 191.004 292.566 190.714 292.902C190.434 293.238 190.294 293.724 190.294 294.358V298.586H188.502ZM199.197 298.754C198.441 298.754 197.839 298.507 197.391 298.012C196.952 297.508 196.733 296.813 196.733 295.926V291.11H198.525V295.478C198.525 296.104 198.628 296.566 198.833 296.864C199.048 297.154 199.37 297.298 199.799 297.298C200.284 297.298 200.658 297.14 200.919 296.822C201.19 296.496 201.325 296.024 201.325 295.408V291.11H203.117V298.586H201.479L201.437 296.528L201.661 296.598C201.549 297.308 201.283 297.844 200.863 298.208C200.443 298.572 199.888 298.754 199.197 298.754ZM208.184 298.754C207.437 298.754 206.788 298.596 206.238 298.278C205.687 297.952 205.262 297.494 204.964 296.906C204.665 296.318 204.516 295.632 204.516 294.848C204.516 294.064 204.665 293.383 204.964 292.804C205.262 292.216 205.682 291.759 206.224 291.432C206.774 291.106 207.414 290.942 208.142 290.942C208.851 290.942 209.472 291.101 210.004 291.418C210.545 291.736 210.96 292.193 211.25 292.79C211.539 293.388 211.684 294.106 211.684 294.946V295.352H206.378C206.415 296.006 206.592 296.5 206.91 296.836C207.236 297.163 207.666 297.326 208.198 297.326C208.599 297.326 208.93 297.238 209.192 297.06C209.462 296.874 209.649 296.617 209.752 296.29L211.586 296.402C211.38 297.13 210.974 297.704 210.368 298.124C209.77 298.544 209.042 298.754 208.184 298.754ZM206.378 294.148H209.836C209.798 293.542 209.626 293.094 209.318 292.804C209.01 292.506 208.618 292.356 208.142 292.356C207.666 292.356 207.269 292.51 206.952 292.818C206.644 293.126 206.452 293.57 206.378 294.148ZM216.67 298.586V288.646H219.974C221.56 288.646 222.778 289.08 223.628 289.948C224.486 290.807 224.916 292.034 224.916 293.63C224.916 295.217 224.496 296.44 223.656 297.298C222.816 298.157 221.616 298.586 220.058 298.586H216.67ZM218.49 297.004H219.974C221.01 297.004 221.78 296.724 222.284 296.164C222.788 295.604 223.04 294.76 223.04 293.63C223.04 292.482 222.788 291.628 222.284 291.068C221.78 290.508 221.01 290.228 219.974 290.228H218.49V297.004ZM228.735 298.754C227.951 298.754 227.321 298.577 226.845 298.222C226.369 297.858 226.131 297.354 226.131 296.71C226.131 296.066 226.332 295.562 226.733 295.198C227.134 294.834 227.746 294.573 228.567 294.414L231.045 293.924C231.045 293.392 230.924 292.996 230.681 292.734C230.438 292.464 230.079 292.328 229.603 292.328C229.174 292.328 228.833 292.431 228.581 292.636C228.338 292.832 228.17 293.117 228.077 293.49L226.257 293.406C226.406 292.613 226.77 292.006 227.349 291.586C227.928 291.157 228.679 290.942 229.603 290.942C230.667 290.942 231.47 291.213 232.011 291.754C232.562 292.286 232.837 293.052 232.837 294.05V296.766C232.837 296.962 232.87 297.098 232.935 297.172C233.01 297.247 233.117 297.284 233.257 297.284H233.495V298.586C233.439 298.605 233.346 298.619 233.215 298.628C233.094 298.638 232.968 298.642 232.837 298.642C232.529 298.642 232.254 298.596 232.011 298.502C231.768 298.4 231.582 298.227 231.451 297.984C231.32 297.732 231.255 297.392 231.255 296.962L231.409 297.074C231.334 297.401 231.171 297.695 230.919 297.956C230.676 298.208 230.368 298.404 229.995 298.544C229.622 298.684 229.202 298.754 228.735 298.754ZM229.099 297.452C229.5 297.452 229.846 297.373 230.135 297.214C230.424 297.056 230.648 296.836 230.807 296.556C230.966 296.276 231.045 295.945 231.045 295.562V295.142L229.113 295.534C228.712 295.618 228.422 295.744 228.245 295.912C228.077 296.071 227.993 296.281 227.993 296.542C227.993 296.832 228.086 297.056 228.273 297.214C228.469 297.373 228.744 297.452 229.099 297.452ZM237.615 298.754C236.877 298.754 236.257 298.647 235.753 298.432C235.258 298.218 234.875 297.919 234.605 297.536C234.334 297.154 234.18 296.72 234.143 296.234L235.977 296.15C236.042 296.542 236.205 296.846 236.467 297.06C236.728 297.275 237.115 297.382 237.629 297.382C238.049 297.382 238.375 297.317 238.609 297.186C238.851 297.046 238.973 296.832 238.973 296.542C238.973 296.374 238.931 296.234 238.847 296.122C238.763 296.01 238.604 295.912 238.371 295.828C238.137 295.744 237.792 295.66 237.335 295.576C236.569 295.446 235.967 295.287 235.529 295.1C235.09 294.904 234.777 294.662 234.591 294.372C234.413 294.083 234.325 293.724 234.325 293.294C234.325 292.594 234.591 292.03 235.123 291.6C235.664 291.162 236.453 290.942 237.489 290.942C238.161 290.942 238.725 291.054 239.183 291.278C239.64 291.493 239.995 291.792 240.247 292.174C240.508 292.548 240.671 292.977 240.737 293.462L238.931 293.546C238.884 293.294 238.8 293.075 238.679 292.888C238.557 292.702 238.394 292.562 238.189 292.468C237.983 292.366 237.741 292.314 237.461 292.314C237.041 292.314 236.723 292.398 236.509 292.566C236.294 292.734 236.187 292.958 236.187 293.238C236.187 293.434 236.233 293.598 236.327 293.728C236.429 293.859 236.593 293.966 236.817 294.05C237.041 294.125 237.339 294.195 237.713 294.26C238.497 294.382 239.113 294.54 239.561 294.736C240.018 294.923 240.34 295.166 240.527 295.464C240.723 295.754 240.821 296.104 240.821 296.514C240.821 296.99 240.685 297.396 240.415 297.732C240.153 298.068 239.78 298.325 239.295 298.502C238.819 298.67 238.259 298.754 237.615 298.754ZM242.219 298.586V288.646H244.011V292.818H243.787C243.862 292.389 244.011 292.039 244.235 291.768C244.459 291.488 244.735 291.283 245.061 291.152C245.388 291.012 245.747 290.942 246.139 290.942C246.69 290.942 247.152 291.064 247.525 291.306C247.908 291.54 248.193 291.871 248.379 292.3C248.575 292.73 248.673 293.224 248.673 293.784V298.586H246.881V294.218C246.881 293.612 246.779 293.159 246.573 292.86C246.368 292.552 246.046 292.398 245.607 292.398C245.122 292.398 244.735 292.557 244.445 292.874C244.156 293.192 244.011 293.654 244.011 294.26V298.586H242.219ZM254.522 298.754C254 298.754 253.542 298.642 253.15 298.418C252.768 298.194 252.469 297.882 252.254 297.48L252.212 298.586H250.504V288.646H252.296V292.174C252.502 291.829 252.796 291.54 253.178 291.306C253.561 291.064 254.009 290.942 254.522 290.942C255.166 290.942 255.722 291.106 256.188 291.432C256.664 291.75 257.028 292.202 257.28 292.79C257.542 293.369 257.672 294.055 257.672 294.848C257.672 295.642 257.542 296.332 257.28 296.92C257.028 297.499 256.664 297.952 256.188 298.278C255.722 298.596 255.166 298.754 254.522 298.754ZM254.116 297.298C254.63 297.298 255.04 297.084 255.348 296.654C255.656 296.216 255.81 295.614 255.81 294.848C255.81 294.074 255.656 293.472 255.348 293.042C255.05 292.613 254.644 292.398 254.13 292.398C253.748 292.398 253.416 292.496 253.136 292.692C252.866 292.879 252.656 293.154 252.506 293.518C252.366 293.882 252.296 294.326 252.296 294.848C252.296 295.352 252.366 295.791 252.506 296.164C252.656 296.528 252.866 296.808 253.136 297.004C253.407 297.2 253.734 297.298 254.116 297.298ZM262.311 298.754C261.574 298.754 260.925 298.596 260.365 298.278C259.814 297.952 259.385 297.494 259.077 296.906C258.778 296.318 258.629 295.632 258.629 294.848C258.629 294.055 258.778 293.369 259.077 292.79C259.385 292.202 259.814 291.75 260.365 291.432C260.925 291.106 261.574 290.942 262.311 290.942C263.048 290.942 263.692 291.106 264.243 291.432C264.794 291.75 265.218 292.202 265.517 292.79C265.825 293.369 265.979 294.055 265.979 294.848C265.979 295.632 265.825 296.318 265.517 296.906C265.218 297.494 264.794 297.952 264.243 298.278C263.692 298.596 263.048 298.754 262.311 298.754ZM262.311 297.298C262.89 297.298 263.333 297.084 263.641 296.654C263.958 296.225 264.117 295.623 264.117 294.848C264.117 294.083 263.958 293.486 263.641 293.056C263.333 292.618 262.89 292.398 262.311 292.398C261.732 292.398 261.284 292.618 260.967 293.056C260.65 293.486 260.491 294.083 260.491 294.848C260.491 295.623 260.65 296.225 260.967 296.654C261.284 297.084 261.732 297.298 262.311 297.298ZM269.641 298.754C268.857 298.754 268.227 298.577 267.751 298.222C267.275 297.858 267.037 297.354 267.037 296.71C267.037 296.066 267.238 295.562 267.639 295.198C268.041 294.834 268.652 294.573 269.473 294.414L271.951 293.924C271.951 293.392 271.83 292.996 271.587 292.734C271.345 292.464 270.985 292.328 270.509 292.328C270.08 292.328 269.739 292.431 269.487 292.636C269.245 292.832 269.077 293.117 268.983 293.49L267.163 293.406C267.313 292.613 267.677 292.006 268.255 291.586C268.834 291.157 269.585 290.942 270.509 290.942C271.573 290.942 272.376 291.213 272.917 291.754C273.468 292.286 273.743 293.052 273.743 294.05V296.766C273.743 296.962 273.776 297.098 273.841 297.172C273.916 297.247 274.023 297.284 274.163 297.284H274.401V298.586C274.345 298.605 274.252 298.619 274.121 298.628C274 298.638 273.874 298.642 273.743 298.642C273.435 298.642 273.16 298.596 272.917 298.502C272.675 298.4 272.488 298.227 272.357 297.984C272.227 297.732 272.161 297.392 272.161 296.962L272.315 297.074C272.241 297.401 272.077 297.695 271.825 297.956C271.583 298.208 271.275 298.404 270.901 298.544C270.528 298.684 270.108 298.754 269.641 298.754ZM270.005 297.452C270.407 297.452 270.752 297.373 271.041 297.214C271.331 297.056 271.555 296.836 271.713 296.556C271.872 296.276 271.951 295.945 271.951 295.562V295.142L270.019 295.534C269.618 295.618 269.329 295.744 269.151 295.912C268.983 296.071 268.899 296.281 268.899 296.542C268.899 296.832 268.993 297.056 269.179 297.214C269.375 297.373 269.651 297.452 270.005 297.452ZM275.565 298.586V291.11H277.245L277.315 293.182L277.161 293.154C277.273 292.436 277.483 291.918 277.791 291.6C278.108 291.274 278.538 291.11 279.079 291.11H279.765V292.65H279.065C278.682 292.65 278.365 292.706 278.113 292.818C277.861 292.93 277.67 293.108 277.539 293.35C277.418 293.584 277.357 293.892 277.357 294.274V298.586H275.565ZM283.393 298.754C282.758 298.754 282.208 298.596 281.741 298.278C281.284 297.961 280.929 297.508 280.677 296.92C280.425 296.332 280.299 295.642 280.299 294.848C280.299 294.055 280.425 293.364 280.677 292.776C280.929 292.188 281.288 291.736 281.755 291.418C282.222 291.101 282.768 290.942 283.393 290.942C283.916 290.942 284.373 291.05 284.765 291.264C285.166 291.479 285.47 291.782 285.675 292.174V288.646H287.467V298.586H285.759L285.717 297.48C285.512 297.882 285.204 298.194 284.793 298.418C284.382 298.642 283.916 298.754 283.393 298.754ZM283.939 297.298C284.312 297.298 284.625 297.205 284.877 297.018C285.138 296.832 285.334 296.556 285.465 296.192C285.605 295.819 285.675 295.371 285.675 294.848C285.675 294.316 285.605 293.868 285.465 293.504C285.334 293.14 285.138 292.865 284.877 292.678C284.625 292.492 284.312 292.398 283.939 292.398C283.398 292.398 282.964 292.618 282.637 293.056C282.32 293.486 282.161 294.083 282.161 294.848C282.161 295.595 282.32 296.192 282.637 296.64C282.964 297.079 283.398 297.298 283.939 297.298Z" fill="white"/>
<defs>
<filter id="filter0_d_1_2526" x="150" y="42.5862" width="140" height="140" filterUnits="userSpaceOnUse" color-interpolation-filters="sRGB">
<feFlood flood-opacity="0" result="BackgroundImageFix"/>
<feColorMatrix in="SourceAlpha" type="matrix" values="0 0 0 0 0 0 0 0 0 0 0 0 0 0 0 0 0 0 127 0" result="hardAlpha"/>
<feOffset dy="4"/>
<feGaussianBlur stdDeviation="20"/>
<feComposite in2="hardAlpha" operator="out"/>
<feColorMatrix type="matrix" values="0 0 0 0 0.156863 0 0 0 0 0.654902 0 0 0 0 0.270588 0 0 0 0.4 0"/>
<feBlend mode="normal" in2="BackgroundImageFix" result="effect1_dropShadow_1_2526"/>
<feBlend mode="normal" in="SourceGraphic" in2="effect1_dropShadow_1_2526" result="shape"/>
</filter>
<linearGradient id="paint0_linear_1_2526" x1="167.797" y1="44.5438" x2="167.797" y2="45.465" gradientUnits="userSpaceOnUse">
<stop stop-opacity="0.1"/>
<stop offset="1" stop-opacity="0"/>
</linearGradient>
<linearGradient id="paint1_linear_1_2526" x1="170.552" y1="41.5728" x2="171.728" y2="42.2896" gradientUnits="userSpaceOnUse">
<stop stop-opacity="0.1"/>
<stop offset="1" stop-opacity="0"/>
</linearGradient>
<linearGradient id="paint2_linear_1_2526" x1="165.772" y1="41.62" x2="165.772" y2="42.5411" gradientUnits="userSpaceOnUse">
<stop stop-opacity="0.1"/>
<stop offset="1" stop-opacity="0"/>
</linearGradient>
<linearGradient id="paint3_linear_1_2526" x1="168.748" y1="38.8628" x2="169.915" y2="39.573" gradientUnits="userSpaceOnUse">
<stop stop-opacity="0.1"/>
<stop offset="1" stop-opacity="0"/>
</linearGradient>
<linearGradient id="paint4_linear_1_2526" x1="163.098" y1="40.0621" x2="162.291" y2="40.5268" gradientUnits="userSpaceOnUse">
<stop stop-opacity="0.1"/>
<stop offset="1" stop-opacity="0"/>
</linearGradient>
<linearGradient id="paint5_linear_1_2526" x1="163.968" y1="36.1654" x2="162.773" y2="35.5094" gradientUnits="userSpaceOnUse">
<stop stop-opacity="0.1"/>
<stop offset="1" stop-opacity="0"/>
</linearGradient>
<linearGradient id="paint6_linear_1_2526" x1="171.788" y1="38.3939" x2="165.87" y2="47.5022" gradientUnits="userSpaceOnUse">
<stop stop-color="#55FEFF"/>
<stop offset="1" stop-color="#2856FE"/>
</linearGradient>
<linearGradient id="paint7_linear_1_2526" x1="163.783" y1="40.5092" x2="177.448" y2="37.9701" gradientUnits="userSpaceOnUse">
<stop stop-color="#55FEFE"/>
<stop offset="1" stop-color="#2754FD"/>
</linearGradient>
<linearGradient id="paint8_linear_1_2526" x1="163.132" y1="40.3969" x2="168.893" y2="30.6991" gradientUnits="userSpaceOnUse">
<stop stop-color="#55FDFF"/>
<stop offset="1" stop-color="#2855FD"/>
</linearGradient>
<linearGradient id="paint9_linear_1_2526" x1="169.163" y1="35.4097" x2="159.124" y2="42.9435" gradientUnits="userSpaceOnUse">
<stop stop-color="#55FEFF"/>
<stop offset="1" stop-color="#2855FD"/>
</linearGradient>
<linearGradient id="paint10_linear_1_2526" x1="259.602" y1="33.1643" x2="259.602" y2="37.1643" gradientUnits="userSpaceOnUse">
<stop stop-color="#2856FE"/>
<stop offset="0.5" stop-color="#55FEFF"/>
<stop offset="1" stop-color="#121212"/>
</linearGradient>
<linearGradient id="paint11_linear_1_2526" x1="285.102" y1="44.6643" x2="285.102" y2="47.6643" gradientUnits="userSpaceOnUse">
<stop stop-color="#2856FE"/>
<stop offset="1" stop-color="#55FEFF"/>
</linearGradient>
<linearGradient id="paint12_linear_1_2526" x1="145" y1="0.5" x2="295" y2="0.5" gradientUnits="userSpaceOnUse">
<stop stop-color="#0C9DFF" stop-opacity="0"/>
<stop offset="0.5" stop-color="#0C9DFF"/>
<stop offset="1" stop-color="#0C9DFF" stop-opacity="0"/>
</linearGradient>
<linearGradient id="paint13_linear_1_2526" x1="220" y1="78.5862" x2="220" y2="138.586" gradientUnits="userSpaceOnUse">
<stop stop-color="#28A745"/>
<stop offset="1" stop-color="#21B142"/>
</linearGradient>
<linearGradient id="paint14_linear_1_2526" x1="220" y1="78.5862" x2="220" y2="138.586" gradientUnits="userSpaceOnUse">
<stop stop-opacity="0"/>
<stop offset="1"/>
</linearGradient>
</defs>
</svg>
