<svg width="598" height="306" viewBox="0 0 598 306" fill="none" xmlns="http://www.w3.org/2000/svg">
<rect x="1" y="4.5" width="596" height="301" rx="23.5" fill="#071D27"/>
<rect x="1" y="4.5" width="596" height="301" rx="23.5" stroke="#122B37"/>
<g filter="url(#filter0_d_1_36059)">
<rect x="269" y="36" width="60" height="60" rx="30" fill="url(#paint0_linear_1_36059)" shape-rendering="crispEdges"/>
<rect x="269" y="36" width="60" height="60" rx="30" fill="url(#paint1_linear_1_36059)" fill-opacity="0.2" shape-rendering="crispEdges"/>
<rect x="269.5" y="36.5" width="59" height="59" rx="29.5" stroke="#191920" shape-rendering="crispEdges"/>
<path fill-rule="evenodd" clip-rule="evenodd" d="M299.001 79.3332C306.365 79.3332 312.335 73.3636 312.335 65.9998C312.335 58.636 306.365 52.6665 299.001 52.6665C291.638 52.6665 285.668 58.636 285.668 65.9998C285.668 73.3636 291.638 79.3332 299.001 79.3332ZM305.124 62.6138C305.463 62.1779 305.385 61.5496 304.949 61.2105C304.513 60.8715 303.884 60.95 303.545 61.3859L298.203 68.2551C298.084 68.4078 297.86 68.4277 297.717 68.2982L294.337 65.2566C293.926 64.8871 293.294 64.9204 292.925 65.3309C292.555 65.7414 292.589 66.3737 292.999 66.7432L296.379 69.7848C297.385 70.6909 298.95 70.5522 299.781 69.483L305.124 62.6138Z" fill="white"/>
</g>
<path d="M214.201 144V136.16L207.257 124.12H211.345L216.049 132.576L220.725 124.12H224.813L217.869 136.16V144H214.201ZM231.112 144.336C229.638 144.336 228.34 144.019 227.22 143.384C226.119 142.731 225.26 141.816 224.644 140.64C224.047 139.464 223.748 138.092 223.748 136.524C223.748 134.937 224.047 133.565 224.644 132.408C225.26 131.232 226.119 130.327 227.22 129.692C228.34 129.039 229.638 128.712 231.112 128.712C232.587 128.712 233.875 129.039 234.976 129.692C236.078 130.327 236.927 131.232 237.524 132.408C238.14 133.565 238.448 134.937 238.448 136.524C238.448 138.092 238.14 139.464 237.524 140.64C236.927 141.816 236.078 142.731 234.976 143.384C233.875 144.019 232.587 144.336 231.112 144.336ZM231.112 141.424C232.27 141.424 233.156 140.995 233.772 140.136C234.407 139.277 234.724 138.073 234.724 136.524C234.724 134.993 234.407 133.799 233.772 132.94C233.156 132.063 232.27 131.624 231.112 131.624C229.955 131.624 229.059 132.063 228.424 132.94C227.79 133.799 227.472 134.993 227.472 136.524C227.472 138.073 227.79 139.277 228.424 140.136C229.059 140.995 229.955 141.424 231.112 141.424ZM246.142 144.336C244.63 144.336 243.426 143.841 242.53 142.852C241.653 141.844 241.214 140.453 241.214 138.68V129.048H244.798V137.784C244.798 139.035 245.003 139.959 245.414 140.556C245.843 141.135 246.487 141.424 247.346 141.424C248.317 141.424 249.063 141.107 249.586 140.472C250.127 139.819 250.398 138.876 250.398 137.644V129.048H253.982V144H250.706L250.622 139.884L251.07 140.024C250.846 141.443 250.314 142.516 249.474 143.244C248.634 143.972 247.523 144.336 246.142 144.336ZM257.585 131.82L257.165 126.416V124.12H260.217V126.416L259.797 131.82H257.585ZM263.39 144V129.048H266.75L266.89 133.192L266.582 133.136C266.806 131.699 267.226 130.663 267.842 130.028C268.476 129.375 269.335 129.048 270.418 129.048H271.79V132.128H270.39C269.624 132.128 268.99 132.24 268.486 132.464C267.982 132.688 267.599 133.043 267.338 133.528C267.095 133.995 266.974 134.611 266.974 135.376V144H263.39ZM280.194 144.336C278.7 144.336 277.403 144.019 276.302 143.384C275.2 142.731 274.351 141.816 273.754 140.64C273.156 139.464 272.858 138.092 272.858 136.524C272.858 134.956 273.156 133.593 273.754 132.436C274.351 131.26 275.191 130.345 276.274 129.692C277.375 129.039 278.654 128.712 280.11 128.712C281.528 128.712 282.77 129.029 283.834 129.664C284.916 130.299 285.747 131.213 286.326 132.408C286.904 133.603 287.194 135.04 287.194 136.72V137.532H276.582C276.656 138.839 277.011 139.828 277.646 140.5C278.299 141.153 279.158 141.48 280.222 141.48C281.024 141.48 281.687 141.303 282.21 140.948C282.751 140.575 283.124 140.061 283.33 139.408L286.998 139.632C286.587 141.088 285.775 142.236 284.562 143.076C283.367 143.916 281.911 144.336 280.194 144.336ZM276.582 135.124H283.498C283.423 133.911 283.078 133.015 282.462 132.436C281.846 131.839 281.062 131.54 280.11 131.54C279.158 131.54 278.364 131.848 277.73 132.464C277.114 133.08 276.731 133.967 276.582 135.124ZM295.458 144L302.626 124.12H307.078L314.246 144H310.438L308.786 139.296H300.918L299.266 144H295.458ZM301.982 136.188H307.722L304.866 127.788L301.982 136.188ZM319.665 144C318.582 144 317.714 143.72 317.061 143.16C316.408 142.6 316.081 141.704 316.081 140.472V124.12H319.665V140.108C319.665 140.481 319.758 140.761 319.945 140.948C320.15 141.135 320.43 141.228 320.785 141.228H321.877V144H319.665ZM327.704 144C326.621 144 325.753 143.72 325.1 143.16C324.447 142.6 324.12 141.704 324.12 140.472V124.12H327.704V140.108C327.704 140.481 327.797 140.761 327.984 140.948C328.189 141.135 328.469 141.228 328.824 141.228H329.916V144H327.704ZM346.834 144.448C345.191 144.448 343.773 144.159 342.578 143.58C341.383 143.001 340.441 142.199 339.75 141.172C339.078 140.127 338.686 138.913 338.574 137.532L342.27 137.308C342.382 138.167 342.625 138.895 342.998 139.492C343.39 140.089 343.903 140.547 344.538 140.864C345.191 141.163 345.975 141.312 346.89 141.312C347.674 141.312 348.337 141.219 348.878 141.032C349.438 140.827 349.858 140.537 350.138 140.164C350.437 139.772 350.586 139.296 350.586 138.736C350.586 138.232 350.465 137.784 350.222 137.392C349.979 136.981 349.513 136.617 348.822 136.3C348.131 135.964 347.105 135.637 345.742 135.32C344.099 134.947 342.783 134.527 341.794 134.06C340.805 133.575 340.086 132.977 339.638 132.268C339.19 131.54 338.966 130.635 338.966 129.552C338.966 128.395 339.255 127.377 339.834 126.5C340.413 125.604 341.234 124.913 342.298 124.428C343.362 123.924 344.641 123.672 346.134 123.672C347.721 123.672 349.065 123.961 350.166 124.54C351.267 125.1 352.135 125.875 352.77 126.864C353.405 127.853 353.797 128.992 353.946 130.28L350.278 130.448C350.185 129.72 349.961 129.085 349.606 128.544C349.27 128.003 348.803 127.583 348.206 127.284C347.627 126.967 346.918 126.808 346.078 126.808C345.033 126.808 344.202 127.051 343.586 127.536C342.989 128.003 342.69 128.628 342.69 129.412C342.69 129.953 342.811 130.401 343.054 130.756C343.315 131.111 343.773 131.419 344.426 131.68C345.079 131.923 345.994 132.184 347.17 132.464C348.943 132.837 350.353 133.313 351.398 133.892C352.443 134.471 353.19 135.143 353.638 135.908C354.086 136.673 354.31 137.551 354.31 138.54C354.31 139.753 354.002 140.808 353.386 141.704C352.77 142.581 351.902 143.263 350.782 143.748C349.662 144.215 348.346 144.448 346.834 144.448ZM364.467 144.336C362.974 144.336 361.676 144.019 360.575 143.384C359.474 142.731 358.624 141.816 358.027 140.64C357.43 139.464 357.131 138.092 357.131 136.524C357.131 134.956 357.43 133.593 358.027 132.436C358.624 131.26 359.464 130.345 360.547 129.692C361.648 129.039 362.927 128.712 364.383 128.712C365.802 128.712 367.043 129.029 368.107 129.664C369.19 130.299 370.02 131.213 370.599 132.408C371.178 133.603 371.467 135.04 371.467 136.72V137.532H360.855C360.93 138.839 361.284 139.828 361.919 140.5C362.572 141.153 363.431 141.48 364.495 141.48C365.298 141.48 365.96 141.303 366.483 140.948C367.024 140.575 367.398 140.061 367.603 139.408L371.271 139.632C370.86 141.088 370.048 142.236 368.835 143.076C367.64 143.916 366.184 144.336 364.467 144.336ZM360.855 135.124H367.771C367.696 133.911 367.351 133.015 366.735 132.436C366.119 131.839 365.335 131.54 364.383 131.54C363.431 131.54 362.638 131.848 362.003 132.464C361.387 133.08 361.004 133.967 360.855 135.124ZM379.741 144C378.248 144 377.146 143.655 376.437 142.964C375.746 142.273 375.401 141.191 375.401 139.716V125.548H378.985V139.38C378.985 140.071 379.134 140.556 379.433 140.836C379.732 141.097 380.198 141.228 380.833 141.228H382.933V144H379.741ZM373.049 131.82V129.048H382.933V131.82H373.049ZM386.006 137.84C385.932 137.205 385.848 136.44 385.754 135.544C385.661 134.648 385.577 133.733 385.502 132.8C385.428 131.848 385.39 130.999 385.39 130.252V124.12H389.03V130.252C389.03 130.999 388.993 131.848 388.918 132.8C388.862 133.733 388.788 134.648 388.694 135.544C388.601 136.44 388.517 137.205 388.442 137.84H386.006ZM385.082 144V140.08H389.17V144H385.082Z" fill="white"/>
<path d="M44.3474 178.256C43.3341 178.256 42.4434 178.021 41.6754 177.552C40.9074 177.072 40.3101 176.389 39.8834 175.504C39.4568 174.619 39.2434 173.563 39.2434 172.336C39.2434 171.109 39.4568 170.053 39.8834 169.168C40.3101 168.272 40.9074 167.584 41.6754 167.104C42.4434 166.624 43.3341 166.384 44.3474 166.384C45.7234 166.384 46.7901 166.731 47.5474 167.424C48.3048 168.117 48.8008 169.061 49.0354 170.256L47.5794 170.352C47.4194 169.541 47.0781 168.901 46.5554 168.432C46.0328 167.963 45.2968 167.728 44.3474 167.728C43.6221 167.728 42.9821 167.915 42.4274 168.288C41.8834 168.651 41.4568 169.179 41.1474 169.872C40.8381 170.555 40.6834 171.376 40.6834 172.336C40.6834 173.296 40.8381 174.117 41.1474 174.8C41.4568 175.483 41.8834 176.005 42.4274 176.368C42.9821 176.731 43.6221 176.912 44.3474 176.912C45.3394 176.912 46.1074 176.656 46.6514 176.144C47.1954 175.621 47.5368 174.917 47.6754 174.032L49.1314 174.128C48.9928 174.949 48.7208 175.669 48.3154 176.288C47.9101 176.907 47.3714 177.392 46.6994 177.744C46.0381 178.085 45.2541 178.256 44.3474 178.256ZM54.2404 178.192C53.4618 178.192 52.7791 178.011 52.1924 177.648C51.6058 177.285 51.1524 176.773 50.8324 176.112C50.5124 175.44 50.3524 174.656 50.3524 173.76C50.3524 172.853 50.5124 172.069 50.8324 171.408C51.1524 170.747 51.6058 170.235 52.1924 169.872C52.7791 169.509 53.4618 169.328 54.2404 169.328C55.0191 169.328 55.6964 169.509 56.2724 169.872C56.8591 170.235 57.3124 170.747 57.6324 171.408C57.9524 172.069 58.1124 172.853 58.1124 173.76C58.1124 174.656 57.9524 175.44 57.6324 176.112C57.3124 176.773 56.8591 177.285 56.2724 177.648C55.6964 178.011 55.0191 178.192 54.2404 178.192ZM54.2404 176.912C55.0191 176.912 55.6218 176.635 56.0484 176.08C56.4858 175.515 56.7044 174.741 56.7044 173.76C56.7044 172.779 56.4858 172.011 56.0484 171.456C55.6218 170.891 55.0191 170.608 54.2404 170.608C53.4618 170.608 52.8538 170.891 52.4164 171.456C51.9791 172.011 51.7604 172.779 51.7604 173.76C51.7604 174.741 51.9791 175.515 52.4164 176.08C52.8538 176.635 53.4618 176.912 54.2404 176.912ZM59.9441 178V169.52H61.1761L61.2241 171.68L61.0641 171.536C61.1707 171.035 61.3574 170.624 61.6241 170.304C61.8907 169.973 62.2107 169.728 62.5841 169.568C62.9681 169.408 63.3787 169.328 63.8161 169.328C64.4667 169.328 65.0001 169.472 65.4161 169.76C65.8427 170.048 66.1574 170.437 66.3601 170.928C66.5734 171.408 66.6801 171.947 66.6801 172.544V178H65.3361V172.928C65.3361 172.405 65.2721 171.968 65.1441 171.616C65.0267 171.253 64.8347 170.981 64.5681 170.8C64.3014 170.608 63.9547 170.512 63.5281 170.512C62.8774 170.512 62.3387 170.72 61.9121 171.136C61.4961 171.541 61.2881 172.139 61.2881 172.928V178H59.9441ZM72.2694 180.592C71.6614 180.592 71.1121 180.491 70.6214 180.288C70.1308 180.085 69.7201 179.797 69.3894 179.424C69.0588 179.051 68.8348 178.619 68.7174 178.128L70.1254 178.032C70.2534 178.427 70.4774 178.736 70.7974 178.96C71.1281 179.195 71.6188 179.312 72.2694 179.312C73.0374 179.312 73.6241 179.157 74.0294 178.848C74.4454 178.539 74.6534 178.075 74.6534 177.456V176.08C74.4508 176.528 74.1254 176.885 73.6774 177.152C73.2294 177.419 72.7281 177.552 72.1734 177.552C71.4588 177.552 70.8188 177.376 70.2534 177.024C69.6988 176.672 69.2614 176.187 68.9414 175.568C68.6321 174.949 68.4774 174.24 68.4774 173.44C68.4774 172.629 68.6321 171.92 68.9414 171.312C69.2508 170.693 69.6774 170.208 70.2214 169.856C70.7761 169.504 71.4054 169.328 72.1094 169.328C72.7068 169.328 73.2401 169.467 73.7094 169.744C74.1894 170.021 74.5254 170.395 74.7174 170.864V169.52H75.9974V177.424C75.9974 178.085 75.8481 178.651 75.5494 179.12C75.2508 179.6 74.8241 179.963 74.2694 180.208C73.7148 180.464 73.0481 180.592 72.2694 180.592ZM72.2374 176.272C72.9628 176.272 73.5441 176.021 73.9814 175.52C74.4188 175.008 74.6428 174.315 74.6534 173.44C74.6641 172.853 74.5681 172.352 74.3654 171.936C74.1734 171.509 73.8908 171.184 73.5174 170.96C73.1548 170.725 72.7281 170.608 72.2374 170.608C71.4908 170.608 70.9094 170.864 70.4934 171.376C70.0881 171.877 69.8854 172.565 69.8854 173.44C69.8854 174.315 70.0934 175.008 70.5094 175.52C70.9361 176.021 71.5121 176.272 72.2374 176.272ZM78.5534 178V169.52H79.7374L79.8014 171.664L79.6734 171.616C79.7801 170.891 80.0094 170.363 80.3614 170.032C80.7241 169.691 81.2041 169.52 81.8014 169.52H82.6334V170.8H81.8174C81.3908 170.8 81.0334 170.88 80.7454 171.04C80.4681 171.189 80.2548 171.419 80.1054 171.728C79.9668 172.027 79.8974 172.411 79.8974 172.88V178H78.5534ZM86.2633 178.192C85.3886 178.192 84.69 177.989 84.1673 177.584C83.6553 177.179 83.3993 176.613 83.3993 175.888C83.3993 175.163 83.6126 174.592 84.0393 174.176C84.466 173.76 85.1433 173.467 86.0713 173.296L89.0793 172.736C89.0793 172.021 88.9086 171.488 88.5673 171.136C88.2366 170.784 87.7353 170.608 87.0633 170.608C86.4766 170.608 86.0126 170.741 85.6713 171.008C85.33 171.264 85.0953 171.637 84.9673 172.128L83.5433 172.016C83.7033 171.216 84.0873 170.571 84.6953 170.08C85.314 169.579 86.1033 169.328 87.0633 169.328C88.1513 169.328 88.9833 169.637 89.5593 170.256C90.1353 170.864 90.4233 171.707 90.4233 172.784V176.288C90.4233 176.48 90.4553 176.619 90.5193 176.704C90.594 176.779 90.7113 176.816 90.8713 176.816H91.2073V178C91.1646 178.011 91.0953 178.016 90.9993 178.016C90.9033 178.027 90.802 178.032 90.6953 178.032C90.3113 178.032 89.9966 177.973 89.7513 177.856C89.5166 177.728 89.346 177.536 89.2393 177.28C89.1326 177.013 89.0793 176.667 89.0793 176.24L89.2393 176.272C89.1646 176.635 88.9833 176.965 88.6953 177.264C88.4073 177.552 88.05 177.781 87.6233 177.952C87.1966 178.112 86.7433 178.192 86.2633 178.192ZM86.3913 177.008C86.9566 177.008 87.4366 176.901 87.8313 176.688C88.2366 176.464 88.546 176.165 88.7593 175.792C88.9726 175.408 89.0793 174.981 89.0793 174.512V173.904L86.3273 174.416C85.7513 174.523 85.3513 174.688 85.1273 174.912C84.914 175.125 84.8073 175.408 84.8073 175.76C84.8073 176.155 84.946 176.464 85.2233 176.688C85.5113 176.901 85.9006 177.008 86.3913 177.008ZM95.4074 178C94.6394 178 94.0688 177.824 93.6954 177.472C93.3328 177.12 93.1514 176.571 93.1514 175.824V167.536H94.4954V175.792C94.4954 176.176 94.5808 176.443 94.7514 176.592C94.9221 176.741 95.1834 176.816 95.5354 176.816H96.7514V178H95.4074ZM91.9034 170.704V169.52H96.7514V170.704H91.9034ZM101.407 178.192C100.65 178.192 100.004 178.069 99.4711 177.824C98.9484 177.579 98.5377 177.243 98.2391 176.816C97.9511 176.379 97.7857 175.883 97.7431 175.328L99.1511 175.232C99.2364 175.744 99.4551 176.155 99.8071 176.464C100.159 176.763 100.692 176.912 101.407 176.912C101.983 176.912 102.442 176.821 102.783 176.64C103.135 176.448 103.311 176.144 103.311 175.728C103.311 175.504 103.258 175.317 103.151 175.168C103.044 175.019 102.836 174.891 102.527 174.784C102.218 174.667 101.759 174.555 101.151 174.448C100.34 174.299 99.7004 174.117 99.2311 173.904C98.7724 173.68 98.4417 173.408 98.2391 173.088C98.0471 172.757 97.9511 172.368 97.9511 171.92C97.9511 171.163 98.2284 170.544 98.7831 170.064C99.3377 169.573 100.127 169.328 101.151 169.328C101.844 169.328 102.426 169.456 102.895 169.712C103.375 169.957 103.748 170.288 104.015 170.704C104.292 171.109 104.474 171.557 104.559 172.048L103.151 172.144C103.087 171.845 102.97 171.584 102.799 171.36C102.628 171.125 102.404 170.944 102.127 170.816C101.85 170.677 101.519 170.608 101.135 170.608C100.527 170.608 100.079 170.725 99.7911 170.96C99.5031 171.195 99.3591 171.493 99.3591 171.856C99.3591 172.133 99.4231 172.363 99.5511 172.544C99.6897 172.715 99.9084 172.859 100.207 172.976C100.506 173.083 100.906 173.179 101.407 173.264C102.271 173.413 102.943 173.595 103.423 173.808C103.903 174.021 104.239 174.283 104.431 174.592C104.623 174.901 104.719 175.28 104.719 175.728C104.719 176.251 104.57 176.699 104.271 177.072C103.983 177.435 103.588 177.712 103.087 177.904C102.596 178.096 102.036 178.192 101.407 178.192ZM106.758 174.72C106.726 174.347 106.688 173.899 106.646 173.376C106.614 172.853 106.582 172.32 106.55 171.776C106.518 171.232 106.502 170.747 106.502 170.32V166.64H107.878V170.32C107.878 170.747 107.862 171.232 107.83 171.776C107.808 172.32 107.776 172.853 107.734 173.376C107.702 173.899 107.67 174.347 107.638 174.72H106.758ZM106.23 178V176.192H108.038V178H106.23ZM116.756 178V173.36L112.74 166.64H114.372L117.444 171.952L120.516 166.64H122.148L118.132 173.36V178H116.756ZM125.522 178.192C124.743 178.192 124.06 178.011 123.474 177.648C122.887 177.285 122.434 176.773 122.114 176.112C121.794 175.44 121.634 174.656 121.634 173.76C121.634 172.853 121.794 172.069 122.114 171.408C122.434 170.747 122.887 170.235 123.474 169.872C124.06 169.509 124.743 169.328 125.522 169.328C126.3 169.328 126.978 169.509 127.554 169.872C128.14 170.235 128.594 170.747 128.914 171.408C129.234 172.069 129.394 172.853 129.394 173.76C129.394 174.656 129.234 175.44 128.914 176.112C128.594 176.773 128.14 177.285 127.554 177.648C126.978 178.011 126.3 178.192 125.522 178.192ZM125.522 176.912C126.3 176.912 126.903 176.635 127.33 176.08C127.767 175.515 127.986 174.741 127.986 173.76C127.986 172.779 127.767 172.011 127.33 171.456C126.903 170.891 126.3 170.608 125.522 170.608C124.743 170.608 124.135 170.891 123.698 171.456C123.26 172.011 123.042 172.779 123.042 173.76C123.042 174.741 123.26 175.515 123.698 176.08C124.135 176.635 124.743 176.912 125.522 176.912ZM134.009 178.192C133.167 178.192 132.489 177.909 131.977 177.344C131.476 176.768 131.225 175.979 131.225 174.976V169.52H132.569V174.608C132.569 175.429 132.713 176.037 133.001 176.432C133.3 176.816 133.753 177.008 134.361 177.008C135.033 177.008 135.561 176.795 135.945 176.368C136.329 175.931 136.521 175.333 136.521 174.576V169.52H137.865V178H136.585V175.904L136.793 176.016C136.623 176.709 136.297 177.248 135.817 177.632C135.337 178.005 134.735 178.192 134.009 178.192ZM144.428 178V169.52H145.66L145.708 171.68L145.548 171.536C145.655 171.035 145.842 170.624 146.108 170.304C146.375 169.973 146.695 169.728 147.068 169.568C147.452 169.408 147.863 169.328 148.3 169.328C148.951 169.328 149.484 169.472 149.9 169.76C150.327 170.048 150.642 170.437 150.844 170.928C151.058 171.408 151.164 171.947 151.164 172.544V178H149.82V172.928C149.82 172.405 149.756 171.968 149.628 171.616C149.511 171.253 149.319 170.981 149.052 170.8C148.786 170.608 148.439 170.512 148.012 170.512C147.362 170.512 146.823 170.72 146.396 171.136C145.98 171.541 145.772 172.139 145.772 172.928V178H144.428ZM156.85 178.192C156.071 178.192 155.388 178.011 154.802 177.648C154.215 177.285 153.762 176.773 153.442 176.112C153.122 175.44 152.962 174.656 152.962 173.76C152.962 172.853 153.122 172.069 153.442 171.408C153.762 170.747 154.215 170.235 154.802 169.872C155.388 169.509 156.071 169.328 156.85 169.328C157.628 169.328 158.306 169.509 158.882 169.872C159.468 170.235 159.922 170.747 160.242 171.408C160.562 172.069 160.722 172.853 160.722 173.76C160.722 174.656 160.562 175.44 160.242 176.112C159.922 176.773 159.468 177.285 158.882 177.648C158.306 178.011 157.628 178.192 156.85 178.192ZM156.85 176.912C157.628 176.912 158.231 176.635 158.658 176.08C159.095 175.515 159.314 174.741 159.314 173.76C159.314 172.779 159.095 172.011 158.658 171.456C158.231 170.891 157.628 170.608 156.85 170.608C156.071 170.608 155.463 170.891 155.026 171.456C154.588 172.011 154.37 172.779 154.37 173.76C154.37 174.741 154.588 175.515 155.026 176.08C155.463 176.635 156.071 176.912 156.85 176.912ZM163.999 178L161.375 169.52H162.847L164.831 176.592L166.847 169.52H168.287L170.303 176.592L172.303 169.52H173.775L171.151 178H169.455L167.567 171.552L165.679 178H163.999ZM179.413 178V166.64H180.757V171.392L180.597 171.36C180.703 170.891 180.885 170.507 181.141 170.208C181.397 169.909 181.711 169.691 182.085 169.552C182.458 169.403 182.869 169.328 183.317 169.328C183.925 169.328 184.437 169.467 184.853 169.744C185.279 170.011 185.599 170.389 185.813 170.88C186.037 171.36 186.149 171.915 186.149 172.544V178H184.805V172.928C184.805 172.107 184.655 171.499 184.357 171.104C184.069 170.709 183.626 170.512 183.029 170.512C182.346 170.512 181.797 170.72 181.381 171.136C180.965 171.552 180.757 172.155 180.757 172.944V178H179.413ZM190.841 178.192C189.967 178.192 189.268 177.989 188.745 177.584C188.233 177.179 187.977 176.613 187.977 175.888C187.977 175.163 188.191 174.592 188.617 174.176C189.044 173.76 189.721 173.467 190.649 173.296L193.657 172.736C193.657 172.021 193.487 171.488 193.145 171.136C192.815 170.784 192.313 170.608 191.641 170.608C191.055 170.608 190.591 170.741 190.249 171.008C189.908 171.264 189.673 171.637 189.545 172.128L188.121 172.016C188.281 171.216 188.665 170.571 189.273 170.08C189.892 169.579 190.681 169.328 191.641 169.328C192.729 169.328 193.561 169.637 194.137 170.256C194.713 170.864 195.001 171.707 195.001 172.784V176.288C195.001 176.48 195.033 176.619 195.097 176.704C195.172 176.779 195.289 176.816 195.449 176.816H195.785V178C195.743 178.011 195.673 178.016 195.577 178.016C195.481 178.027 195.38 178.032 195.273 178.032C194.889 178.032 194.575 177.973 194.329 177.856C194.095 177.728 193.924 177.536 193.817 177.28C193.711 177.013 193.657 176.667 193.657 176.24L193.817 176.272C193.743 176.635 193.561 176.965 193.273 177.264C192.985 177.552 192.628 177.781 192.201 177.952C191.775 178.112 191.321 178.192 190.841 178.192ZM190.969 177.008C191.535 177.008 192.015 176.901 192.409 176.688C192.815 176.464 193.124 176.165 193.337 175.792C193.551 175.408 193.657 174.981 193.657 174.512V173.904L190.905 174.416C190.329 174.523 189.929 174.688 189.705 174.912C189.492 175.125 189.385 175.408 189.385 175.76C189.385 176.155 189.524 176.464 189.801 176.688C190.089 176.901 190.479 177.008 190.969 177.008ZM199.135 178L196.047 169.52H197.519L199.983 176.624L202.447 169.52H203.919L200.831 178H199.135ZM208.444 178.192C207.644 178.192 206.95 178.011 206.364 177.648C205.788 177.285 205.34 176.773 205.02 176.112C204.71 175.44 204.556 174.656 204.556 173.76C204.556 172.864 204.71 172.085 205.02 171.424C205.34 170.763 205.782 170.251 206.348 169.888C206.924 169.515 207.601 169.328 208.38 169.328C209.116 169.328 209.766 169.504 210.332 169.856C210.897 170.197 211.334 170.699 211.644 171.36C211.964 172.021 212.124 172.827 212.124 173.776V174.176H205.964C206.017 175.083 206.257 175.765 206.684 176.224C207.121 176.683 207.708 176.912 208.444 176.912C208.998 176.912 209.452 176.784 209.804 176.528C210.166 176.261 210.417 175.915 210.556 175.488L211.996 175.6C211.772 176.357 211.345 176.981 210.716 177.472C210.097 177.952 209.34 178.192 208.444 178.192ZM205.964 172.992H210.652C210.588 172.171 210.348 171.568 209.932 171.184C209.526 170.8 209.009 170.608 208.38 170.608C207.729 170.608 207.19 170.811 206.764 171.216C206.348 171.611 206.081 172.203 205.964 172.992ZM218.932 178V168.752C218.932 168.123 219.114 167.616 219.476 167.232C219.839 166.837 220.404 166.64 221.172 166.64H222.516V167.824H221.268C220.938 167.824 220.687 167.915 220.516 168.096C220.356 168.277 220.276 168.528 220.276 168.848V178H218.932ZM217.78 170.704V169.52H222.404V170.704H217.78ZM227.197 178.192C226.354 178.192 225.677 177.909 225.165 177.344C224.663 176.768 224.413 175.979 224.413 174.976V169.52H225.757V174.608C225.757 175.429 225.901 176.037 226.189 176.432C226.487 176.816 226.941 177.008 227.549 177.008C228.221 177.008 228.749 176.795 229.133 176.368C229.517 175.931 229.709 175.333 229.709 174.576V169.52H231.053V178H229.773V175.904L229.981 176.016C229.81 176.709 229.485 177.248 229.005 177.632C228.525 178.005 227.922 178.192 227.197 178.192ZM235.28 178C234.789 178 234.389 177.872 234.08 177.616C233.771 177.36 233.616 176.955 233.616 176.4V166.64H234.96V176.288C234.96 176.459 235.003 176.592 235.088 176.688C235.184 176.773 235.317 176.816 235.488 176.816H236.224V178H235.28ZM239.389 178C238.899 178 238.499 177.872 238.189 177.616C237.88 177.36 237.725 176.955 237.725 176.4V166.64H239.069V176.288C239.069 176.459 239.112 176.592 239.197 176.688C239.293 176.773 239.427 176.816 239.597 176.816H240.333V178H239.389ZM248.279 178.192C247.404 178.192 246.706 177.989 246.183 177.584C245.671 177.179 245.415 176.613 245.415 175.888C245.415 175.163 245.628 174.592 246.055 174.176C246.482 173.76 247.159 173.467 248.087 173.296L251.095 172.736C251.095 172.021 250.924 171.488 250.583 171.136C250.252 170.784 249.751 170.608 249.079 170.608C248.492 170.608 248.028 170.741 247.687 171.008C247.346 171.264 247.111 171.637 246.983 172.128L245.559 172.016C245.719 171.216 246.103 170.571 246.711 170.08C247.33 169.579 248.119 169.328 249.079 169.328C250.167 169.328 250.999 169.637 251.575 170.256C252.151 170.864 252.439 171.707 252.439 172.784V176.288C252.439 176.48 252.471 176.619 252.535 176.704C252.61 176.779 252.727 176.816 252.887 176.816H253.223V178C253.18 178.011 253.111 178.016 253.015 178.016C252.919 178.027 252.818 178.032 252.711 178.032C252.327 178.032 252.012 177.973 251.767 177.856C251.532 177.728 251.362 177.536 251.255 177.28C251.148 177.013 251.095 176.667 251.095 176.24L251.255 176.272C251.18 176.635 250.999 176.965 250.711 177.264C250.423 177.552 250.066 177.781 249.639 177.952C249.212 178.112 248.759 178.192 248.279 178.192ZM248.407 177.008C248.972 177.008 249.452 176.901 249.847 176.688C250.252 176.464 250.562 176.165 250.775 175.792C250.988 175.408 251.095 174.981 251.095 174.512V173.904L248.343 174.416C247.767 174.523 247.367 174.688 247.143 174.912C246.93 175.125 246.823 175.408 246.823 175.76C246.823 176.155 246.962 176.464 247.239 176.688C247.527 176.901 247.916 177.008 248.407 177.008ZM258.022 178.192C257.232 178.192 256.544 178.011 255.958 177.648C255.382 177.285 254.934 176.773 254.614 176.112C254.294 175.44 254.134 174.656 254.134 173.76C254.134 172.864 254.294 172.085 254.614 171.424C254.934 170.763 255.382 170.251 255.958 169.888C256.544 169.515 257.232 169.328 258.022 169.328C258.672 169.328 259.248 169.445 259.75 169.68C260.262 169.904 260.678 170.235 260.998 170.672C261.318 171.109 261.526 171.643 261.622 172.272L260.214 172.368C260.118 171.803 259.872 171.371 259.478 171.072C259.083 170.763 258.598 170.608 258.022 170.608C257.243 170.608 256.635 170.891 256.198 171.456C255.76 172.011 255.542 172.779 255.542 173.76C255.542 174.741 255.76 175.515 256.198 176.08C256.635 176.635 257.243 176.912 258.022 176.912C258.598 176.912 259.083 176.752 259.478 176.432C259.872 176.112 260.118 175.632 260.214 174.992L261.622 175.088C261.526 175.717 261.318 176.267 260.998 176.736C260.678 177.195 260.262 177.552 259.75 177.808C259.248 178.064 258.672 178.192 258.022 178.192ZM266.6 178.192C265.81 178.192 265.122 178.011 264.536 177.648C263.96 177.285 263.512 176.773 263.192 176.112C262.872 175.44 262.712 174.656 262.712 173.76C262.712 172.864 262.872 172.085 263.192 171.424C263.512 170.763 263.96 170.251 264.536 169.888C265.122 169.515 265.81 169.328 266.6 169.328C267.25 169.328 267.826 169.445 268.328 169.68C268.84 169.904 269.256 170.235 269.576 170.672C269.896 171.109 270.104 171.643 270.2 172.272L268.792 172.368C268.696 171.803 268.45 171.371 268.056 171.072C267.661 170.763 267.176 170.608 266.6 170.608C265.821 170.608 265.213 170.891 264.776 171.456C264.338 172.011 264.12 172.779 264.12 173.76C264.12 174.741 264.338 175.515 264.776 176.08C265.213 176.635 265.821 176.912 266.6 176.912C267.176 176.912 267.661 176.752 268.056 176.432C268.45 176.112 268.696 175.632 268.792 174.992L270.2 175.088C270.104 175.717 269.896 176.267 269.576 176.736C269.256 177.195 268.84 177.552 268.328 177.808C267.826 178.064 267.25 178.192 266.6 178.192ZM275.178 178.192C274.378 178.192 273.685 178.011 273.098 177.648C272.522 177.285 272.074 176.773 271.754 176.112C271.445 175.44 271.29 174.656 271.29 173.76C271.29 172.864 271.445 172.085 271.754 171.424C272.074 170.763 272.517 170.251 273.082 169.888C273.658 169.515 274.335 169.328 275.114 169.328C275.85 169.328 276.501 169.504 277.066 169.856C277.631 170.197 278.069 170.699 278.378 171.36C278.698 172.021 278.858 172.827 278.858 173.776V174.176H272.698C272.751 175.083 272.991 175.765 273.418 176.224C273.855 176.683 274.442 176.912 275.178 176.912C275.733 176.912 276.186 176.784 276.538 176.528C276.901 176.261 277.151 175.915 277.29 175.488L278.73 175.6C278.506 176.357 278.079 176.981 277.45 177.472C276.831 177.952 276.074 178.192 275.178 178.192ZM272.698 172.992H277.386C277.322 172.171 277.082 171.568 276.666 171.184C276.261 170.8 275.743 170.608 275.114 170.608C274.463 170.608 273.925 170.811 273.498 171.216C273.082 171.611 272.815 172.203 272.698 172.992ZM283.766 178.192C283.009 178.192 282.364 178.069 281.83 177.824C281.308 177.579 280.897 177.243 280.598 176.816C280.31 176.379 280.145 175.883 280.102 175.328L281.51 175.232C281.596 175.744 281.814 176.155 282.166 176.464C282.518 176.763 283.052 176.912 283.766 176.912C284.342 176.912 284.801 176.821 285.142 176.64C285.494 176.448 285.67 176.144 285.67 175.728C285.67 175.504 285.617 175.317 285.51 175.168C285.404 175.019 285.196 174.891 284.886 174.784C284.577 174.667 284.118 174.555 283.51 174.448C282.7 174.299 282.06 174.117 281.59 173.904C281.132 173.68 280.801 173.408 280.598 173.088C280.406 172.757 280.31 172.368 280.31 171.92C280.31 171.163 280.588 170.544 281.142 170.064C281.697 169.573 282.486 169.328 283.51 169.328C284.204 169.328 284.785 169.456 285.254 169.712C285.734 169.957 286.108 170.288 286.374 170.704C286.652 171.109 286.833 171.557 286.918 172.048L285.51 172.144C285.446 171.845 285.329 171.584 285.158 171.36C284.988 171.125 284.764 170.944 284.486 170.816C284.209 170.677 283.878 170.608 283.494 170.608C282.886 170.608 282.438 170.725 282.15 170.96C281.862 171.195 281.718 171.493 281.718 171.856C281.718 172.133 281.782 172.363 281.91 172.544C282.049 172.715 282.268 172.859 282.566 172.976C282.865 173.083 283.265 173.179 283.766 173.264C284.63 173.413 285.302 173.595 285.782 173.808C286.262 174.021 286.598 174.283 286.79 174.592C286.982 174.901 287.078 175.28 287.078 175.728C287.078 176.251 286.929 176.699 286.63 177.072C286.342 177.435 285.948 177.712 285.446 177.904C284.956 178.096 284.396 178.192 283.766 178.192ZM292.001 178.192C291.243 178.192 290.598 178.069 290.065 177.824C289.542 177.579 289.131 177.243 288.833 176.816C288.545 176.379 288.379 175.883 288.337 175.328L289.745 175.232C289.83 175.744 290.049 176.155 290.401 176.464C290.753 176.763 291.286 176.912 292.001 176.912C292.577 176.912 293.035 176.821 293.377 176.64C293.729 176.448 293.905 176.144 293.905 175.728C293.905 175.504 293.851 175.317 293.745 175.168C293.638 175.019 293.43 174.891 293.121 174.784C292.811 174.667 292.353 174.555 291.745 174.448C290.934 174.299 290.294 174.117 289.825 173.904C289.366 173.68 289.035 173.408 288.833 173.088C288.641 172.757 288.545 172.368 288.545 171.92C288.545 171.163 288.822 170.544 289.377 170.064C289.931 169.573 290.721 169.328 291.745 169.328C292.438 169.328 293.019 169.456 293.489 169.712C293.969 169.957 294.342 170.288 294.609 170.704C294.886 171.109 295.067 171.557 295.153 172.048L293.745 172.144C293.681 171.845 293.563 171.584 293.393 171.36C293.222 171.125 292.998 170.944 292.721 170.816C292.443 170.677 292.113 170.608 291.729 170.608C291.121 170.608 290.673 170.725 290.385 170.96C290.097 171.195 289.953 171.493 289.953 171.856C289.953 172.133 290.017 172.363 290.145 172.544C290.283 172.715 290.502 172.859 290.801 172.976C291.099 173.083 291.499 173.179 292.001 173.264C292.865 173.413 293.537 173.595 294.017 173.808C294.497 174.021 294.833 174.283 295.025 174.592C295.217 174.901 295.313 175.28 295.313 175.728C295.313 176.251 295.163 176.699 294.865 177.072C294.577 177.435 294.182 177.712 293.681 177.904C293.19 178.096 292.63 178.192 292.001 178.192ZM304.407 178C303.639 178 303.069 177.824 302.695 177.472C302.333 177.12 302.151 176.571 302.151 175.824V167.536H303.495V175.792C303.495 176.176 303.581 176.443 303.751 176.592C303.922 176.741 304.183 176.816 304.535 176.816H305.751V178H304.407ZM300.903 170.704V169.52H305.751V170.704H300.903ZM310.631 178.192C309.852 178.192 309.17 178.011 308.583 177.648C307.996 177.285 307.543 176.773 307.223 176.112C306.903 175.44 306.743 174.656 306.743 173.76C306.743 172.853 306.903 172.069 307.223 171.408C307.543 170.747 307.996 170.235 308.583 169.872C309.17 169.509 309.852 169.328 310.631 169.328C311.41 169.328 312.087 169.509 312.663 169.872C313.25 170.235 313.703 170.747 314.023 171.408C314.343 172.069 314.503 172.853 314.503 173.76C314.503 174.656 314.343 175.44 314.023 176.112C313.703 176.773 313.25 177.285 312.663 177.648C312.087 178.011 311.41 178.192 310.631 178.192ZM310.631 176.912C311.41 176.912 312.012 176.635 312.439 176.08C312.876 175.515 313.095 174.741 313.095 173.76C313.095 172.779 312.876 172.011 312.439 171.456C312.012 170.891 311.41 170.608 310.631 170.608C309.852 170.608 309.244 170.891 308.807 171.456C308.37 172.011 308.151 172.779 308.151 173.76C308.151 174.741 308.37 175.515 308.807 176.08C309.244 176.635 309.852 176.912 310.631 176.912ZM320.859 180.4V179.216H321.835C322.134 179.216 322.352 179.168 322.491 179.072C322.64 178.987 322.752 178.843 322.827 178.64L323.131 177.84H322.667L319.563 169.52H321.035L323.563 176.592L325.979 169.52H327.451L324.011 179.072C323.851 179.531 323.611 179.867 323.291 180.08C322.971 180.293 322.528 180.4 321.963 180.4H320.859ZM331.975 178.192C331.196 178.192 330.513 178.011 329.927 177.648C329.34 177.285 328.887 176.773 328.567 176.112C328.247 175.44 328.087 174.656 328.087 173.76C328.087 172.853 328.247 172.069 328.567 171.408C328.887 170.747 329.34 170.235 329.927 169.872C330.513 169.509 331.196 169.328 331.975 169.328C332.753 169.328 333.431 169.509 334.007 169.872C334.593 170.235 335.047 170.747 335.367 171.408C335.687 172.069 335.847 172.853 335.847 173.76C335.847 174.656 335.687 175.44 335.367 176.112C335.047 176.773 334.593 177.285 334.007 177.648C333.431 178.011 332.753 178.192 331.975 178.192ZM331.975 176.912C332.753 176.912 333.356 176.635 333.783 176.08C334.22 175.515 334.439 174.741 334.439 173.76C334.439 172.779 334.22 172.011 333.783 171.456C333.356 170.891 332.753 170.608 331.975 170.608C331.196 170.608 330.588 170.891 330.151 171.456C329.713 172.011 329.495 172.779 329.495 173.76C329.495 174.741 329.713 175.515 330.151 176.08C330.588 176.635 331.196 176.912 331.975 176.912ZM340.462 178.192C339.62 178.192 338.942 177.909 338.43 177.344C337.929 176.768 337.678 175.979 337.678 174.976V169.52H339.022V174.608C339.022 175.429 339.166 176.037 339.454 176.432C339.753 176.816 340.206 177.008 340.814 177.008C341.486 177.008 342.014 176.795 342.398 176.368C342.782 175.931 342.974 175.333 342.974 174.576V169.52H344.318V178H343.038V175.904L343.246 176.016C343.076 176.709 342.75 177.248 342.27 177.632C341.79 178.005 341.188 178.192 340.462 178.192ZM346.882 178V169.52H348.066L348.13 171.664L348.002 171.616C348.108 170.891 348.338 170.363 348.69 170.032C349.052 169.691 349.532 169.52 350.13 169.52H350.962V170.8H350.146C349.719 170.8 349.362 170.88 349.074 171.04C348.796 171.189 348.583 171.419 348.434 171.728C348.295 172.027 348.226 172.411 348.226 172.88V178H346.882ZM359.952 178.192C359.216 178.192 358.576 178.011 358.032 177.648C357.499 177.285 357.088 176.773 356.8 176.112C356.512 175.451 356.368 174.667 356.368 173.76C356.368 172.853 356.512 172.069 356.8 171.408C357.088 170.747 357.499 170.235 358.032 169.872C358.576 169.509 359.216 169.328 359.952 169.328C360.517 169.328 361.035 169.451 361.504 169.696C361.973 169.931 362.325 170.267 362.56 170.704V166.64H363.904V178H362.688L362.64 176.72C362.405 177.179 362.048 177.541 361.568 177.808C361.088 178.064 360.549 178.192 359.952 178.192ZM360.224 176.912C360.725 176.912 361.147 176.784 361.488 176.528C361.84 176.272 362.107 175.909 362.288 175.44C362.469 174.96 362.56 174.4 362.56 173.76C362.56 173.099 362.469 172.533 362.288 172.064C362.107 171.595 361.84 171.237 361.488 170.992C361.147 170.736 360.725 170.608 360.224 170.608C359.477 170.608 358.88 170.891 358.432 171.456C357.995 172.011 357.776 172.779 357.776 173.76C357.776 174.731 357.995 175.499 358.432 176.064C358.88 176.629 359.477 176.912 360.224 176.912ZM368.591 178.192C367.717 178.192 367.018 177.989 366.495 177.584C365.983 177.179 365.727 176.613 365.727 175.888C365.727 175.163 365.941 174.592 366.367 174.176C366.794 173.76 367.471 173.467 368.399 173.296L371.407 172.736C371.407 172.021 371.237 171.488 370.895 171.136C370.565 170.784 370.063 170.608 369.391 170.608C368.805 170.608 368.341 170.741 367.999 171.008C367.658 171.264 367.423 171.637 367.295 172.128L365.871 172.016C366.031 171.216 366.415 170.571 367.023 170.08C367.642 169.579 368.431 169.328 369.391 169.328C370.479 169.328 371.311 169.637 371.887 170.256C372.463 170.864 372.751 171.707 372.751 172.784V176.288C372.751 176.48 372.783 176.619 372.847 176.704C372.922 176.779 373.039 176.816 373.199 176.816H373.535V178C373.493 178.011 373.423 178.016 373.327 178.016C373.231 178.027 373.13 178.032 373.023 178.032C372.639 178.032 372.325 177.973 372.079 177.856C371.845 177.728 371.674 177.536 371.567 177.28C371.461 177.013 371.407 176.667 371.407 176.24L371.567 176.272C371.493 176.635 371.311 176.965 371.023 177.264C370.735 177.552 370.378 177.781 369.951 177.952C369.525 178.112 369.071 178.192 368.591 178.192ZM368.719 177.008C369.285 177.008 369.765 176.901 370.159 176.688C370.565 176.464 370.874 176.165 371.087 175.792C371.301 175.408 371.407 174.981 371.407 174.512V173.904L368.655 174.416C368.079 174.523 367.679 174.688 367.455 174.912C367.242 175.125 367.135 175.408 367.135 175.76C367.135 176.155 367.274 176.464 367.551 176.688C367.839 176.901 368.229 177.008 368.719 177.008ZM378.11 178.192C377.353 178.192 376.708 178.069 376.174 177.824C375.652 177.579 375.241 177.243 374.942 176.816C374.654 176.379 374.489 175.883 374.446 175.328L375.854 175.232C375.94 175.744 376.158 176.155 376.51 176.464C376.862 176.763 377.396 176.912 378.11 176.912C378.686 176.912 379.145 176.821 379.486 176.64C379.838 176.448 380.014 176.144 380.014 175.728C380.014 175.504 379.961 175.317 379.854 175.168C379.748 175.019 379.54 174.891 379.23 174.784C378.921 174.667 378.462 174.555 377.854 174.448C377.044 174.299 376.404 174.117 375.934 173.904C375.476 173.68 375.145 173.408 374.942 173.088C374.75 172.757 374.654 172.368 374.654 171.92C374.654 171.163 374.932 170.544 375.486 170.064C376.041 169.573 376.83 169.328 377.854 169.328C378.548 169.328 379.129 169.456 379.598 169.712C380.078 169.957 380.452 170.288 380.718 170.704C380.996 171.109 381.177 171.557 381.262 172.048L379.854 172.144C379.79 171.845 379.673 171.584 379.502 171.36C379.332 171.125 379.108 170.944 378.83 170.816C378.553 170.677 378.222 170.608 377.838 170.608C377.23 170.608 376.782 170.725 376.494 170.96C376.206 171.195 376.062 171.493 376.062 171.856C376.062 172.133 376.126 172.363 376.254 172.544C376.393 172.715 376.612 172.859 376.91 172.976C377.209 173.083 377.609 173.179 378.11 173.264C378.974 173.413 379.646 173.595 380.126 173.808C380.606 174.021 380.942 174.283 381.134 174.592C381.326 174.901 381.422 175.28 381.422 175.728C381.422 176.251 381.273 176.699 380.974 177.072C380.686 177.435 380.292 177.712 379.79 177.904C379.3 178.096 378.74 178.192 378.11 178.192ZM383.257 178V166.64H384.601V171.392L384.441 171.36C384.547 170.891 384.729 170.507 384.985 170.208C385.241 169.909 385.555 169.691 385.929 169.552C386.302 169.403 386.713 169.328 387.161 169.328C387.769 169.328 388.281 169.467 388.697 169.744C389.123 170.011 389.443 170.389 389.657 170.88C389.881 171.36 389.993 171.915 389.993 172.544V178H388.649V172.928C388.649 172.107 388.499 171.499 388.201 171.104C387.913 170.709 387.47 170.512 386.873 170.512C386.19 170.512 385.641 170.72 385.225 171.136C384.809 171.552 384.601 172.155 384.601 172.944V178H383.257ZM396.285 178.192C395.699 178.192 395.176 178.064 394.717 177.808C394.259 177.541 393.907 177.179 393.661 176.72L393.613 178H392.397V166.64H393.741V170.704C393.955 170.352 394.285 170.037 394.733 169.76C395.181 169.472 395.699 169.328 396.285 169.328C397.032 169.328 397.677 169.509 398.221 169.872C398.765 170.235 399.187 170.747 399.485 171.408C399.784 172.069 399.933 172.853 399.933 173.76C399.933 174.667 399.784 175.451 399.485 176.112C399.187 176.773 398.765 177.285 398.221 177.648C397.677 178.011 397.032 178.192 396.285 178.192ZM396.205 176.912C396.92 176.912 397.485 176.629 397.901 176.064C398.317 175.499 398.525 174.731 398.525 173.76C398.525 172.779 398.317 172.011 397.901 171.456C397.485 170.891 396.931 170.608 396.237 170.608C395.715 170.608 395.267 170.736 394.893 170.992C394.52 171.237 394.232 171.595 394.029 172.064C393.837 172.533 393.741 173.099 393.741 173.76C393.741 174.4 393.837 174.96 394.029 175.44C394.232 175.909 394.515 176.272 394.877 176.528C395.251 176.784 395.693 176.912 396.205 176.912ZM405.069 178.192C404.29 178.192 403.607 178.011 403.021 177.648C402.434 177.285 401.981 176.773 401.661 176.112C401.341 175.44 401.181 174.656 401.181 173.76C401.181 172.853 401.341 172.069 401.661 171.408C401.981 170.747 402.434 170.235 403.021 169.872C403.607 169.509 404.29 169.328 405.069 169.328C405.847 169.328 406.525 169.509 407.101 169.872C407.687 170.235 408.141 170.747 408.461 171.408C408.781 172.069 408.941 172.853 408.941 173.76C408.941 174.656 408.781 175.44 408.461 176.112C408.141 176.773 407.687 177.285 407.101 177.648C406.525 178.011 405.847 178.192 405.069 178.192ZM405.069 176.912C405.847 176.912 406.45 176.635 406.877 176.08C407.314 175.515 407.533 174.741 407.533 173.76C407.533 172.779 407.314 172.011 406.877 171.456C406.45 170.891 405.847 170.608 405.069 170.608C404.29 170.608 403.682 170.891 403.245 171.456C402.807 172.011 402.589 172.779 402.589 173.76C402.589 174.741 402.807 175.515 403.245 176.08C403.682 176.635 404.29 176.912 405.069 176.912ZM413.279 178.192C412.404 178.192 411.706 177.989 411.183 177.584C410.671 177.179 410.415 176.613 410.415 175.888C410.415 175.163 410.628 174.592 411.055 174.176C411.482 173.76 412.159 173.467 413.087 173.296L416.095 172.736C416.095 172.021 415.924 171.488 415.583 171.136C415.252 170.784 414.751 170.608 414.079 170.608C413.492 170.608 413.028 170.741 412.687 171.008C412.346 171.264 412.111 171.637 411.983 172.128L410.559 172.016C410.719 171.216 411.103 170.571 411.711 170.08C412.33 169.579 413.119 169.328 414.079 169.328C415.167 169.328 415.999 169.637 416.575 170.256C417.151 170.864 417.439 171.707 417.439 172.784V176.288C417.439 176.48 417.471 176.619 417.535 176.704C417.61 176.779 417.727 176.816 417.887 176.816H418.223V178C418.18 178.011 418.111 178.016 418.015 178.016C417.919 178.027 417.818 178.032 417.711 178.032C417.327 178.032 417.012 177.973 416.767 177.856C416.532 177.728 416.362 177.536 416.255 177.28C416.148 177.013 416.095 176.667 416.095 176.24L416.255 176.272C416.18 176.635 415.999 176.965 415.711 177.264C415.423 177.552 415.066 177.781 414.639 177.952C414.212 178.112 413.759 178.192 413.279 178.192ZM413.407 177.008C413.972 177.008 414.452 176.901 414.847 176.688C415.252 176.464 415.562 176.165 415.775 175.792C415.988 175.408 416.095 174.981 416.095 174.512V173.904L413.343 174.416C412.767 174.523 412.367 174.688 412.143 174.912C411.93 175.125 411.823 175.408 411.823 175.76C411.823 176.155 411.962 176.464 412.239 176.688C412.527 176.901 412.916 177.008 413.407 177.008ZM419.741 178V169.52H420.925L420.989 171.664L420.861 171.616C420.968 170.891 421.197 170.363 421.549 170.032C421.912 169.691 422.392 169.52 422.989 169.52H423.821V170.8H423.005C422.578 170.8 422.221 170.88 421.933 171.04C421.656 171.189 421.442 171.419 421.293 171.728C421.154 172.027 421.085 172.411 421.085 172.88V178H419.741ZM428.171 178.192C427.435 178.192 426.795 178.011 426.251 177.648C425.717 177.285 425.307 176.773 425.019 176.112C424.731 175.451 424.587 174.667 424.587 173.76C424.587 172.853 424.731 172.069 425.019 171.408C425.307 170.747 425.717 170.235 426.251 169.872C426.795 169.509 427.435 169.328 428.171 169.328C428.736 169.328 429.253 169.451 429.723 169.696C430.192 169.931 430.544 170.267 430.779 170.704V166.64H432.123V178H430.907L430.859 176.72C430.624 177.179 430.267 177.541 429.787 177.808C429.307 178.064 428.768 178.192 428.171 178.192ZM428.443 176.912C428.944 176.912 429.365 176.784 429.707 176.528C430.059 176.272 430.325 175.909 430.507 175.44C430.688 174.96 430.779 174.4 430.779 173.76C430.779 173.099 430.688 172.533 430.507 172.064C430.325 171.595 430.059 171.237 429.707 170.992C429.365 170.736 428.944 170.608 428.443 170.608C427.696 170.608 427.099 170.891 426.651 171.456C426.213 172.011 425.995 172.779 425.995 173.76C425.995 174.731 426.213 175.499 426.651 176.064C427.099 176.629 427.696 176.912 428.443 176.912ZM434.102 178V176.192H435.91V178H434.102ZM442.089 178V166.64H445.609C447.359 166.64 448.703 167.136 449.641 168.128C450.591 169.109 451.065 170.512 451.065 172.336C451.065 174.149 450.601 175.547 449.673 176.528C448.745 177.509 447.423 178 445.705 178H442.089ZM443.465 176.656H445.609C446.943 176.656 447.945 176.299 448.617 175.584C449.289 174.859 449.625 173.776 449.625 172.336C449.625 170.875 449.289 169.787 448.617 169.072C447.945 168.347 446.943 167.984 445.609 167.984H443.465V176.656ZM452.85 178V169.52H454.194V178H452.85ZM452.818 168.192V166.624H454.226V168.192H452.818ZM458.76 178L455.672 169.52H457.144L459.608 176.624L462.072 169.52H463.544L460.456 178H458.76ZM468.069 178.192C467.269 178.192 466.575 178.011 465.989 177.648C465.413 177.285 464.965 176.773 464.645 176.112C464.335 175.44 464.181 174.656 464.181 173.76C464.181 172.864 464.335 172.085 464.645 171.424C464.965 170.763 465.407 170.251 465.973 169.888C466.549 169.515 467.226 169.328 468.005 169.328C468.741 169.328 469.391 169.504 469.957 169.856C470.522 170.197 470.959 170.699 471.269 171.36C471.589 172.021 471.749 172.827 471.749 173.776V174.176H465.589C465.642 175.083 465.882 175.765 466.309 176.224C466.746 176.683 467.333 176.912 468.069 176.912C468.623 176.912 469.077 176.784 469.429 176.528C469.791 176.261 470.042 175.915 470.181 175.488L471.621 175.6C471.397 176.357 470.97 176.981 470.341 177.472C469.722 177.952 468.965 178.192 468.069 178.192ZM465.589 172.992H470.277C470.213 172.171 469.973 171.568 469.557 171.184C469.151 170.8 468.634 170.608 468.005 170.608C467.354 170.608 466.815 170.811 466.389 171.216C465.973 171.611 465.706 172.203 465.589 172.992ZM477.725 178V169.52H479.069V178H477.725ZM477.693 168.192V166.624H479.101V168.192H477.693ZM481.788 178V169.52H483.02L483.068 171.68L482.908 171.536C483.014 171.035 483.201 170.624 483.468 170.304C483.734 169.973 484.054 169.728 484.428 169.568C484.812 169.408 485.222 169.328 485.66 169.328C486.31 169.328 486.844 169.472 487.26 169.76C487.686 170.048 488.001 170.437 488.204 170.928C488.417 171.408 488.524 171.947 488.524 172.544V178H487.18V172.928C487.18 172.405 487.116 171.968 486.988 171.616C486.87 171.253 486.678 170.981 486.412 170.8C486.145 170.608 485.798 170.512 485.372 170.512C484.721 170.512 484.182 170.72 483.756 171.136C483.34 171.541 483.132 172.139 483.132 172.928V178H481.788ZM497.373 178.192C496.498 178.192 495.799 177.989 495.277 177.584C494.765 177.179 494.509 176.613 494.509 175.888C494.509 175.163 494.722 174.592 495.149 174.176C495.575 173.76 496.253 173.467 497.181 173.296L500.189 172.736C500.189 172.021 500.018 171.488 499.677 171.136C499.346 170.784 498.845 170.608 498.173 170.608C497.586 170.608 497.122 170.741 496.781 171.008C496.439 171.264 496.205 171.637 496.077 172.128L494.653 172.016C494.813 171.216 495.197 170.571 495.805 170.08C496.423 169.579 497.213 169.328 498.173 169.328C499.261 169.328 500.093 169.637 500.669 170.256C501.245 170.864 501.533 171.707 501.533 172.784V176.288C501.533 176.48 501.565 176.619 501.629 176.704C501.703 176.779 501.821 176.816 501.981 176.816H502.317V178C502.274 178.011 502.205 178.016 502.109 178.016C502.013 178.027 501.911 178.032 501.805 178.032C501.421 178.032 501.106 177.973 500.861 177.856C500.626 177.728 500.455 177.536 500.349 177.28C500.242 177.013 500.189 176.667 500.189 176.24L500.349 176.272C500.274 176.635 500.093 176.965 499.805 177.264C499.517 177.552 499.159 177.781 498.733 177.952C498.306 178.112 497.853 178.192 497.373 178.192ZM497.501 177.008C498.066 177.008 498.546 176.901 498.941 176.688C499.346 176.464 499.655 176.165 499.869 175.792C500.082 175.408 500.189 174.981 500.189 174.512V173.904L497.437 174.416C496.861 174.523 496.461 174.688 496.237 174.912C496.023 175.125 495.917 175.408 495.917 175.76C495.917 176.155 496.055 176.464 496.333 176.688C496.621 176.901 497.01 177.008 497.501 177.008ZM503.835 178V169.52H505.067L505.115 171.68L504.955 171.536C505.061 171.035 505.248 170.624 505.515 170.304C505.781 169.973 506.101 169.728 506.475 169.568C506.859 169.408 507.269 169.328 507.707 169.328C508.357 169.328 508.891 169.472 509.307 169.76C509.733 170.048 510.048 170.437 510.251 170.928C510.464 171.408 510.571 171.947 510.571 172.544V178H509.227V172.928C509.227 172.405 509.163 171.968 509.035 171.616C508.917 171.253 508.725 170.981 508.459 170.8C508.192 170.608 507.845 170.512 507.419 170.512C506.768 170.512 506.229 170.72 505.803 171.136C505.387 171.541 505.179 172.139 505.179 172.928V178H503.835ZM515.952 178.192C515.216 178.192 514.576 178.011 514.032 177.648C513.499 177.285 513.088 176.773 512.8 176.112C512.512 175.451 512.368 174.667 512.368 173.76C512.368 172.853 512.512 172.069 512.8 171.408C513.088 170.747 513.499 170.235 514.032 169.872C514.576 169.509 515.216 169.328 515.952 169.328C516.517 169.328 517.035 169.451 517.504 169.696C517.973 169.931 518.325 170.267 518.56 170.704V166.64H519.904V178H518.688L518.64 176.72C518.405 177.179 518.048 177.541 517.568 177.808C517.088 178.064 516.549 178.192 515.952 178.192ZM516.224 176.912C516.725 176.912 517.147 176.784 517.488 176.528C517.84 176.272 518.107 175.909 518.288 175.44C518.469 174.96 518.56 174.4 518.56 173.76C518.56 173.099 518.469 172.533 518.288 172.064C518.107 171.595 517.84 171.237 517.488 170.992C517.147 170.736 516.725 170.608 516.224 170.608C515.477 170.608 514.88 170.891 514.432 171.456C513.995 172.011 513.776 172.779 513.776 173.76C513.776 174.731 513.995 175.499 514.432 176.064C514.88 176.629 515.477 176.912 516.224 176.912ZM529.548 178.192C528.79 178.192 528.145 178.069 527.612 177.824C527.089 177.579 526.678 177.243 526.38 176.816C526.092 176.379 525.926 175.883 525.884 175.328L527.292 175.232C527.377 175.744 527.596 176.155 527.948 176.464C528.3 176.763 528.833 176.912 529.548 176.912C530.124 176.912 530.582 176.821 530.924 176.64C531.276 176.448 531.452 176.144 531.452 175.728C531.452 175.504 531.398 175.317 531.292 175.168C531.185 175.019 530.977 174.891 530.668 174.784C530.358 174.667 529.9 174.555 529.292 174.448C528.481 174.299 527.841 174.117 527.372 173.904C526.913 173.68 526.582 173.408 526.38 173.088C526.188 172.757 526.092 172.368 526.092 171.92C526.092 171.163 526.369 170.544 526.924 170.064C527.478 169.573 528.268 169.328 529.292 169.328C529.985 169.328 530.566 169.456 531.036 169.712C531.516 169.957 531.889 170.288 532.156 170.704C532.433 171.109 532.614 171.557 532.7 172.048L531.292 172.144C531.228 171.845 531.11 171.584 530.94 171.36C530.769 171.125 530.545 170.944 530.268 170.816C529.99 170.677 529.66 170.608 529.276 170.608C528.668 170.608 528.22 170.725 527.932 170.96C527.644 171.195 527.5 171.493 527.5 171.856C527.5 172.133 527.564 172.363 527.692 172.544C527.83 172.715 528.049 172.859 528.348 172.976C528.646 173.083 529.046 173.179 529.548 173.264C530.412 173.413 531.084 173.595 531.564 173.808C532.044 174.021 532.38 174.283 532.572 174.592C532.764 174.901 532.86 175.28 532.86 175.728C532.86 176.251 532.71 176.699 532.412 177.072C532.124 177.435 531.729 177.712 531.228 177.904C530.737 178.096 530.177 178.192 529.548 178.192ZM537.47 178C536.702 178 536.131 177.824 535.758 177.472C535.395 177.12 535.214 176.571 535.214 175.824V167.536H536.558V175.792C536.558 176.176 536.643 176.443 536.814 176.592C536.985 176.741 537.246 176.816 537.598 176.816H538.814V178H537.47ZM533.966 170.704V169.52H538.814V170.704H533.966ZM542.763 178.192C541.889 178.192 541.19 177.989 540.667 177.584C540.155 177.179 539.899 176.613 539.899 175.888C539.899 175.163 540.113 174.592 540.539 174.176C540.966 173.76 541.643 173.467 542.571 173.296L545.579 172.736C545.579 172.021 545.409 171.488 545.067 171.136C544.737 170.784 544.235 170.608 543.563 170.608C542.977 170.608 542.513 170.741 542.171 171.008C541.83 171.264 541.595 171.637 541.467 172.128L540.043 172.016C540.203 171.216 540.587 170.571 541.195 170.08C541.814 169.579 542.603 169.328 543.563 169.328C544.651 169.328 545.483 169.637 546.059 170.256C546.635 170.864 546.923 171.707 546.923 172.784V176.288C546.923 176.48 546.955 176.619 547.019 176.704C547.094 176.779 547.211 176.816 547.371 176.816H547.707V178C547.665 178.011 547.595 178.016 547.499 178.016C547.403 178.027 547.302 178.032 547.195 178.032C546.811 178.032 546.497 177.973 546.251 177.856C546.017 177.728 545.846 177.536 545.739 177.28C545.633 177.013 545.579 176.667 545.579 176.24L545.739 176.272C545.665 176.635 545.483 176.965 545.195 177.264C544.907 177.552 544.55 177.781 544.123 177.952C543.697 178.112 543.243 178.192 542.763 178.192ZM542.891 177.008C543.457 177.008 543.937 176.901 544.331 176.688C544.737 176.464 545.046 176.165 545.259 175.792C545.473 175.408 545.579 174.981 545.579 174.512V173.904L542.827 174.416C542.251 174.523 541.851 174.688 541.627 174.912C541.414 175.125 541.307 175.408 541.307 175.76C541.307 176.155 541.446 176.464 541.723 176.688C542.011 176.901 542.401 177.008 542.891 177.008ZM549.225 178V169.52H550.409L550.473 171.664L550.345 171.616C550.452 170.891 550.681 170.363 551.033 170.032C551.396 169.691 551.876 169.52 552.473 169.52H553.305V170.8H552.489C552.063 170.8 551.705 170.88 551.417 171.04C551.14 171.189 550.927 171.419 550.777 171.728C550.639 172.027 550.569 172.411 550.569 172.88V178H549.225ZM557.595 178C556.827 178 556.256 177.824 555.883 177.472C555.52 177.12 555.339 176.571 555.339 175.824V167.536H556.683V175.792C556.683 176.176 556.768 176.443 556.939 176.592C557.11 176.741 557.371 176.816 557.723 176.816H558.939V178H557.595ZM554.091 170.704V169.52H558.939V170.704H554.091ZM268.022 202.192C267.222 202.192 266.528 202.011 265.942 201.648C265.366 201.285 264.918 200.773 264.598 200.112C264.288 199.44 264.134 198.656 264.134 197.76C264.134 196.864 264.288 196.085 264.598 195.424C264.918 194.763 265.36 194.251 265.926 193.888C266.502 193.515 267.179 193.328 267.958 193.328C268.694 193.328 269.344 193.504 269.91 193.856C270.475 194.197 270.912 194.699 271.222 195.36C271.542 196.021 271.702 196.827 271.702 197.776V198.176H265.542C265.595 199.083 265.835 199.765 266.262 200.224C266.699 200.683 267.286 200.912 268.022 200.912C268.576 200.912 269.03 200.784 269.382 200.528C269.744 200.261 269.995 199.915 270.134 199.488L271.574 199.6C271.35 200.357 270.923 200.981 270.294 201.472C269.675 201.952 268.918 202.192 268.022 202.192ZM265.542 196.992H270.23C270.166 196.171 269.926 195.568 269.51 195.184C269.104 194.8 268.587 194.608 267.958 194.608C267.307 194.608 266.768 194.811 266.342 195.216C265.926 195.611 265.659 196.203 265.542 196.992ZM272.354 202L275.474 197.648L272.514 193.52H274.082L276.306 196.72L278.466 193.52H280.066L277.138 197.68L280.21 202H278.642L276.306 198.576L273.954 202H272.354ZM281.569 204.4V193.52H282.817L282.849 195.344L282.657 195.248C282.87 194.619 283.222 194.144 283.713 193.824C284.214 193.493 284.79 193.328 285.441 193.328C286.284 193.328 286.972 193.536 287.505 193.952C288.049 194.368 288.449 194.912 288.705 195.584C288.972 196.256 289.105 196.981 289.105 197.76C289.105 198.539 288.972 199.264 288.705 199.936C288.449 200.608 288.049 201.152 287.505 201.568C286.972 201.984 286.284 202.192 285.441 202.192C285.004 202.192 284.593 202.117 284.209 201.968C283.836 201.819 283.516 201.611 283.249 201.344C282.993 201.077 282.817 200.763 282.721 200.4L282.913 200.176V204.4H281.569ZM285.313 200.912C286.049 200.912 286.63 200.635 287.057 200.08C287.484 199.525 287.697 198.752 287.697 197.76C287.697 196.768 287.484 195.995 287.057 195.44C286.63 194.885 286.049 194.608 285.313 194.608C284.822 194.608 284.396 194.725 284.033 194.96C283.681 195.195 283.404 195.547 283.201 196.016C283.009 196.485 282.913 197.067 282.913 197.76C282.913 198.453 283.009 199.035 283.201 199.504C283.393 199.973 283.67 200.325 284.033 200.56C284.396 200.795 284.822 200.912 285.313 200.912ZM292.671 202C292.18 202 291.78 201.872 291.471 201.616C291.161 201.36 291.007 200.955 291.007 200.4V190.64H292.351V200.288C292.351 200.459 292.393 200.592 292.479 200.688C292.575 200.773 292.708 200.816 292.879 200.816H293.615V202H292.671ZM298.49 202.192C297.712 202.192 297.029 202.011 296.442 201.648C295.856 201.285 295.402 200.773 295.082 200.112C294.762 199.44 294.602 198.656 294.602 197.76C294.602 196.853 294.762 196.069 295.082 195.408C295.402 194.747 295.856 194.235 296.442 193.872C297.029 193.509 297.712 193.328 298.49 193.328C299.269 193.328 299.946 193.509 300.522 193.872C301.109 194.235 301.562 194.747 301.882 195.408C302.202 196.069 302.362 196.853 302.362 197.76C302.362 198.656 302.202 199.44 301.882 200.112C301.562 200.773 301.109 201.285 300.522 201.648C299.946 202.011 299.269 202.192 298.49 202.192ZM298.49 200.912C299.269 200.912 299.872 200.635 300.298 200.08C300.736 199.515 300.954 198.741 300.954 197.76C300.954 196.779 300.736 196.011 300.298 195.456C299.872 194.891 299.269 194.608 298.49 194.608C297.712 194.608 297.104 194.891 296.666 195.456C296.229 196.011 296.01 196.779 296.01 197.76C296.01 198.741 296.229 199.515 296.666 200.08C297.104 200.635 297.712 200.912 298.49 200.912ZM304.194 202V193.52H305.378L305.442 195.664L305.314 195.616C305.421 194.891 305.65 194.363 306.002 194.032C306.365 193.691 306.845 193.52 307.442 193.52H308.274V194.8H307.458C307.031 194.8 306.674 194.88 306.386 195.04C306.109 195.189 305.895 195.419 305.746 195.728C305.607 196.027 305.538 196.411 305.538 196.88V202H304.194ZM309.772 202V193.52H311.116V202H309.772ZM309.74 192.192V190.624H311.148V192.192H309.74ZM313.835 202V193.52H315.067L315.115 195.68L314.955 195.536C315.061 195.035 315.248 194.624 315.515 194.304C315.781 193.973 316.101 193.728 316.475 193.568C316.859 193.408 317.269 193.328 317.707 193.328C318.357 193.328 318.891 193.472 319.307 193.76C319.733 194.048 320.048 194.437 320.251 194.928C320.464 195.408 320.571 195.947 320.571 196.544V202H319.227V196.928C319.227 196.405 319.163 195.968 319.035 195.616C318.917 195.253 318.725 194.981 318.459 194.8C318.192 194.608 317.845 194.512 317.419 194.512C316.768 194.512 316.229 194.72 315.803 195.136C315.387 195.541 315.179 196.139 315.179 196.928V202H313.835ZM326.16 204.592C325.552 204.592 325.003 204.491 324.512 204.288C324.021 204.085 323.611 203.797 323.28 203.424C322.949 203.051 322.725 202.619 322.608 202.128L324.016 202.032C324.144 202.427 324.368 202.736 324.688 202.96C325.019 203.195 325.509 203.312 326.16 203.312C326.928 203.312 327.515 203.157 327.92 202.848C328.336 202.539 328.544 202.075 328.544 201.456V200.08C328.341 200.528 328.016 200.885 327.568 201.152C327.12 201.419 326.619 201.552 326.064 201.552C325.349 201.552 324.709 201.376 324.144 201.024C323.589 200.672 323.152 200.187 322.832 199.568C322.523 198.949 322.368 198.24 322.368 197.44C322.368 196.629 322.523 195.92 322.832 195.312C323.141 194.693 323.568 194.208 324.112 193.856C324.667 193.504 325.296 193.328 326 193.328C326.597 193.328 327.131 193.467 327.6 193.744C328.08 194.021 328.416 194.395 328.608 194.864V193.52H329.888V201.424C329.888 202.085 329.739 202.651 329.44 203.12C329.141 203.6 328.715 203.963 328.16 204.208C327.605 204.464 326.939 204.592 326.16 204.592ZM326.128 200.272C326.853 200.272 327.435 200.021 327.872 199.52C328.309 199.008 328.533 198.315 328.544 197.44C328.555 196.853 328.459 196.352 328.256 195.936C328.064 195.509 327.781 195.184 327.408 194.96C327.045 194.725 326.619 194.608 326.128 194.608C325.381 194.608 324.8 194.864 324.384 195.376C323.979 195.877 323.776 196.565 323.776 197.44C323.776 198.315 323.984 199.008 324.4 199.52C324.827 200.021 325.403 200.272 326.128 200.272ZM332.492 198.72C332.46 198.347 332.423 197.899 332.38 197.376C332.348 196.853 332.316 196.32 332.284 195.776C332.252 195.232 332.236 194.747 332.236 194.32V190.64H333.612V194.32C333.612 194.747 333.596 195.232 333.564 195.776C333.543 196.32 333.511 196.853 333.468 197.376C333.436 197.899 333.404 198.347 333.372 198.72H332.492ZM331.964 202V200.192H333.772V202H331.964Z" fill="white" fill-opacity="0.8"/>
<rect x="189" y="228" width="220" height="46" rx="23" fill="#3D66FF"/>
<path d="M226.36 256.224C225.455 256.224 224.657 256.019 223.966 255.608C223.276 255.188 222.734 254.595 222.342 253.83C221.95 253.055 221.754 252.127 221.754 251.044C221.754 249.98 221.946 249.061 222.328 248.286C222.711 247.502 223.248 246.9 223.938 246.48C224.629 246.051 225.441 245.836 226.374 245.836C227.644 245.836 228.628 246.153 229.328 246.788C230.028 247.413 230.486 248.291 230.7 249.42L228.796 249.518C228.675 248.865 228.414 248.351 228.012 247.978C227.611 247.605 227.065 247.418 226.374 247.418C225.814 247.418 225.329 247.567 224.918 247.866C224.508 248.165 224.19 248.585 223.966 249.126C223.742 249.667 223.63 250.307 223.63 251.044C223.63 251.791 223.742 252.435 223.966 252.976C224.2 253.508 224.522 253.919 224.932 254.208C225.343 254.497 225.819 254.642 226.36 254.642C227.098 254.642 227.667 254.441 228.068 254.04C228.479 253.629 228.74 253.069 228.852 252.36L230.756 252.458C230.626 253.233 230.374 253.905 230 254.474C229.627 255.034 229.132 255.468 228.516 255.776C227.91 256.075 227.191 256.224 226.36 256.224ZM235.388 256.168C234.651 256.168 234.002 256.009 233.442 255.692C232.891 255.365 232.462 254.908 232.154 254.32C231.855 253.732 231.706 253.046 231.706 252.262C231.706 251.469 231.855 250.783 232.154 250.204C232.462 249.616 232.891 249.163 233.442 248.846C234.002 248.519 234.651 248.356 235.388 248.356C236.125 248.356 236.769 248.519 237.32 248.846C237.871 249.163 238.295 249.616 238.594 250.204C238.902 250.783 239.056 251.469 239.056 252.262C239.056 253.046 238.902 253.732 238.594 254.32C238.295 254.908 237.871 255.365 237.32 255.692C236.769 256.009 236.125 256.168 235.388 256.168ZM235.388 254.712C235.967 254.712 236.41 254.497 236.718 254.068C237.035 253.639 237.194 253.037 237.194 252.262C237.194 251.497 237.035 250.899 236.718 250.47C236.41 250.031 235.967 249.812 235.388 249.812C234.809 249.812 234.361 250.031 234.044 250.47C233.727 250.899 233.568 251.497 233.568 252.262C233.568 253.037 233.727 253.639 234.044 254.068C234.361 254.497 234.809 254.712 235.388 254.712ZM240.439 256V248.524H242.063L242.133 250.624L241.923 250.54C241.998 250.017 242.152 249.597 242.385 249.28C242.618 248.963 242.903 248.729 243.239 248.58C243.575 248.431 243.944 248.356 244.345 248.356C244.896 248.356 245.358 248.477 245.731 248.72C246.114 248.963 246.403 249.299 246.599 249.728C246.795 250.148 246.893 250.638 246.893 251.198V256H245.101V251.772C245.101 251.352 245.059 250.997 244.975 250.708C244.891 250.419 244.751 250.199 244.555 250.05C244.368 249.891 244.116 249.812 243.799 249.812C243.323 249.812 242.94 249.98 242.651 250.316C242.371 250.652 242.231 251.137 242.231 251.772V256H240.439ZM251.324 256C250.577 256 250.026 255.827 249.672 255.482C249.326 255.137 249.154 254.595 249.154 253.858V246.774H250.946V253.69C250.946 254.035 251.02 254.278 251.17 254.418C251.319 254.549 251.552 254.614 251.87 254.614H252.92V256H251.324ZM247.978 249.91V248.524H252.92V249.91H247.978ZM254.234 256V248.524H256.026V256H254.234ZM254.206 247.53V245.934H256.068V247.53H254.206ZM258.103 256V248.524H259.727L259.797 250.624L259.587 250.54C259.662 250.017 259.816 249.597 260.049 249.28C260.282 248.963 260.567 248.729 260.903 248.58C261.239 248.431 261.608 248.356 262.009 248.356C262.56 248.356 263.022 248.477 263.395 248.72C263.778 248.963 264.067 249.299 264.263 249.728C264.459 250.148 264.557 250.638 264.557 251.198V256H262.765V251.772C262.765 251.352 262.723 250.997 262.639 250.708C262.555 250.419 262.415 250.199 262.219 250.05C262.032 249.891 261.78 249.812 261.463 249.812C260.987 249.812 260.604 249.98 260.315 250.316C260.035 250.652 259.895 251.137 259.895 251.772V256H258.103ZM268.798 256.168C268.042 256.168 267.44 255.921 266.992 255.426C266.553 254.922 266.334 254.227 266.334 253.34V248.524H268.126V252.892C268.126 253.517 268.228 253.979 268.434 254.278C268.648 254.567 268.97 254.712 269.4 254.712C269.885 254.712 270.258 254.553 270.52 254.236C270.79 253.909 270.926 253.438 270.926 252.822V248.524H272.718V256H271.08L271.038 253.942L271.262 254.012C271.15 254.721 270.884 255.258 270.464 255.622C270.044 255.986 269.488 256.168 268.798 256.168ZM277.784 256.168C277.038 256.168 276.389 256.009 275.838 255.692C275.288 255.365 274.863 254.908 274.564 254.32C274.266 253.732 274.116 253.046 274.116 252.262C274.116 251.478 274.266 250.797 274.564 250.218C274.863 249.63 275.283 249.173 275.824 248.846C276.375 248.519 277.014 248.356 277.742 248.356C278.452 248.356 279.072 248.515 279.604 248.832C280.146 249.149 280.561 249.607 280.85 250.204C281.14 250.801 281.284 251.52 281.284 252.36V252.766H275.978C276.016 253.419 276.193 253.914 276.51 254.25C276.837 254.577 277.266 254.74 277.798 254.74C278.2 254.74 278.531 254.651 278.792 254.474C279.063 254.287 279.25 254.031 279.352 253.704L281.186 253.816C280.981 254.544 280.575 255.118 279.968 255.538C279.371 255.958 278.643 256.168 277.784 256.168ZM275.978 251.562H279.436C279.399 250.955 279.226 250.507 278.918 250.218C278.61 249.919 278.218 249.77 277.742 249.77C277.266 249.77 276.87 249.924 276.552 250.232C276.244 250.54 276.053 250.983 275.978 251.562ZM288.328 256V247.642H285.304V246.06H293.158V247.642H290.148V256H288.328ZM296.433 256.168C295.696 256.168 295.047 256.009 294.487 255.692C293.936 255.365 293.507 254.908 293.199 254.32C292.9 253.732 292.751 253.046 292.751 252.262C292.751 251.469 292.9 250.783 293.199 250.204C293.507 249.616 293.936 249.163 294.487 248.846C295.047 248.519 295.696 248.356 296.433 248.356C297.17 248.356 297.814 248.519 298.365 248.846C298.916 249.163 299.34 249.616 299.639 250.204C299.947 250.783 300.101 251.469 300.101 252.262C300.101 253.046 299.947 253.732 299.639 254.32C299.34 254.908 298.916 255.365 298.365 255.692C297.814 256.009 297.17 256.168 296.433 256.168ZM296.433 254.712C297.012 254.712 297.455 254.497 297.763 254.068C298.08 253.639 298.239 253.037 298.239 252.262C298.239 251.497 298.08 250.899 297.763 250.47C297.455 250.031 297.012 249.812 296.433 249.812C295.854 249.812 295.406 250.031 295.089 250.47C294.772 250.899 294.613 251.497 294.613 252.262C294.613 253.037 294.772 253.639 295.089 254.068C295.406 254.497 295.854 254.712 296.433 254.712ZM305.069 256V246.06H308.373C309.96 246.06 311.178 246.494 312.027 247.362C312.886 248.221 313.315 249.448 313.315 251.044C313.315 252.631 312.895 253.853 312.055 254.712C311.215 255.571 310.016 256 308.457 256H305.069ZM306.889 254.418H308.373C309.409 254.418 310.179 254.138 310.683 253.578C311.187 253.018 311.439 252.173 311.439 251.044C311.439 249.896 311.187 249.042 310.683 248.482C310.179 247.922 309.409 247.642 308.373 247.642H306.889V254.418ZM317.134 256.168C316.35 256.168 315.72 255.991 315.244 255.636C314.768 255.272 314.53 254.768 314.53 254.124C314.53 253.48 314.731 252.976 315.132 252.612C315.534 252.248 316.145 251.987 316.966 251.828L319.444 251.338C319.444 250.806 319.323 250.409 319.08 250.148C318.838 249.877 318.478 249.742 318.002 249.742C317.573 249.742 317.232 249.845 316.98 250.05C316.738 250.246 316.57 250.531 316.476 250.904L314.656 250.82C314.806 250.027 315.17 249.42 315.748 249C316.327 248.571 317.078 248.356 318.002 248.356C319.066 248.356 319.869 248.627 320.41 249.168C320.961 249.7 321.236 250.465 321.236 251.464V254.18C321.236 254.376 321.269 254.511 321.334 254.586C321.409 254.661 321.516 254.698 321.656 254.698H321.894V256C321.838 256.019 321.745 256.033 321.614 256.042C321.493 256.051 321.367 256.056 321.236 256.056C320.928 256.056 320.653 256.009 320.41 255.916C320.168 255.813 319.981 255.641 319.85 255.398C319.72 255.146 319.654 254.805 319.654 254.376L319.808 254.488C319.734 254.815 319.57 255.109 319.318 255.37C319.076 255.622 318.768 255.818 318.394 255.958C318.021 256.098 317.601 256.168 317.134 256.168ZM317.498 254.866C317.9 254.866 318.245 254.787 318.534 254.628C318.824 254.469 319.048 254.25 319.206 253.97C319.365 253.69 319.444 253.359 319.444 252.976V252.556L317.512 252.948C317.111 253.032 316.822 253.158 316.644 253.326C316.476 253.485 316.392 253.695 316.392 253.956C316.392 254.245 316.486 254.469 316.672 254.628C316.868 254.787 317.144 254.866 317.498 254.866ZM326.014 256.168C325.277 256.168 324.656 256.061 324.152 255.846C323.657 255.631 323.275 255.333 323.004 254.95C322.733 254.567 322.579 254.133 322.542 253.648L324.376 253.564C324.441 253.956 324.605 254.259 324.866 254.474C325.127 254.689 325.515 254.796 326.028 254.796C326.448 254.796 326.775 254.731 327.008 254.6C327.251 254.46 327.372 254.245 327.372 253.956C327.372 253.788 327.33 253.648 327.246 253.536C327.162 253.424 327.003 253.326 326.77 253.242C326.537 253.158 326.191 253.074 325.734 252.99C324.969 252.859 324.367 252.701 323.928 252.514C323.489 252.318 323.177 252.075 322.99 251.786C322.813 251.497 322.724 251.137 322.724 250.708C322.724 250.008 322.99 249.443 323.522 249.014C324.063 248.575 324.852 248.356 325.888 248.356C326.56 248.356 327.125 248.468 327.582 248.692C328.039 248.907 328.394 249.205 328.646 249.588C328.907 249.961 329.071 250.391 329.136 250.876L327.33 250.96C327.283 250.708 327.199 250.489 327.078 250.302C326.957 250.115 326.793 249.975 326.588 249.882C326.383 249.779 326.14 249.728 325.86 249.728C325.44 249.728 325.123 249.812 324.908 249.98C324.693 250.148 324.586 250.372 324.586 250.652C324.586 250.848 324.633 251.011 324.726 251.142C324.829 251.273 324.992 251.38 325.216 251.464C325.44 251.539 325.739 251.609 326.112 251.674C326.896 251.795 327.512 251.954 327.96 252.15C328.417 252.337 328.739 252.579 328.926 252.878C329.122 253.167 329.22 253.517 329.22 253.928C329.22 254.404 329.085 254.81 328.814 255.146C328.553 255.482 328.179 255.739 327.694 255.916C327.218 256.084 326.658 256.168 326.014 256.168ZM330.619 256V246.06H332.411V250.232H332.187C332.261 249.803 332.411 249.453 332.635 249.182C332.859 248.902 333.134 248.697 333.461 248.566C333.787 248.426 334.147 248.356 334.539 248.356C335.089 248.356 335.551 248.477 335.925 248.72C336.307 248.953 336.592 249.285 336.779 249.714C336.975 250.143 337.073 250.638 337.073 251.198V256H335.281V251.632C335.281 251.025 335.178 250.573 334.973 250.274C334.767 249.966 334.445 249.812 334.007 249.812C333.521 249.812 333.134 249.971 332.845 250.288C332.555 250.605 332.411 251.067 332.411 251.674V256H330.619ZM342.922 256.168C342.399 256.168 341.942 256.056 341.55 255.832C341.167 255.608 340.868 255.295 340.654 254.894L340.612 256H338.904V246.06H340.696V249.588C340.901 249.243 341.195 248.953 341.578 248.72C341.96 248.477 342.408 248.356 342.922 248.356C343.566 248.356 344.121 248.519 344.588 248.846C345.064 249.163 345.428 249.616 345.68 250.204C345.941 250.783 346.072 251.469 346.072 252.262C346.072 253.055 345.941 253.746 345.68 254.334C345.428 254.913 345.064 255.365 344.588 255.692C344.121 256.009 343.566 256.168 342.922 256.168ZM342.516 254.712C343.029 254.712 343.44 254.497 343.748 254.068C344.056 253.629 344.21 253.027 344.21 252.262C344.21 251.487 344.056 250.885 343.748 250.456C343.449 250.027 343.043 249.812 342.53 249.812C342.147 249.812 341.816 249.91 341.536 250.106C341.265 250.293 341.055 250.568 340.906 250.932C340.766 251.296 340.696 251.739 340.696 252.262C340.696 252.766 340.766 253.205 340.906 253.578C341.055 253.942 341.265 254.222 341.536 254.418C341.806 254.614 342.133 254.712 342.516 254.712ZM350.71 256.168C349.973 256.168 349.324 256.009 348.764 255.692C348.214 255.365 347.784 254.908 347.476 254.32C347.178 253.732 347.028 253.046 347.028 252.262C347.028 251.469 347.178 250.783 347.476 250.204C347.784 249.616 348.214 249.163 348.764 248.846C349.324 248.519 349.973 248.356 350.71 248.356C351.448 248.356 352.092 248.519 352.642 248.846C353.193 249.163 353.618 249.616 353.916 250.204C354.224 250.783 354.378 251.469 354.378 252.262C354.378 253.046 354.224 253.732 353.916 254.32C353.618 254.908 353.193 255.365 352.642 255.692C352.092 256.009 351.448 256.168 350.71 256.168ZM350.71 254.712C351.289 254.712 351.732 254.497 352.04 254.068C352.358 253.639 352.516 253.037 352.516 252.262C352.516 251.497 352.358 250.899 352.04 250.47C351.732 250.031 351.289 249.812 350.71 249.812C350.132 249.812 349.684 250.031 349.366 250.47C349.049 250.899 348.89 251.497 348.89 252.262C348.89 253.037 349.049 253.639 349.366 254.068C349.684 254.497 350.132 254.712 350.71 254.712ZM358.041 256.168C357.257 256.168 356.627 255.991 356.151 255.636C355.675 255.272 355.437 254.768 355.437 254.124C355.437 253.48 355.637 252.976 356.039 252.612C356.44 252.248 357.051 251.987 357.873 251.828L360.351 251.338C360.351 250.806 360.229 250.409 359.987 250.148C359.744 249.877 359.385 249.742 358.909 249.742C358.479 249.742 358.139 249.845 357.887 250.05C357.644 250.246 357.476 250.531 357.383 250.904L355.563 250.82C355.712 250.027 356.076 249.42 356.655 249C357.233 248.571 357.985 248.356 358.909 248.356C359.973 248.356 360.775 248.627 361.317 249.168C361.867 249.7 362.143 250.465 362.143 251.464V254.18C362.143 254.376 362.175 254.511 362.241 254.586C362.315 254.661 362.423 254.698 362.563 254.698H362.801V256C362.745 256.019 362.651 256.033 362.521 256.042C362.399 256.051 362.273 256.056 362.143 256.056C361.835 256.056 361.559 256.009 361.317 255.916C361.074 255.813 360.887 255.641 360.757 255.398C360.626 255.146 360.561 254.805 360.561 254.376L360.715 254.488C360.64 254.815 360.477 255.109 360.225 255.37C359.982 255.622 359.674 255.818 359.301 255.958C358.927 256.098 358.507 256.168 358.041 256.168ZM358.405 254.866C358.806 254.866 359.151 254.787 359.441 254.628C359.73 254.469 359.954 254.25 360.113 253.97C360.271 253.69 360.351 253.359 360.351 252.976V252.556L358.419 252.948C358.017 253.032 357.728 253.158 357.551 253.326C357.383 253.485 357.299 253.695 357.299 253.956C357.299 254.245 357.392 254.469 357.579 254.628C357.775 254.787 358.05 254.866 358.405 254.866ZM363.964 256V248.524H365.644L365.714 250.596L365.56 250.568C365.672 249.849 365.882 249.331 366.19 249.014C366.508 248.687 366.937 248.524 367.478 248.524H368.164V250.064H367.464C367.082 250.064 366.764 250.12 366.512 250.232C366.26 250.344 366.069 250.521 365.938 250.764C365.817 250.997 365.756 251.305 365.756 251.688V256H363.964ZM371.792 256.168C371.158 256.168 370.607 256.009 370.14 255.692C369.683 255.375 369.328 254.922 369.076 254.334C368.824 253.746 368.698 253.055 368.698 252.262C368.698 251.469 368.824 250.778 369.076 250.19C369.328 249.602 369.688 249.149 370.154 248.832C370.621 248.515 371.167 248.356 371.792 248.356C372.315 248.356 372.772 248.463 373.164 248.678C373.566 248.893 373.869 249.196 374.074 249.588V246.06H375.866V256H374.158L374.116 254.894C373.911 255.295 373.603 255.608 373.192 255.832C372.782 256.056 372.315 256.168 371.792 256.168ZM372.338 254.712C372.712 254.712 373.024 254.619 373.276 254.432C373.538 254.245 373.734 253.97 373.864 253.606C374.004 253.233 374.074 252.785 374.074 252.262C374.074 251.73 374.004 251.282 373.864 250.918C373.734 250.554 373.538 250.279 373.276 250.092C373.024 249.905 372.712 249.812 372.338 249.812C371.797 249.812 371.363 250.031 371.036 250.47C370.719 250.899 370.56 251.497 370.56 252.262C370.56 253.009 370.719 253.606 371.036 254.054C371.363 254.493 371.797 254.712 372.338 254.712Z" fill="white"/>
<defs>
<filter id="filter0_d_1_36059" x="229" y="0" width="140" height="140" filterUnits="userSpaceOnUse" color-interpolation-filters="sRGB">
<feFlood flood-opacity="0" result="BackgroundImageFix"/>
<feColorMatrix in="SourceAlpha" type="matrix" values="0 0 0 0 0 0 0 0 0 0 0 0 0 0 0 0 0 0 127 0" result="hardAlpha"/>
<feOffset dy="4"/>
<feGaussianBlur stdDeviation="20"/>
<feComposite in2="hardAlpha" operator="out"/>
<feColorMatrix type="matrix" values="0 0 0 0 0.156863 0 0 0 0 0.654902 0 0 0 0 0.270588 0 0 0 0.4 0"/>
<feBlend mode="normal" in2="BackgroundImageFix" result="effect1_dropShadow_1_36059"/>
<feBlend mode="normal" in="SourceGraphic" in2="effect1_dropShadow_1_36059" result="shape"/>
</filter>
<linearGradient id="paint0_linear_1_36059" x1="299" y1="36" x2="299" y2="96" gradientUnits="userSpaceOnUse">
<stop stop-color="#28A745"/>
<stop offset="1" stop-color="#21B142"/>
</linearGradient>
<linearGradient id="paint1_linear_1_36059" x1="299" y1="36" x2="299" y2="96" gradientUnits="userSpaceOnUse">
<stop stop-opacity="0"/>
<stop offset="1"/>
</linearGradient>
</defs>
</svg>
