<svg width="203" height="47" viewBox="0 0 203 47" fill="none" xmlns="http://www.w3.org/2000/svg">
<rect x="0.046875" y="0.560547" width="45.9032" height="45.8793" rx="10" fill="#04131D"/>
<path d="M25.5924 31.8423L26.8807 33.1311H21.3986L20.6523 31.8423H25.5924Z" fill="url(#paint0_linear_1_35355)"/>
<path d="M32.6965 23.0704L31.1797 22.1777L25.5938 31.8414L26.882 33.1302L32.6965 23.0704Z" fill="url(#paint1_linear_1_35355)"/>
<path d="M22.9799 27.3091L24.2682 28.5979H16.9922L17.7385 27.3091H22.9799Z" fill="url(#paint2_linear_1_35355)"/>
<path d="M29.7031 19.1884L28.1863 18.2964L22.9766 27.3079L24.2648 28.5967L29.7031 19.1884Z" fill="url(#paint3_linear_1_35355)"/>
<path d="M15.1156 22.7845L13.3555 22.3115L16.9897 28.5972L17.736 27.3084L15.1156 22.7845Z" fill="url(#paint4_linear_1_35355)"/>
<path d="M18.2227 13.9087H20.2566L15.1156 22.7848L13.3555 22.3119L18.2227 13.9087Z" fill="url(#paint5_linear_1_35355)"/>
<path d="M33.3944 23.4458L30.7956 27.9334L30.774 27.9705L28.1698 32.4668H28.1691L26.0422 36.1398C25.7335 36.6721 25.1638 37.0002 24.5483 37.0002H21.6091C20.9936 37.0002 20.4239 36.6721 20.1159 36.1398L18.7346 33.7556L17.9883 32.4668H22.9284L25.5541 27.9334L28.1529 23.4465H28.1536L30.6904 19.066L30.774 18.9219L30.8576 19.066L33.3944 23.4458Z" fill="url(#paint6_linear_1_35355)"/>
<path d="M38.1378 22.583C38.4473 23.1172 38.4473 23.7768 38.1378 24.311L36.4221 27.2727L35.4527 28.9468L33.9123 31.6066C33.6036 32.1395 33.0346 32.4676 32.4184 32.4676H28.172L30.7762 27.972L30.7978 27.9342L33.3973 23.4473H33.3966L30.8598 19.0669L30.7762 18.9227H25.5348L25.4519 19.0669H25.4512L20.3156 27.9342H15.0742L15.2198 27.6836L20.2105 19.0669L22.8356 14.5342H32.4805C33.0966 14.5342 33.6656 14.8623 33.9744 15.3952L36.1013 19.0669L37.7495 21.912L38.1385 22.583H38.1378Z" fill="url(#paint7_linear_1_35355)"/>
<path d="M28.2333 14.5339H22.8348L20.2098 19.0666L15.2184 27.6826L15.0735 27.9339L12.4531 23.41L12.5981 23.1594L17.5934 14.5339L19.7203 10.8615C20.0291 10.3286 20.5981 10.0005 21.2142 10.0005H24.6126C25.2287 10.0005 25.7977 10.3286 26.1064 10.8608L28.1551 14.3978L28.2333 14.5339Z" fill="url(#paint8_linear_1_35355)"/>
<path d="M30.7751 18.9227L30.6915 19.0669L28.1547 23.4473H28.154L25.5552 27.9342L22.9295 32.4676H13.7436C13.1275 32.4676 12.5585 32.1395 12.2498 31.6066L10.1228 27.9342L9.97724 27.6829L7.85707 24.0227C7.54764 23.4884 7.54764 22.8289 7.85707 22.2946L9.97724 18.6344L11.8534 15.3952C12.1621 14.8623 12.7311 14.5342 13.3473 14.5342H17.593L12.5976 23.1597L12.4527 23.4103L15.073 27.9342H20.3145L25.4501 19.0669H25.4507L25.5336 18.9227H30.7751Z" fill="url(#paint9_linear_1_35355)"/>
<path d="M67.2061 34.8727C61.0186 34.8727 57.1122 30.6085 57.1122 23.7351V23.7202C57.1122 16.8468 61.0335 12.6124 67.2061 12.6124C72.1562 12.6124 75.7942 15.6987 76.3608 20.0822L76.3757 20.2313H72.6035L72.5289 19.948C71.9027 17.4879 70.0092 15.9522 67.2061 15.9522C63.4489 15.9522 61.0484 18.9491 61.0484 23.7202V23.7351C61.0484 28.5212 63.4638 31.5329 67.2061 31.5329C69.9495 31.5329 71.8729 30.0569 72.5737 27.4029L72.6184 27.2538H76.3906L76.3608 27.4029C75.8091 31.8162 72.1562 34.8727 67.2061 34.8727ZM85.9329 34.8131C81.281 34.8131 78.2841 31.7119 78.2841 26.5978V26.568C78.2841 21.4986 81.3257 18.3676 85.918 18.3676C90.5251 18.3676 93.5816 21.4688 93.5816 26.568V26.5978C93.5816 31.7268 90.5698 34.8131 85.9329 34.8131ZM85.9478 31.8162C88.2886 31.8162 89.7945 29.9078 89.7945 26.5978V26.568C89.7945 23.2729 88.2737 21.3794 85.918 21.3794C83.6069 21.3794 82.0712 23.2878 82.0712 26.568V26.5978C82.0712 29.9227 83.5771 31.8162 85.9478 31.8162ZM95.9672 39.7184V18.6956H99.6797V21.4241H99.7543C100.664 19.5305 102.393 18.3676 104.66 18.3676C108.67 18.3676 111.205 21.4986 111.205 26.5978V26.6127C111.205 31.682 108.67 34.8131 104.704 34.8131C102.453 34.8131 100.649 33.68 99.7543 31.8311H99.6797V39.7184H95.9672ZM103.556 31.682C105.927 31.682 107.418 29.7289 107.418 26.6127V26.5978C107.418 23.4369 105.927 21.4986 103.556 21.4986C101.26 21.4986 99.6499 23.4965 99.6499 26.5978V26.6127C99.6499 29.699 101.26 31.682 103.556 31.682ZM115.141 39.7483C114.426 39.7483 113.68 39.6588 113.233 39.5843V36.7514C113.516 36.811 113.948 36.8856 114.47 36.8856C115.887 36.8856 116.677 36.483 117.154 35.156L117.378 34.5149L111.697 18.6956H115.753L119.45 31.3391H119.555L123.267 18.6956H127.173L121.493 35.0368C120.285 38.5107 118.436 39.7483 115.141 39.7483ZM133.51 34.5L127.74 12.9851H131.736L135.478 29.2219H135.553L139.862 12.9851H143.351L147.66 29.2219H147.734L151.476 12.9851H155.472L149.702 34.5H145.99L141.651 19.0683H141.561L137.223 34.5H133.51ZM159.602 16.4293C158.439 16.4293 157.53 15.5049 157.53 14.4016C157.53 13.2684 158.439 12.3589 159.602 12.3589C160.765 12.3589 161.66 13.2684 161.66 14.4016C161.66 15.5049 160.765 16.4293 159.602 16.4293ZM157.739 34.5V18.6956H161.451V34.5H157.739ZM164.612 34.5V18.6956H168.325V21.1706H168.399C169.219 19.4709 170.829 18.3676 173.23 18.3676C176.704 18.3676 178.687 20.604 178.687 24.2719V34.5H174.974V25.0174C174.974 22.766 173.931 21.4986 171.813 21.4986C169.681 21.4986 168.325 23.0493 168.325 25.3305V34.5H164.612ZM187.842 34.8131C183.697 34.8131 181.326 32.845 180.998 29.9078L180.983 29.7736H184.636L184.666 29.9078C184.949 31.2646 185.978 32.0697 187.856 32.0697C189.661 32.0697 190.749 31.3391 190.749 30.1762V30.1612C190.749 29.207 190.197 28.6703 188.557 28.2975L185.933 27.716C182.906 27.0451 181.386 25.569 181.386 23.2282V23.2133C181.386 20.3208 183.905 18.3676 187.722 18.3676C191.658 18.3676 193.955 20.5295 194.089 23.258L194.104 23.422H190.645L190.63 23.3027C190.466 22.0354 189.452 21.111 187.722 21.111C186.082 21.111 185.053 21.8714 185.053 23.0343V23.0493C185.053 23.9588 185.665 24.5551 187.305 24.9279L189.944 25.5094C193.209 26.24 194.476 27.5222 194.476 29.8183V29.8332C194.476 32.8152 191.718 34.8131 187.842 34.8131Z" fill="white"/>
<path d="M198.86 34.7386C197.652 34.7386 196.698 33.7843 196.698 32.5766C196.698 31.3838 197.652 30.4296 198.86 30.4296C200.068 30.4296 201.007 31.3838 201.007 32.5766C201.007 33.7843 200.068 34.7386 198.86 34.7386Z" fill="url(#paint10_linear_1_35355)"/>
<ellipse cx="159.585" cy="14.4958" rx="2.15906" ry="2.10766" fill="url(#paint11_linear_1_35355)"/>
<circle cx="198.808" cy="32.6939" r="2.21047" fill="url(#paint12_linear_1_35355)"/>
<defs>
<linearGradient id="paint0_linear_1_35355" x1="23.7662" y1="31.6422" x2="23.7662" y2="33.0705" gradientUnits="userSpaceOnUse">
<stop stop-opacity="0.1"/>
<stop offset="1" stop-opacity="0"/>
</linearGradient>
<linearGradient id="paint1_linear_1_35355" x1="28.0388" y1="27.0352" x2="29.8631" y2="28.1465" gradientUnits="userSpaceOnUse">
<stop stop-opacity="0.1"/>
<stop offset="1" stop-opacity="0"/>
</linearGradient>
<linearGradient id="paint2_linear_1_35355" x1="20.6305" y1="27.109" x2="20.6305" y2="28.5373" gradientUnits="userSpaceOnUse">
<stop stop-opacity="0.1"/>
<stop offset="1" stop-opacity="0"/>
</linearGradient>
<linearGradient id="paint3_linear_1_35355" x1="25.2423" y1="22.8331" x2="27.0504" y2="23.9343" gradientUnits="userSpaceOnUse">
<stop stop-opacity="0.1"/>
<stop offset="1" stop-opacity="0"/>
</linearGradient>
<linearGradient id="paint4_linear_1_35355" x1="16.4817" y1="24.693" x2="15.2305" y2="25.4135" gradientUnits="userSpaceOnUse">
<stop stop-opacity="0.1"/>
<stop offset="1" stop-opacity="0"/>
</linearGradient>
<linearGradient id="paint5_linear_1_35355" x1="17.8297" y1="18.6519" x2="15.9773" y2="17.6349" gradientUnits="userSpaceOnUse">
<stop stop-opacity="0.1"/>
<stop offset="1" stop-opacity="0"/>
</linearGradient>
<linearGradient id="paint6_linear_1_35355" x1="29.9515" y1="22.1058" x2="20.776" y2="36.2281" gradientUnits="userSpaceOnUse">
<stop stop-color="#55FEFF"/>
<stop offset="1" stop-color="#2856FE"/>
</linearGradient>
<linearGradient id="paint7_linear_1_35355" x1="17.5422" y1="25.387" x2="38.7288" y2="21.4503" gradientUnits="userSpaceOnUse">
<stop stop-color="#55FEFE"/>
<stop offset="1" stop-color="#2754FD"/>
</linearGradient>
<linearGradient id="paint8_linear_1_35355" x1="16.5337" y1="25.2122" x2="25.4657" y2="10.176" gradientUnits="userSpaceOnUse">
<stop stop-color="#55FDFF"/>
<stop offset="1" stop-color="#2855FD"/>
</linearGradient>
<linearGradient id="paint9_linear_1_35355" x1="25.8835" y1="17.4803" x2="10.3188" y2="29.1612" gradientUnits="userSpaceOnUse">
<stop stop-color="#55FEFF"/>
<stop offset="1" stop-color="#2855FD"/>
</linearGradient>
<linearGradient id="paint10_linear_1_35355" x1="55.9492" y1="23.5" x2="202.949" y2="23.5" gradientUnits="userSpaceOnUse">
<stop stop-color="#2855FD"/>
<stop offset="1" stop-color="#2754FD"/>
</linearGradient>
<linearGradient id="paint11_linear_1_35355" x1="159.585" y1="12.3882" x2="159.585" y2="16.6035" gradientUnits="userSpaceOnUse">
<stop stop-color="#2856FE"/>
<stop offset="1" stop-color="#55FEFF"/>
</linearGradient>
<linearGradient id="paint12_linear_1_35355" x1="198.808" y1="30.4834" x2="198.808" y2="34.9043" gradientUnits="userSpaceOnUse">
<stop stop-color="#2856FE"/>
<stop offset="1" stop-color="#55FEFF"/>
</linearGradient>
</defs>
</svg>
