<svg width="136" height="31" viewBox="0 0 136 31" fill="none" xmlns="http://www.w3.org/2000/svg">
<rect y="0.207031" width="30.6022" height="30.5862" rx="8" fill="#F3F3F3"/>
<path d="M16.9748 20.8799L17.8057 21.7111H14.2699L13.7886 20.8799H16.9748Z" fill="url(#paint0_linear_1_1541)"/>
<path d="M21.5556 15.2227L20.5774 14.647L16.9746 20.8797L17.8055 21.7109L21.5556 15.2227Z" fill="url(#paint1_linear_1_1541)"/>
<path d="M15.2881 17.9561L16.119 18.7873H11.4263L11.9076 17.9561H15.2881Z" fill="url(#paint2_linear_1_1541)"/>
<path d="M19.6265 12.7191L18.6482 12.1438L15.2881 17.9559L16.119 18.7871L19.6265 12.7191Z" fill="url(#paint3_linear_1_1541)"/>
<path d="M10.2178 15.0382L9.08252 14.7332L11.4265 18.7872L11.9078 17.956L10.2178 15.0382Z" fill="url(#paint4_linear_1_1541)"/>
<path d="M12.2218 9.31323H13.5336L10.2178 15.038L9.08252 14.733L12.2218 9.31323Z" fill="url(#paint5_linear_1_1541)"/>
<path d="M22.0082 15.4651L20.3321 18.3595L20.3182 18.3834L18.6385 21.2833H18.6381L17.2663 23.6523C17.0672 23.9956 16.6998 24.2072 16.3028 24.2072H14.4071C14.0101 24.2072 13.6427 23.9956 13.444 23.6523L12.5531 22.1146L12.0718 21.2833H15.258L16.9515 18.3595L18.6277 15.4656H18.6281L20.2643 12.6404L20.3182 12.5474L20.3721 12.6404L22.0082 15.4651Z" fill="url(#paint6_linear_1_1541)"/>
<path d="M25.0658 14.9077C25.2653 15.2523 25.2653 15.6777 25.0658 16.0223L23.9592 17.9324L23.334 19.0122L22.3404 20.7277C22.1413 21.0714 21.7743 21.283 21.3769 21.283H18.6381L20.3178 18.3834L20.3317 18.3591L22.0083 15.4652H22.0078L20.3717 12.64L20.3178 12.547H16.9372L16.8837 12.64H16.8833L13.571 18.3591H10.1904L10.2843 18.1975L13.5032 12.64L15.1963 9.71655H21.4169C21.8143 9.71655 22.1813 9.92816 22.3804 10.2719L23.7522 12.64L24.8153 14.4749L25.0662 14.9077H25.0658Z" fill="url(#paint7_linear_1_1541)"/>
<path d="M18.6783 9.71683H15.1964L13.5033 12.6403L10.284 18.1973L10.1906 18.3594L8.50049 15.4416L8.59397 15.28L11.8158 9.71683L13.1876 7.34828C13.3868 7.00458 13.7537 6.79297 14.1511 6.79297H16.3429C16.7404 6.79297 17.1073 7.00458 17.3065 7.34785L18.6278 9.62906L18.6783 9.71683Z" fill="url(#paint8_linear_1_1541)"/>
<path d="M20.3178 12.547L20.2639 12.64L18.6277 15.4652H18.6273L16.9512 18.3591L15.2576 21.283H9.33306C8.93565 21.283 8.56868 21.0714 8.36955 20.7277L6.99776 18.3591L6.90384 18.197L5.5364 15.8363C5.33683 15.4917 5.33683 15.0663 5.5364 14.7218L6.90384 12.361L8.11388 10.2719C8.31302 9.92816 8.67999 9.71655 9.0774 9.71655H11.8158L8.5939 15.2797L8.50042 15.4413L10.1905 18.3591H13.571L16.8833 12.64H16.8838L16.9373 12.547H20.3178Z" fill="url(#paint9_linear_1_1541)"/>
<path d="M133 8.20703C132.584 8.20703 132.194 8.1319 131.828 7.98163C131.47 7.8242 131.151 7.60954 130.871 7.33762C130.599 7.05855 130.384 6.73655 130.226 6.37161C130.075 6.00667 130 5.61669 130 5.20166C130 4.78664 130.075 4.40023 130.226 4.04245C130.384 3.67751 130.599 3.35909 130.871 3.08717C131.151 2.8081 131.47 2.59344 131.828 2.44317C132.194 2.28574 132.584 2.20703 133 2.20703C133.423 2.20703 133.814 2.28574 134.172 2.44317C134.53 2.59344 134.846 2.8081 135.118 3.08717C135.398 3.35909 135.613 3.67751 135.763 4.04245C135.921 4.40023 136 4.78664 136 5.20166C136 5.61669 135.921 6.00667 135.763 6.37161C135.613 6.73655 135.398 7.05855 135.118 7.33762C134.846 7.60954 134.53 7.8242 134.172 7.98163C133.814 8.1319 133.423 8.20703 133 8.20703ZM133 7.54156C133.452 7.54156 133.849 7.4378 134.194 7.23029C134.538 7.01562 134.81 6.72939 135.011 6.37161C135.211 6.01383 135.312 5.62385 135.312 5.20166C135.312 4.77948 135.211 4.39308 135.011 4.04245C134.81 3.69183 134.538 3.41276 134.194 3.20524C133.849 2.99057 133.452 2.88324 133 2.88324C132.563 2.88324 132.168 2.99057 131.817 3.20524C131.466 3.41276 131.19 3.69183 130.989 4.04245C130.789 4.39308 130.688 4.77948 130.688 5.20166C130.688 5.62385 130.789 6.01383 130.989 6.37161C131.19 6.72939 131.466 7.01562 131.817 7.23029C132.168 7.4378 132.563 7.54156 133 7.54156ZM131.774 6.80095V3.59165H132.989C133.398 3.59165 133.72 3.68467 133.957 3.87072C134.201 4.04961 134.323 4.29648 134.323 4.61132C134.323 4.81884 134.265 5.00488 134.151 5.16946C134.043 5.33404 133.882 5.44853 133.667 5.51293L134.419 6.80095H133.581L132.935 5.62027H132.538V6.80095H131.774ZM132.527 5.0192H132.968C133.147 5.0192 133.287 4.987 133.387 4.92259C133.495 4.85104 133.548 4.74728 133.548 4.61132C133.548 4.48252 133.495 4.38592 133.387 4.32152C133.287 4.25712 133.147 4.22492 132.968 4.22492H132.527V5.0192Z" fill="#28303F"/>
<path d="M47.8477 23.6055C43.8926 23.6055 41.3926 20.8125 41.3926 16.3203C41.3926 11.8574 43.9121 9.04492 47.8477 9.04492C51.041 9.04492 53.4531 11.0078 53.8242 13.9473H51.6562C51.2656 12.1406 49.7617 10.959 47.8477 10.959C45.2891 10.959 43.6289 13.0586 43.6289 16.3203C43.6289 19.6113 45.2695 21.6914 47.8574 21.6914C49.8203 21.6914 51.2168 20.6855 51.6562 18.9863H53.834C53.2969 21.8965 51.0898 23.6055 47.8477 23.6055ZM59.9668 23.5664C57.0273 23.5664 55.0938 21.5449 55.0938 18.2344C55.0938 14.9336 57.0371 12.9121 59.9668 12.9121C62.8965 12.9121 64.8398 14.9336 64.8398 18.2344C64.8398 21.5449 62.9062 23.5664 59.9668 23.5664ZM59.9668 21.8281C61.627 21.8281 62.6914 20.5195 62.6914 18.2344C62.6914 15.959 61.6172 14.6504 59.9668 14.6504C58.3164 14.6504 57.2422 15.959 57.2422 18.2344C57.2422 20.5195 58.3164 21.8281 59.9668 21.8281ZM71.8223 12.9316C74.4297 12.9316 76.1484 14.9824 76.1484 18.2344C76.1484 21.4863 74.4395 23.5469 71.8613 23.5469C70.3867 23.5469 69.2148 22.8242 68.6289 21.6816H68.5801V26.7695H66.4707V13.0977H68.5117V14.8652H68.5508C69.1562 13.6836 70.3379 12.9316 71.8223 12.9316ZM71.2656 21.7598C72.9355 21.7598 73.9805 20.3926 73.9805 18.2344C73.9805 16.0859 72.9355 14.709 71.2656 14.709C69.6543 14.709 68.5703 16.1152 68.5703 18.2344C68.5703 20.373 69.6445 21.7598 71.2656 21.7598ZM78.5215 27.1992C78.3555 27.1992 77.8184 27.1797 77.6621 27.1504V25.4414C77.8184 25.4805 78.1699 25.4805 78.3457 25.4805C79.332 25.4805 79.8496 25.0703 80.1719 24.0156C80.1719 23.9961 80.3574 23.3906 80.3574 23.3809L76.6465 13.0977H78.9316L81.5391 21.457H81.5684L84.1758 13.0977H86.4023L82.5449 23.9082C81.666 26.3984 80.6602 27.1992 78.5215 27.1992ZM95.7578 12.7461L92.7207 23.3711H90.6504L86.8516 9.2793H89.127L91.7344 20.3145H91.8125L94.791 9.2793H96.8223L99.8105 20.3145H99.8887L102.496 9.2793H104.771L100.963 23.3711H98.9023L95.8555 12.7461H95.7578ZM110.592 23.3711V13.0977H112.604V14.8164H112.652C113.209 13.6445 114.303 12.9219 115.885 12.9219C118.15 12.9219 119.449 14.3672 119.449 16.7207V23.3711H117.33V17.1309C117.33 15.5879 116.607 14.7383 115.143 14.7383C113.658 14.7383 112.701 15.793 112.701 17.3848V23.3711H110.592ZM121.305 16.0078C121.305 14.1719 122.926 12.9121 125.328 12.9121C127.613 12.9121 129.215 14.1914 129.283 16.0176H127.301C127.203 15.0898 126.451 14.5137 125.27 14.5137C124.127 14.5137 123.365 15.0703 123.365 15.8809C123.365 16.5156 123.873 16.9453 124.938 17.209L126.666 17.6094C128.736 18.1074 129.518 18.8887 129.518 20.4023C129.518 22.2773 127.77 23.5664 125.25 23.5664C122.818 23.5664 121.207 22.3066 121.041 20.4219H123.131C123.297 21.4082 124.059 21.9551 125.348 21.9551C126.617 21.9551 127.398 21.4277 127.398 20.5977C127.398 19.9434 127.008 19.582 125.934 19.3086L124.098 18.8594C122.242 18.4102 121.305 17.4434 121.305 16.0078Z" fill="#28303F"/>
<path d="M106.324 23.3711V13.0977H108.434V23.3711H106.324ZM107.379 11.5938C106.705 11.5938 106.158 11.0566 106.158 10.3926C106.158 9.71875 106.705 9.18164 107.379 9.18164C108.062 9.18164 108.609 9.71875 108.609 10.3926C108.609 11.0566 108.062 11.5938 107.379 11.5938Z" fill="url(#paint10_linear_1_1541)"/>
<path d="M132.74 23.4785C132.027 23.4785 131.461 22.9121 131.461 22.1992C131.461 21.4863 132.027 20.9199 132.74 20.9199C133.453 20.9199 134.02 21.4863 134.02 22.1992C134.02 22.9121 133.453 23.4785 132.74 23.4785Z" fill="url(#paint11_linear_1_1541)"/>
<defs>
<linearGradient id="paint0_linear_1_1541" x1="15.7969" y1="20.7508" x2="15.7969" y2="21.672" gradientUnits="userSpaceOnUse">
<stop stop-opacity="0.1"/>
<stop offset="1" stop-opacity="0"/>
</linearGradient>
<linearGradient id="paint1_linear_1_1541" x1="18.5516" y1="17.7798" x2="19.7282" y2="18.4966" gradientUnits="userSpaceOnUse">
<stop stop-opacity="0.1"/>
<stop offset="1" stop-opacity="0"/>
</linearGradient>
<linearGradient id="paint2_linear_1_1541" x1="13.7729" y1="17.827" x2="13.7729" y2="18.7482" gradientUnits="userSpaceOnUse">
<stop stop-opacity="0.1"/>
<stop offset="1" stop-opacity="0"/>
</linearGradient>
<linearGradient id="paint3_linear_1_1541" x1="16.7494" y1="15.0698" x2="17.9156" y2="15.7801" gradientUnits="userSpaceOnUse">
<stop stop-opacity="0.1"/>
<stop offset="1" stop-opacity="0"/>
</linearGradient>
<linearGradient id="paint4_linear_1_1541" x1="11.0988" y1="16.2691" x2="10.2919" y2="16.7338" gradientUnits="userSpaceOnUse">
<stop stop-opacity="0.1"/>
<stop offset="1" stop-opacity="0"/>
</linearGradient>
<linearGradient id="paint5_linear_1_1541" x1="11.9682" y1="12.3724" x2="10.7735" y2="11.7165" gradientUnits="userSpaceOnUse">
<stop stop-opacity="0.1"/>
<stop offset="1" stop-opacity="0"/>
</linearGradient>
<linearGradient id="paint6_linear_1_1541" x1="19.7877" y1="14.6009" x2="13.8698" y2="23.7093" gradientUnits="userSpaceOnUse">
<stop stop-color="#55FEFF"/>
<stop offset="1" stop-color="#2856FE"/>
</linearGradient>
<linearGradient id="paint7_linear_1_1541" x1="11.7822" y1="16.7162" x2="25.4469" y2="14.1772" gradientUnits="userSpaceOnUse">
<stop stop-color="#55FEFE"/>
<stop offset="1" stop-color="#2754FD"/>
</linearGradient>
<linearGradient id="paint8_linear_1_1541" x1="11.1323" y1="16.6039" x2="16.8931" y2="6.90614" gradientUnits="userSpaceOnUse">
<stop stop-color="#55FDFF"/>
<stop offset="1" stop-color="#2855FD"/>
</linearGradient>
<linearGradient id="paint9_linear_1_1541" x1="17.1629" y1="11.6167" x2="7.12418" y2="19.1505" gradientUnits="userSpaceOnUse">
<stop stop-color="#55FEFF"/>
<stop offset="1" stop-color="#2855FD"/>
</linearGradient>
<linearGradient id="paint10_linear_1_1541" x1="107.602" y1="9.37134" x2="107.602" y2="13.3713" gradientUnits="userSpaceOnUse">
<stop stop-color="#2856FE"/>
<stop offset="0.5" stop-color="#55FEFF"/>
<stop offset="1" stop-color="#121212"/>
</linearGradient>
<linearGradient id="paint11_linear_1_1541" x1="133.102" y1="20.8713" x2="133.102" y2="23.8713" gradientUnits="userSpaceOnUse">
<stop stop-color="#2856FE"/>
<stop offset="1" stop-color="#55FEFF"/>
</linearGradient>
</defs>
</svg>
