<svg width="42" height="42" viewBox="0 0 42 42" fill="none" xmlns="http://www.w3.org/2000/svg">
<rect width="42" height="42" rx="21" fill="#FDA902"/>
<path d="M20.249 29.2979C18.4731 29.1393 16.8574 28.4259 15.5781 27.3291C16.7378 25.7603 17.4748 23.8398 17.6182 21.75H20.249V29.2979ZM24.3809 21.75C24.5241 23.8395 25.2597 25.7604 26.4189 27.3291C25.1397 28.4256 23.5248 29.1395 21.749 29.2979V21.75H24.3809ZM16.1152 21.75C15.982 23.4217 15.4084 24.9585 14.5176 26.2363C13.5076 24.9876 12.8521 23.4419 12.7012 21.75H16.1152ZM29.2979 21.75C29.1469 23.442 28.4906 24.9876 27.4805 26.2363C26.5899 24.9585 26.0169 23.4216 25.8838 21.75H29.2979ZM14.5186 15.7627C15.4094 17.0406 15.9819 18.5784 16.1152 20.25H12.7012C12.8522 18.5577 13.508 17.0115 14.5186 15.7627ZM20.249 20.25H17.6182C17.4746 18.16 16.7382 16.2387 15.5781 14.6699C16.8573 13.5735 18.4734 12.8606 20.249 12.7021V20.25ZM21.749 12.7021C23.5247 12.8605 25.1407 13.5735 26.4199 14.6699C25.2601 16.2386 24.5243 18.1601 24.3809 20.25H21.749V12.7021ZM27.4795 15.7627C28.4901 17.0116 29.1468 18.5576 29.2979 20.25H25.8838C26.017 18.5784 26.5889 17.0406 27.4795 15.7627Z" fill="white"/>
</svg>
