<svg width="42" height="42" viewBox="0 0 42 42" fill="none" xmlns="http://www.w3.org/2000/svg">
<rect width="42" height="42" rx="21" fill="#2754FD"/>
<path fill-rule="evenodd" clip-rule="evenodd" d="M24.6013 14.25H17.3973C16.2348 12.6798 17.801 10.4823 19.7464 11.1098L20.6741 11.4091C20.8854 11.4773 21.1132 11.4773 21.3244 11.4091L22.2522 11.1098C24.1976 10.4823 25.7637 12.6798 24.6013 14.25ZM17.5055 15.75H24.4931C25.8124 16.4805 26.8431 17.7001 27.315 19.2104L28.565 23.2104C29.7724 27.0739 26.886 31 22.8381 31H19.1604C15.1126 31 12.2262 27.0739 13.4336 23.2104L14.6836 19.2103C15.1555 17.7001 16.1862 16.4805 17.5055 15.75ZM24.3633 26.6558C24.7254 26.4547 24.856 25.9982 24.655 25.636C24.454 25.2739 23.9974 25.1432 23.6353 25.3442C22.4662 25.9932 21.6648 26.2501 20.9394 26.2472C20.2178 26.2443 19.4599 25.9836 18.3771 25.3521C18.0193 25.1435 17.5601 25.2644 17.3514 25.6222C17.1427 25.98 17.2636 26.4392 17.6214 26.6479C18.793 27.3311 19.8241 27.7427 20.9333 27.7472C22.0388 27.7517 23.1102 27.3513 24.3633 26.6558Z" fill="white"/>
</svg>
