<svg width="32" height="32" viewBox="0 0 32 32" fill="none" xmlns="http://www.w3.org/2000/svg">
<rect width="32" height="32" rx="10" fill="#28A745"/>
<path d="M15.1263 16.5824L13.918 15.3949C13.7652 15.2421 13.5744 15.1657 13.3455 15.1657C13.1166 15.1657 12.9185 15.2491 12.7513 15.4157C12.5985 15.5685 12.5221 15.7629 12.5221 15.9991C12.5221 16.2352 12.5985 16.4296 12.7513 16.5824L14.543 18.3741C14.7096 18.5407 14.9041 18.6241 15.1263 18.6241C15.3485 18.6241 15.543 18.5407 15.7096 18.3741L19.2513 14.8324C19.418 14.6657 19.4977 14.4713 19.4905 14.2491C19.4832 14.0268 19.4035 13.8324 19.2513 13.6657C19.0846 13.4991 18.8869 13.4124 18.658 13.4057C18.4291 13.3991 18.231 13.4788 18.0638 13.6449L15.1263 16.5824ZM12.793 24.1241L11.5846 22.0824L9.29297 21.5824C9.08464 21.5407 8.91797 21.4332 8.79297 21.2599C8.66797 21.0866 8.61936 20.8954 8.64714 20.6866L8.8763 18.3324L7.3138 16.5407C7.17491 16.3879 7.10547 16.2074 7.10547 15.9991C7.10547 15.7907 7.17491 15.6102 7.3138 15.4574L8.8763 13.6657L8.64714 11.3116C8.61936 11.1032 8.66797 10.9121 8.79297 10.7382C8.91797 10.5643 9.08464 10.4568 9.29297 10.4157L11.5846 9.91572L12.793 7.87406C12.9041 7.6935 13.0569 7.57183 13.2513 7.50906C13.4457 7.44628 13.6402 7.45683 13.8346 7.54072L16.0013 8.45739L18.168 7.54072C18.3624 7.45739 18.5569 7.44683 18.7513 7.50906C18.9457 7.57128 19.0985 7.69295 19.2096 7.87406L20.418 9.91572L22.7096 10.4157C22.918 10.4574 23.0846 10.5652 23.2096 10.7391C23.3346 10.9129 23.3832 11.1038 23.3555 11.3116L23.1263 13.6657L24.6888 15.4574C24.8277 15.6102 24.8971 15.7907 24.8971 15.9991C24.8971 16.2074 24.8277 16.3879 24.6888 16.5407L23.1263 18.3324L23.3555 20.6866C23.3832 20.8949 23.3346 21.086 23.2096 21.2599C23.0846 21.4338 22.918 21.5413 22.7096 21.5824L20.418 22.0824L19.2096 24.1241C19.0985 24.3046 18.9457 24.4263 18.7513 24.4891C18.5569 24.5518 18.3624 24.5413 18.168 24.4574L16.0013 23.5407L13.8346 24.4574C13.6402 24.5407 13.4457 24.5513 13.2513 24.4891C13.0569 24.4268 12.9041 24.3052 12.793 24.1241ZM13.8763 22.6241L16.0013 21.7074L18.168 22.6241L19.3346 20.6241L21.6263 20.0824L21.418 17.7491L22.9596 15.9991L21.418 14.2074L21.6263 11.8741L19.3346 11.3741L18.1263 9.37406L16.0013 10.2907L13.8346 9.37406L12.668 11.3741L10.3763 11.8741L10.5846 14.2074L9.04297 15.9991L10.5846 17.7491L10.3763 20.1241L12.668 20.6241L13.8763 22.6241Z" fill="white"/>
</svg>
