<svg width="41" height="40" viewBox="0 0 41 40" fill="none" xmlns="http://www.w3.org/2000/svg">
<rect x="0.666992" width="40" height="40" rx="20" fill="#FC0000" fill-opacity="0.1"/>
<rect x="1.16699" y="0.5" width="39" height="39" rx="19.5" stroke="#FC0000" stroke-opacity="0.1"/>
<path d="M25.667 28C25.667 29.1046 24.7716 30 23.667 30H17.667C16.5624 30 15.667 29.1046 15.667 28V26.8721C17.0703 27.8949 18.7976 28.5 20.667 28.5C22.5364 28.5 24.2637 27.8949 25.667 26.8721V28ZM20.667 13C24.533 13 27.667 16.134 27.667 20C27.667 23.866 24.533 27 20.667 27C16.801 27 13.667 23.866 13.667 20C13.667 16.134 16.801 13 20.667 13ZM20.667 16.25C20.2528 16.25 19.917 16.5858 19.917 17V19.5361L18.332 20.3291C17.9617 20.5143 17.8112 20.9646 17.9961 21.335C18.1813 21.7054 18.6324 21.8561 19.0029 21.6709L21.0029 20.6709C21.2568 20.5438 21.417 20.2839 21.417 20V17C21.417 16.5858 21.0812 16.25 20.667 16.25ZM23.667 10C24.7716 10 25.667 10.8954 25.667 12V13.127C24.2638 12.1044 22.5362 11.5 20.667 11.5C18.7978 11.5 17.0702 12.1044 15.667 13.127V12C15.667 10.8954 16.5624 10 17.667 10H23.667Z" fill="#FC0000"/>
</svg>
