<svg width="24" height="25" viewBox="0 0 24 25" fill="none" xmlns="http://www.w3.org/2000/svg">
<rect x="2" y="6.5" width="20" height="16" rx="4" stroke="#28303F" stroke-width="1.5"/>
<rect x="16" y="16" width="8" height="8" rx="4" fill="#F5F5F5"/>
<path d="M20 18V22" stroke="#28303F" stroke-width="1.5" stroke-linecap="round"/>
<path d="M22 20L18 20" stroke="#28303F" stroke-width="1.5" stroke-linecap="round"/>
<path d="M8 6.5V5.5C8 3.84315 9.34315 2.5 11 2.5H13C14.6569 2.5 16 3.84315 16 5.5V6.5" stroke="#28303F" stroke-width="1.5" stroke-linecap="round"/>
<path d="M2 13.5H22" stroke="#28303F" stroke-width="1.5" stroke-linecap="round"/>
<path d="M14 13.5C14 14.6046 13.1046 15.5 12 15.5C10.8954 15.5 10 14.6046 10 13.5C10 12.3954 10.8954 11.5 12 11.5C13.1046 11.5 14 12.3954 14 13.5Z" fill="#28303F"/>
</svg>
