<svg width="20" height="20" viewBox="0 0 20 20" fill="none" xmlns="http://www.w3.org/2000/svg">
<path d="M15.459 2.74099C15.1315 2.48739 14.6605 2.54729 14.4068 2.87479C14.1532 3.20229 14.2131 3.67337 14.5406 3.92697L15.459 2.74099ZM17.4347 6.28358L16.7646 6.62038L17.4347 6.28358ZM18.3326 9.96511L19.0826 9.95648L18.3326 9.96511ZM17.5197 13.6653L18.1973 13.9868L17.5197 13.6653ZM14.6811 16.0847C14.3593 16.3456 14.31 16.8179 14.5708 17.1396C14.8317 17.4614 15.304 17.5108 15.6257 17.2499L14.6811 16.0847ZM12.9333 12.753C12.6125 13.015 12.5647 13.4874 12.8267 13.8083C13.0886 14.1292 13.5611 14.1769 13.882 13.9149L12.9333 12.753ZM14.9996 9.98396L15.7495 9.97558V9.97558L14.9996 9.98396ZM13.7951 6.07642C13.4687 5.82133 12.9974 5.87908 12.7423 6.20542C12.4872 6.53177 12.5449 7.00311 12.8713 7.25821L13.7951 6.07642ZM5.45904 3.92697C5.78654 3.67337 5.84644 3.20229 5.59283 2.87479C5.33922 2.54729 4.86814 2.48739 4.54064 2.74099L5.45904 3.92697ZM2.565 6.28358L3.23512 6.62038L2.565 6.28358ZM1.66706 9.96511L0.917109 9.95648L1.66706 9.96511ZM2.47997 13.6653L1.80235 13.9868H1.80235L2.47997 13.6653ZM4.37395 17.2499C4.69572 17.5108 5.16802 17.4614 5.42886 17.1396C5.68971 16.8179 5.64033 16.3456 5.31856 16.0847L4.37395 17.2499ZM6.11771 13.9149C6.43856 14.1769 6.91103 14.1292 7.17299 13.8083C7.43495 13.4874 7.38721 13.015 7.06635 12.753L6.11771 13.9149ZM5.0001 9.98396L4.25014 9.97558V9.97558L5.0001 9.98396ZM7.1284 7.25821C7.45474 7.00311 7.51249 6.53177 7.2574 6.20542C7.0023 5.87908 6.53095 5.82133 6.20461 6.07642L7.1284 7.25821ZM9.24984 16.6673C9.24984 17.0815 9.58562 17.4173 9.99984 17.4173C10.4141 17.4173 10.7498 17.0815 10.7498 16.6673H9.24984ZM11.6665 10.0007H12.4165C12.4165 8.66596 11.3345 7.58398 9.99984 7.58398V8.33398V9.08398C10.5061 9.08398 10.9165 9.49439 10.9165 10.0007H11.6665ZM9.99984 8.33398V7.58398C8.66515 7.58398 7.58317 8.66596 7.58317 10.0007H8.33317H9.08317C9.08317 9.49439 9.49358 9.08398 9.99984 9.08398V8.33398ZM8.33317 10.0007H7.58317C7.58317 11.3353 8.66515 12.4173 9.99984 12.4173V11.6673V10.9173C9.49358 10.9173 9.08317 10.5069 9.08317 10.0007H8.33317ZM9.99984 11.6673V12.4173C11.3345 12.4173 12.4165 11.3353 12.4165 10.0007H11.6665H10.9165C10.9165 10.5069 10.5061 10.9173 9.99984 10.9173V11.6673ZM14.9998 3.33398L14.5406 3.92697C15.4797 4.65418 16.2389 5.57461 16.7646 6.62038L17.4347 6.28358L18.1048 5.94678C17.4774 4.6985 16.5731 3.60373 15.459 2.74099L14.9998 3.33398ZM17.4347 6.28358L16.7646 6.62038C17.2901 7.66608 17.5693 8.81155 17.5827 9.97375L18.3326 9.96511L19.0826 9.95648C19.0665 8.56495 18.7322 7.19514 18.1048 5.94678L17.4347 6.28358ZM18.3326 9.96511L17.5827 9.97375C17.5961 11.136 17.3433 12.2871 16.8421 13.3439L17.5197 13.6653L18.1973 13.9868C18.7959 12.7249 19.0986 11.348 19.0826 9.95648L18.3326 9.96511ZM17.5197 13.6653L16.8421 13.3439C16.3408 14.4007 15.603 15.3373 14.6811 16.0847L15.1534 16.6673L15.6257 17.2499C16.7198 16.363 17.5988 15.2486 18.1973 13.9868L17.5197 13.6653ZM13.4076 13.334L13.882 13.9149C14.4718 13.4334 14.9465 12.8315 15.2701 12.1504L14.5927 11.8285L13.9153 11.5066C13.6887 11.9833 13.3543 12.4093 12.9333 12.753L13.4076 13.334ZM14.5927 11.8285L15.2701 12.1504C15.5938 11.4692 15.7579 10.7267 15.7495 9.97558L14.9996 9.98396L14.2496 9.99234C14.2554 10.5132 14.1418 11.03 13.9153 11.5066L14.5927 11.8285ZM14.9996 9.98396L15.7495 9.97558C15.7411 9.22452 15.5605 8.48561 15.2217 7.81143L14.5516 8.14815L13.8814 8.48487C14.1186 8.95693 14.2438 9.47145 14.2496 9.99234L14.9996 9.98396ZM14.5516 8.14815L15.2217 7.81143C14.8831 7.13739 14.3953 6.54561 13.7951 6.07642L13.3332 6.66732L12.8713 7.25821C13.3001 7.59339 13.6442 8.01267 13.8814 8.48487L14.5516 8.14815ZM4.99984 3.33398L4.54064 2.74099C3.42654 3.60373 2.52226 4.6985 1.89488 5.94678L2.565 6.28358L3.23512 6.62038C3.76073 5.57461 4.51996 4.65418 5.45904 3.92697L4.99984 3.33398ZM2.565 6.28358L1.89488 5.94678C1.26746 7.19514 0.933137 8.56495 0.917109 9.95648L1.66706 9.96511L2.41701 9.97375C2.4304 8.81155 2.70956 7.66608 3.23512 6.62038L2.565 6.28358ZM1.66706 9.96511L0.917109 9.95648C0.901081 11.348 1.20377 12.7249 1.80235 13.9868L2.47997 13.6653L3.1576 13.3439C2.65633 12.2871 2.40362 11.136 2.41701 9.97375L1.66706 9.96511ZM2.47997 13.6653L1.80235 13.9868C2.40089 15.2486 3.27985 16.363 4.37395 17.2499L4.84626 16.6673L5.31856 16.0847C4.39663 15.3373 3.65891 14.4007 3.1576 13.3439L2.47997 13.6653ZM6.59203 13.334L7.06635 12.753C6.64539 12.4093 6.31093 11.9833 6.08439 11.5066L5.40698 11.8285L4.72958 12.1504C5.05322 12.8315 5.52786 13.4334 6.11771 13.9149L6.59203 13.334ZM5.40698 11.8285L6.08439 11.5066C5.85792 11.03 5.74423 10.5132 5.75005 9.99234L5.0001 9.98396L4.25014 9.97558C4.24175 10.7267 4.40587 11.4692 4.72958 12.1504L5.40698 11.8285ZM5.0001 9.98396L5.75005 9.99234C5.75587 9.47145 5.88108 8.95693 6.11827 8.48487L5.4481 8.14815L4.77793 7.81143C4.4392 8.48561 4.25853 9.22452 4.25014 9.97558L5.0001 9.98396ZM5.4481 8.14815L6.11827 8.48487C6.35552 8.01267 6.69961 7.59338 7.1284 7.25821L6.6665 6.66732L6.20461 6.07642C5.60439 6.54561 5.1166 7.13739 4.77793 7.81143L5.4481 8.14815ZM9.99984 11.6673H9.24984V16.6673H9.99984H10.7498V11.6673H9.99984Z" fill="#28303F" fill-opacity="0.8"/>
</svg>
