<svg width="20" height="20" viewBox="0 0 20 20" fill="none" xmlns="http://www.w3.org/2000/svg">
<g clip-path="url(#clip0_1_12372)">
<path d="M4.99984 3.33329H14.9998C16.8408 3.33329 18.3332 4.82568 18.3332 6.66663V10.8333C18.3332 12.6742 16.8408 14.1666 14.9998 14.1666H8.33317C6.49222 14.1666 4.99984 12.6742 4.99984 10.8333V3.33329ZM4.99984 3.33329C4.99984 2.41282 4.25365 1.66663 3.33317 1.66663H1.6665" stroke="#28303F" stroke-opacity="0.8" stroke-width="1.5" stroke-linecap="round" stroke-linejoin="round"/>
<path d="M9.1665 17.0834C9.1665 17.7737 8.60686 18.3334 7.9165 18.3334C7.22615 18.3334 6.6665 17.7737 6.6665 17.0834C6.6665 16.393 7.22615 15.8334 7.9165 15.8334C8.60686 15.8334 9.1665 16.393 9.1665 17.0834Z" stroke="#28303F" stroke-opacity="0.8" stroke-width="1.5"/>
<path d="M16.6665 17.0834C16.6665 17.7737 16.1069 18.3334 15.4165 18.3334C14.7261 18.3334 14.1665 17.7737 14.1665 17.0834C14.1665 16.393 14.7261 15.8334 15.4165 15.8334C16.1069 15.8334 16.6665 16.393 16.6665 17.0834Z" stroke="#28303F" stroke-opacity="0.8" stroke-width="1.5"/>
<path d="M9.1665 10C11.13 11.117 12.2061 11.1052 14.1665 10" stroke="#28303F" stroke-opacity="0.8" stroke-width="1.5" stroke-linecap="round" stroke-linejoin="round"/>
</g>
<defs>
<clipPath id="clip0_1_12372">
<rect width="20" height="20" fill="white"/>
</clipPath>
</defs>
</svg>
