<svg width="40" height="40" viewBox="0 0 40 40" fill="none" xmlns="http://www.w3.org/2000/svg">
<rect width="40" height="40" rx="20" fill="#2855FD" fill-opacity="0.1"/>
<rect x="0.5" y="0.5" width="39" height="39" rx="19.5" stroke="#2855FD" stroke-opacity="0.1"/>
<path d="M20 21C23.866 21 27 22.7909 27 25C27 27.2091 23.866 29 20 29C16.134 29 13 27.2091 13 25C13 22.7909 16.134 21 20 21ZM20 11C22.2091 11 24 12.7909 24 15C24 17.2091 22.2091 19 20 19C17.7909 19 16 17.2091 16 15C16 12.7909 17.7909 11 20 11Z" fill="#2855FD"/>
</svg>
