<svg width="40" height="40" viewBox="0 0 40 40" fill="none" xmlns="http://www.w3.org/2000/svg">
<rect width="40" height="40" rx="20" fill="#2855FD" fill-opacity="0.1"/>
<rect x="0.5" y="0.5" width="39" height="39" rx="19.5" stroke="#2855FD" stroke-opacity="0.1"/>
<path fill-rule="evenodd" clip-rule="evenodd" d="M16.75 11.75C16.75 10.5074 17.7574 9.5 19 9.5H21C22.2426 9.5 23.25 10.5074 23.25 11.75V12.75H16.75V11.75ZM15.25 12.75V11.75C15.25 9.67893 16.9289 8 19 8H21C23.0711 8 24.75 9.67893 24.75 11.75V12.75H26C28.2091 12.75 30 14.5409 30 16.75V19H21.8546C21.5579 18.267 20.8393 17.75 20 17.75C19.1607 17.75 18.4421 18.267 18.1454 19H10V16.75C10 14.5409 11.7909 12.75 14 12.75H15.25ZM21.8546 20.5H30V24.75C30 26.9591 28.2091 28.75 26 28.75H14C11.7909 28.75 10 26.9591 10 24.75V20.5H18.1454C18.4421 21.233 19.1607 21.75 20 21.75C20.8393 21.75 21.5579 21.233 21.8546 20.5Z" fill="#2855FD"/>
</svg>
