<svg width="20" height="20" viewBox="0 0 20 20" fill="none" xmlns="http://www.w3.org/2000/svg">
<path d="M17.5 10.8334V12.5001C17.5 13.8808 16.3807 15.0001 15 15.0001C13.6193 15.0001 12.5 13.8808 12.5 12.5001V10.8334C12.5 9.4527 13.6193 8.33341 15 8.33341C16.3807 8.33341 17.5 9.4527 17.5 10.8334ZM17.5 10.8334V9.16675C17.5 5.02461 14.1421 1.66675 10 1.66675C5.85786 1.66675 2.5 5.02461 2.5 9.16675V10.8334M2.5 10.8334V12.5001C2.5 13.8808 3.61929 15.0001 5 15.0001C6.38071 15.0001 7.5 13.8808 7.5 12.5001V10.8334C7.5 9.4527 6.38071 8.33341 5 8.33341C3.61929 8.33341 2.5 9.4527 2.5 10.8334ZM17.5 11.6667V13.3334C17.5 16.0948 15.2614 18.3334 12.5 18.3334H10" stroke="#28303F" stroke-opacity="0.8" stroke-width="1.5" stroke-linecap="round" stroke-linejoin="round"/>
</svg>
