<svg width="41" height="40" viewBox="0 0 41 40" fill="none" xmlns="http://www.w3.org/2000/svg">
<rect x="0.333496" width="40" height="40" rx="20" fill="#2E00FC" fill-opacity="0.1"/>
<rect x="0.833496" y="0.5" width="39" height="39" rx="19.5" stroke="#2E00FC" stroke-opacity="0.1"/>
<path d="M29.7637 23.335C29.074 25.2847 27.7968 26.9726 26.108 28.1662C24.4191 29.3598 22.4018 30.0005 20.3337 30C15.9807 30 12.2767 27.218 10.9037 23.335C13.738 25.0832 17.0037 26.0061 20.3337 26C23.7917 26 27.0217 25.025 29.7637 23.335ZM29.4597 15.905C30.1077 17.3469 30.4032 18.9223 30.3217 20.501C27.4884 22.7715 23.9645 24.006 20.3337 24C16.5557 24 13.0837 22.69 10.3457 20.5C10.2644 18.9216 10.5599 17.3466 11.2077 15.905C13.8244 17.9163 17.0334 19.0047 20.3337 19C23.7677 19 26.9317 17.846 29.4597 15.905ZM20.3337 10C21.9192 9.99898 23.4823 10.3754 24.8935 11.098C26.3048 11.8207 27.5238 12.8689 28.4497 14.156C26.1473 16.0008 23.284 17.0042 20.3337 17C17.2637 17 14.4417 15.936 12.2177 14.156C13.1436 12.8689 14.3626 11.8207 15.7739 11.098C17.1852 10.3754 18.7482 9.99898 20.3337 10Z" fill="#2E00FC"/>
</svg>
