<svg width="20" height="20" viewBox="0 0 20 20" fill="none" xmlns="http://www.w3.org/2000/svg">
<path d="M16.6663 15H11.6663M16.6663 15C17.5868 15 18.333 15.7462 18.333 16.6667C18.333 17.5872 17.5868 18.3334 16.6663 18.3334H11.6663C10.7458 18.3334 9.99965 17.5872 9.99965 16.6667C9.99965 15.7462 10.7458 15 11.6663 15M16.6663 15C17.5868 15 18.333 14.2538 18.333 13.3334C18.333 12.4129 17.5868 11.6667 16.6663 11.6667H16.1108M11.6663 15C10.7458 15 9.99965 14.2538 9.99965 13.3334C9.99965 12.4129 10.7458 11.6667 11.6663 11.6667H16.1108M11.3958 18.3334H8.60344C5.19065 18.3334 2.78081 14.9899 3.86003 11.7522L4.69336 9.25223C5.37393 7.21052 7.28462 5.83337 9.43678 5.83337H10.5625C12.7147 5.83337 14.6254 7.21052 15.3059 9.25224L16.1108 11.6667" stroke="#28303F" stroke-opacity="0.8" stroke-width="1.5" stroke-linejoin="round"/>
<path d="M11.7381 5.83329L8.2616 5.83329L7.09403 4.49409C5.9495 3.18132 7.28471 1.21911 8.95573 1.75817L9.72887 2.00758C9.9049 2.06436 10.0948 2.06436 10.2708 2.00758L11.0439 1.75817C12.715 1.21911 14.0502 3.18132 12.9056 4.49409L11.7381 5.83329Z" stroke="#28303F" stroke-opacity="0.8" stroke-width="1.5" stroke-linejoin="round"/>
</svg>
