<svg width="24" height="25" viewBox="0 0 24 25" fill="none" xmlns="http://www.w3.org/2000/svg">
<path d="M4.0752 4C4.39295 4 4.65116 4.25749 4.65137 4.5752V16.8545C4.65137 18.232 5.76801 19.3486 7.14551 19.3486H19.4248C19.7425 19.3488 20 19.607 20 19.9248C19.9998 20.2424 19.7424 20.4998 19.4248 20.5H7.14551C5.13224 20.5 3.5 18.8678 3.5 16.8545V4.5752C3.50021 4.25762 3.75762 4.00021 4.0752 4ZM17.1221 9.37207C17.8637 9.37207 18.4647 9.97324 18.4648 10.7148V11.8662C18.4648 12.1841 18.2075 12.4413 17.8896 12.4414C17.5718 12.4414 17.3135 12.1841 17.3135 11.8662V11.3369L15.5449 13.1064C14.7207 13.9306 13.3838 13.9306 12.5596 13.1064L11.6611 12.207C11.2866 11.8326 10.6793 11.8329 10.3047 12.207L8.31934 14.1914C8.09456 14.4162 7.73064 14.4162 7.50586 14.1914C7.28129 13.9666 7.28115 13.6026 7.50586 13.3779L9.49023 11.3936C10.3144 10.5694 11.6504 10.5694 12.4746 11.3936L13.374 12.293C13.7486 12.6673 14.3559 12.6672 14.7305 12.293L16.5 10.5234H15.9707C15.6529 10.5233 15.3955 10.2651 15.3955 9.94727C15.3957 9.62964 15.6531 9.37219 15.9707 9.37207H17.1221Z" fill="#28303F"/>
</svg>
