<svg width="20" height="20" viewBox="0 0 20 20" fill="none" xmlns="http://www.w3.org/2000/svg">
<path d="M10.7072 3.33325H9.29308C8.51207 3.33325 7.87894 3.93021 7.87894 4.66659C7.87894 5.50926 6.97732 6.04501 6.23719 5.64212L6.16202 5.6012C5.48564 5.23301 4.62077 5.45151 4.23026 6.08923L3.52319 7.24393C3.13268 7.88165 3.36442 8.69711 4.0408 9.0653C4.78128 9.46838 4.78127 10.5315 4.0408 10.9345C3.36442 11.3027 3.13268 12.1182 3.52319 12.7559L4.23026 13.9106C4.62076 14.5483 5.48564 14.7668 6.16202 14.3986L6.2372 14.3577C6.97732 13.9548 7.87894 14.4906 7.87894 15.3333C7.87894 16.0696 8.51207 16.6666 9.29308 16.6666H10.7072C11.4882 16.6666 12.1214 16.0696 12.1214 15.3333C12.1214 14.4906 13.023 13.9548 13.7631 14.3577L13.8383 14.3986C14.5147 14.7668 15.3795 14.5483 15.7701 13.9106L16.4771 12.7559C16.8676 12.1182 16.6359 11.3027 15.9595 10.9345C15.219 10.5315 15.219 9.46839 15.9595 9.06531C16.6359 8.69712 16.8676 7.88166 16.4771 7.24394L15.7701 6.08924C15.3795 5.45152 14.5147 5.23302 13.8383 5.60121L13.7631 5.64212C13.023 6.04502 12.1214 5.50927 12.1214 4.66659C12.1214 3.93021 11.4882 3.33325 10.7072 3.33325Z" stroke="#28303F" stroke-opacity="0.8" stroke-width="1.5" stroke-linejoin="round"/>
<circle cx="10" cy="10" r="2.5" stroke="#28303F" stroke-opacity="0.8" stroke-width="1.5"/>
</svg>
