<svg width="20" height="20" viewBox="0 0 20 20" fill="none" xmlns="http://www.w3.org/2000/svg">
<path d="M14.8135 7.0127C15.0828 6.7968 15.4765 6.84005 15.6924 7.10938C16.6928 8.35754 17.292 9.94335 17.292 11.667C17.2918 15.6939 14.027 18.958 10 18.958C5.97303 18.958 2.70817 15.6939 2.70801 11.667C2.70801 9.94335 3.30715 8.35754 4.30762 7.10938C4.52352 6.84005 4.9172 6.7968 5.18652 7.0127C5.45559 7.22857 5.49886 7.62138 5.2832 7.89062C4.45396 8.92507 3.95801 10.2376 3.95801 11.667C3.95817 15.0036 6.66338 17.708 10 17.708C13.3366 17.708 16.0418 15.0036 16.042 11.667C16.042 10.2376 15.546 8.92507 14.7168 7.89062C14.5011 7.62138 14.5444 7.22857 14.8135 7.0127ZM10 1.04199C10.1657 1.042 10.3252 1.10741 10.4424 1.22461L13.7754 4.55762C14.0195 4.80169 14.0195 5.1983 13.7754 5.44238C13.5314 5.68619 13.1357 5.68608 12.8916 5.44238L10.625 3.17578V13.333C10.625 13.6782 10.3452 13.958 10 13.958C9.65482 13.958 9.375 13.6782 9.375 13.333V3.17578L7.1084 5.44238C6.86435 5.68608 6.46859 5.68619 6.22461 5.44238C5.98053 5.19831 5.98053 4.8017 6.22461 4.55762L9.55762 1.22461C9.67483 1.1074 9.83424 1.04199 10 1.04199Z" fill="#28303F" fill-opacity="0.8"/>
</svg>
