<svg width="20" height="20" viewBox="0 0 20 20" fill="none" xmlns="http://www.w3.org/2000/svg">
<ellipse cx="10" cy="13.75" rx="5" ry="2.08333" stroke="#28303F" stroke-opacity="0.8" stroke-width="1.5" stroke-linejoin="round"/>
<circle cx="10" cy="6.66663" r="2.5" stroke="#28303F" stroke-opacity="0.8" stroke-width="1.5" stroke-linejoin="round"/>
<path d="M5.62695 10.9216C4.67308 11.3885 3.95778 12.0042 3.59668 12.7058C3.44178 12.7508 3.29754 12.7987 3.16602 12.8513C2.84158 12.9811 2.62882 13.1168 2.50977 13.2292C2.45719 13.279 2.43245 13.3136 2.42188 13.3328C2.43219 13.3517 2.45638 13.3868 2.50977 13.4373C2.6288 13.5497 2.84153 13.6854 3.16602 13.8152C3.22099 13.8372 3.27869 13.8569 3.33789 13.8777C3.37582 14.5152 3.69707 15.1112 4.23242 15.6296C3.63004 15.5378 3.07784 15.3965 2.6084 15.2087C2.17938 15.0371 1.78207 14.8131 1.47949 14.5271C1.2133 14.2754 0.98227 13.9352 0.928711 13.5173L0.916992 13.3337L0.928711 13.1492C0.982318 12.7314 1.21334 12.3911 1.47949 12.1394C1.78201 11.8535 2.17951 11.6303 2.6084 11.4587C3.42227 11.1332 4.48387 10.9425 5.62695 10.9216Z" fill="#28303F" fill-opacity="0.8"/>
<path d="M14.373 10.9216C15.5163 10.9425 16.5776 11.1332 17.3916 11.4587C17.8208 11.6304 18.2188 11.8532 18.5215 12.1394C18.8258 12.4272 19.083 12.8309 19.083 13.3337C19.0829 13.8363 18.8256 14.2394 18.5215 14.5271C18.2188 14.8133 17.8208 15.037 17.3916 15.2087C16.9218 15.3966 16.3693 15.5377 15.7666 15.6296C16.3023 15.1111 16.6232 14.5154 16.6611 13.8777C16.7206 13.8568 16.7787 13.8373 16.834 13.8152C17.1584 13.6854 17.3712 13.5497 17.4902 13.4373C17.5432 13.3872 17.5667 13.3519 17.5771 13.3328C17.5664 13.3135 17.5424 13.2786 17.4902 13.2292C17.3712 13.1168 17.1584 12.9811 16.834 12.8513C16.7022 12.7986 16.5576 12.7509 16.4023 12.7058C16.0411 12.0044 15.3268 11.3884 14.373 10.9216Z" fill="#28303F" fill-opacity="0.8"/>
<path d="M14.1665 5.08301C15.5009 5.08318 16.5823 6.16557 16.5825 7.5C16.5823 8.83443 15.5009 9.91584 14.1665 9.91602C13.7284 9.91596 13.3187 9.79758 12.9644 9.59375C13.3183 9.23534 13.6069 8.81298 13.813 8.3457C13.9218 8.39121 14.0412 8.41597 14.1665 8.41602C14.6725 8.41584 15.0823 8.006 15.0825 7.5C15.0823 6.994 14.6725 6.58318 14.1665 6.58301H14.1636C14.1533 6.06075 14.0473 5.56268 13.8618 5.10449C13.9617 5.0919 14.0632 5.08302 14.1665 5.08301Z" fill="#28303F" fill-opacity="0.8"/>
<path d="M5.83398 5.08301C5.93657 5.08303 6.0375 5.09108 6.13672 5.10352C5.9511 5.56182 5.84525 6.06059 5.83496 6.58301H5.83398C5.32783 6.58301 4.91717 6.99389 4.91699 7.5C4.91717 8.00611 5.32783 8.41602 5.83398 8.41602C5.95896 8.41593 6.07801 8.39105 6.18652 8.3457C6.39255 8.81296 6.68129 9.23534 7.03516 9.59375C6.68107 9.7974 6.27182 9.9159 5.83398 9.91602C4.4994 9.91602 3.41717 8.83454 3.41699 7.5C3.41717 6.16546 4.4994 5.08301 5.83398 5.08301Z" fill="#28303F" fill-opacity="0.8"/>
</svg>
