<svg width="19" height="20" viewBox="0 0 19 20" fill="none" xmlns="http://www.w3.org/2000/svg">
<path d="M4.99984 18.3333C6.55607 18.3333 7.86322 17.2668 8.23031 15.8249C8.34386 15.3788 8.70627 15 9.1665 15H14.9998M4.99984 18.3333C3.15889 18.3333 1.6665 16.8409 1.6665 15V4.16663C1.6665 2.78591 2.78579 1.66663 4.1665 1.66663H12.4998C13.8806 1.66663 14.9998 2.78591 14.9998 4.16663V15M4.99984 18.3333H14.9998C16.5561 18.3333 17.8632 17.2668 18.2303 15.8249C18.3439 15.3788 17.9601 15 17.4998 15H14.9998M5.83317 10.8333L7.08317 9.58329M10.8332 7.91663C10.8332 9.06722 9.90043 9.99996 8.74984 9.99996C7.59924 9.99996 6.6665 9.06722 6.6665 7.91663C6.6665 6.76603 7.59924 5.83329 8.74984 5.83329C9.90043 5.83329 10.8332 6.76603 10.8332 7.91663Z" stroke="#28303F" stroke-opacity="0.8" stroke-width="1.5" stroke-linecap="round"/>
</svg>
