<svg width="20" height="20" viewBox="0 0 20 20" fill="none" xmlns="http://www.w3.org/2000/svg">
<path d="M4.99984 9.16679C3.15889 9.16679 1.6665 7.67441 1.6665 5.83346C1.6665 3.99251 3.15889 2.50012 4.99984 2.50012L14.9998 2.50012C16.8408 2.50012 18.3332 3.99251 18.3332 5.83346C18.3332 7.67441 16.8408 9.16679 14.9998 9.16679M14.9998 5.83346L14.9998 15.5001C14.9998 16.6047 14.1044 17.5001 12.9998 17.5001H6.99984C5.89527 17.5001 4.99984 16.6047 4.99984 15.5001V5.83346L14.9998 5.83346Z" stroke="#28303F" stroke-opacity="0.8" stroke-width="1.5" stroke-linejoin="round"/>
<path d="M11.6665 12.5002L10.5891 13.5776C10.2637 13.903 9.73602 13.903 9.41058 13.5776L8.33317 12.5002M9.99984 9.16683V13.3335" stroke="#28303F" stroke-opacity="0.8" stroke-width="1.5" stroke-linecap="round"/>
</svg>
